{
.appVersion = "113";
copyright = "Copyright © 2021 by Brian Suda.";
date = "2021-11-13 21:23:36 +0000";
designer = "Brian Suda";
designerURL = "https://optional.is/typography/";
familyName = "Playfair Pies";
featurePrefixes = (
{
automatic = 1;
code = "languagesystem DFLT dflt;\012";
name = Languagesystems;
}
);
features = (
{
automatic = 1;

glyphs = (
{
glyphname = zero_percent.liga;
lastChange = "2021-11-14 20:15:07 +0000";
layers = (
{
layerId = "3603F491-BDB4-4F7B-A4F4-044CFF075AAF";
paths = (
{
closed = 1;
nodes = (
"218 931 OFFCURVE {stroke = {w = 1;};}",
"10 722 OFFCURVE {stroke = {w = 1;};}",
"10 466 CURVE {stroke = {w = 1;};}",
"10 209 OFFCURVE {stroke = {w = 1;};}",
"218 1 OFFCURVE {stroke = {w = 1;};}",
"475 1 CURVE {stroke = {w = 1;};}",
"732 1 OFFCURVE {stroke = {w = 1;};}",
"940 209 OFFCURVE {stroke = {w = 1;};}",
"940 466 CURVE {stroke = {w = 1;};}",
"940 722 OFFCURVE {stroke = {w = 1;};}",
"732 931 OFFCURVE {stroke = {w = 1;};}",
"475 931 CURVE {stroke = {w = 1;};}"
);
},
{
closed = 1;
nodes = (
"867 389 LINE {stroke = {w = 1;};}",
"861 365 LINE {stroke = {w = 1;};}",
"854 340 LINE {stroke = {w = 1;};}",
"846 317 LINE {stroke = {w = 1;};}",
"836 294 LINE {stroke = {w = 1;};}",
"824 272 LINE {stroke = {w = 1;};}",
"812 250 LINE {stroke = {w = 1;};}",
"797 229 LINE {stroke = {w = 1;};}",
"782 209 LINE {stroke = {w = 1;};}",
"766 191 LINE {stroke = {w = 1;};}",
"748 173 LINE {stroke = {w = 1;};}",
"729 156 LINE {stroke = {w = 1;};}",
"709 141 LINE {stroke = {w = 1;};}",
"688 127 LINE {stroke = {w = 1;};}",
"667 114 LINE {stroke = {w = 1;};}",
"645 103 LINE {stroke = {w = 1;};}",
"622 93 LINE {stroke = {w = 1;};}",
"598 84 LINE {stroke = {w = 1;};}",
"574 77 LINE {stroke = {w = 1;};}",
"549 72 LINE {stroke = {w = 1;};}",
"525 68 LINE {stroke = {w = 1;};}",
"500 66 LINE {stroke = {w = 1;};}",
"475 65 LINE {stroke = {w = 1;};}",
"450 66 LINE {stroke = {w = 1;};}",
"425 68 LINE {stroke = {w = 1;};}",
"400 72 LINE {stroke = {w = 1;};}",
"375 77 LINE {stroke = {w = 1;};}",
"351 84 LINE {stroke = {w = 1;};}",
"328 93 LINE {stroke = {w = 1;};}",
"305 103 LINE {stroke = {w = 1;};}",
"282 114 LINE {stroke = {w = 1;};}",
"261 127 LINE {stroke = {w = 1;};}",
"240 141 LINE {stroke = {w = 1;};}",
"220 156 LINE {stroke = {w = 1;};}",
"201 173 LINE {stroke = {w = 1;};}",
"184 191 LINE {stroke = {w = 1;};}",
"167 209 LINE {stroke = {w = 1;};}",
"152 229 LINE {stroke = {w = 1;};}",
"138 250 LINE {stroke = {w = 1;};}",
"125 272 LINE {stroke = {w = 1;};}",
"114 294 LINE {stroke = {w = 1;};}",
"104 317 LINE {stroke = {w = 1;};}",
"95 340 LINE {stroke = {w = 1;};}",
"88 365 LINE {stroke = {w = 1;};}",
"83 389 LINE {stroke = {w = 1;};}",
"79 414 LINE {stroke = {w = 1;};}",
"76 439 LINE {stroke = {w = 1;};}",
"76 464 LINE {stroke = {w = 1;};}",
"76 489 LINE {stroke = {w = 1;};}",
"79 514 LINE {stroke = {w = 1;};}",
"83 539 LINE {stroke = {w = 1;};}",
"88 563 LINE {stroke = {w = 1;};}",
"95 587 LINE {stroke = {w = 1;};}",
"104 611 LINE {stroke = {w = 1;};}",
"114 634 LINE {stroke = {w = 1;};}",
"125 656 LINE {stroke = {w = 1;};}",
"138 678 LINE {stroke = {w = 1;};}",
"152 698 LINE {stroke = {w = 1;};}",
"167 718 LINE {stroke = {w = 1;};}",
"184 737 LINE {stroke = {w = 1;};}",
"201 755 LINE {stroke = {w = 1;};}",
"220 771 LINE {stroke = {w = 1;};}",
"240 787 LINE {stroke = {w = 1;};}",
"261 801 LINE {stroke = {w = 1;};}",
"282 813 LINE {stroke = {w = 1;};}",
"305 825 LINE {stroke = {w = 1;};}",
"328 835 LINE {stroke = {w = 1;};}",
"351 843 LINE {stroke = {w = 1;};}",
"375 850 LINE {stroke = {w = 1;};}",
"400 856 LINE {stroke = {w = 1;};}",
"425 860 LINE {stroke = {w = 1;};}",
"450 862 LINE {stroke = {w = 1;};}",
"475 863 LINE {stroke = {w = 1;};}",
"500 862 LINE {stroke = {w = 1;};}",
"525 860 LINE {stroke = {w = 1;};}",
"549 856 LINE {stroke = {w = 1;};}",
"574 850 LINE {stroke = {w = 1;};}",
"598 843 LINE {stroke = {w = 1;};}",
"622 835 LINE {stroke = {w = 1;};}",
"645 825 LINE {stroke = {w = 1;};}",
"667 813 LINE {stroke = {w = 1;};}",
"688 801 LINE {stroke = {w = 1;};}",
"709 787 LINE {stroke = {w = 1;};}",
"729 771 LINE {stroke = {w = 1;};}",
"748 755 LINE {stroke = {w = 1;};}",
"766 737 LINE {stroke = {w = 1;};}",
"782 718 LINE {stroke = {w = 1;};}",
"797 698 LINE {stroke = {w = 1;};}",
"812 678 LINE {stroke = {w = 1;};}",
"824 656 LINE {stroke = {w = 1;};}",
"836 634 LINE {stroke = {w = 1;};}",
"846 611 LINE {stroke = {w = 1;};}",
"854 587 LINE {stroke = {w = 1;};}",
"861 563 LINE {stroke = {w = 1;};}",
"867 539 LINE {stroke = {w = 1;};}",
"871 514 LINE {stroke = {w = 1;};}",
"873 489 LINE {stroke = {w = 1;};}",
"874 464 LINE {stroke = {w = 1;};}",
"873 439 LINE {stroke = {w = 1;};}",
"871 414 LINE {stroke = {w = 1;};}"
);
}
);
width = 950;
}
);
},
{
glyphname = one_zero_zero_percent.liga;
lastChange = "2021-11-14 21:46:45 +0000";
layers = (
{
layerId = "3603F491-BDB4-4F7B-A4F4-044CFF075AAF";
paths = (
{
closed = 1;
nodes = (
"218 931 OFFCURVE {stroke = {w = 1;};}",
"9 722 OFFCURVE {stroke = {w = 1;};}",
"10 466 CURVE {stroke = {w = 1;};}",
"10 209 OFFCURVE {stroke = {w = 1;};}",
"218 1 OFFCURVE {stroke = {w = 1;};}",
"474 1 CURVE {stroke = {w = 1;};}",
"731 1 OFFCURVE {stroke = {w = 1;};}",
"939 209 OFFCURVE {stroke = {w = 1;};}",
"939 466 CURVE {stroke = {w = 1;};}",
"939 722 OFFCURVE {stroke = {w = 1;};}",
"731 931 OFFCURVE {stroke = {w = 1;};}",
"474 931 CURVE {stroke = {w = 1;};}"
);
}
);
width = 950;
}
);
},
{
glyphname = one_zero_percent.liga;
lastChange = "2021-11-14 20:25:22 +0000";
layers = (
{
layerId = "3603F491-BDB4-4F7B-A4F4-044CFF075AAF";
paths = (
{
closed = 1;
nodes = (
"218 931 OFFCURVE {stroke = {w = 1;};}",
"10 723 OFFCURVE {stroke = {w = 1;};}",
"10 466 CURVE {stroke = {w = 1;};}",
"10 209 OFFCURVE {stroke = {w = 1;};}",
"218 1 OFFCURVE {stroke = {w = 1;};}",
"475 1 CURVE {stroke = {w = 1;};}",
"731 1 OFFCURVE {stroke = {w = 1;};}",
"939 209 OFFCURVE {stroke = {w = 1;};}",
"939 466 CURVE {stroke = {w = 1;};}",
"939 723 OFFCURVE {stroke = {w = 1;};}",
"731 931 OFFCURVE {stroke = {w = 1;};}",
"475 931 CURVE {stroke = {w = 1;};}"
);
},
{
closed = 1;
nodes = (
"867 389 LINE {stroke = {w = 1;};}",
"861 365 LINE {stroke = {w = 1;};}",
"854 341 LINE {stroke = {w = 1;};}",
"846 317 LINE {stroke = {w = 1;};}",
"836 294 LINE {stroke = {w = 1;};}",
"824 272 LINE {stroke = {w = 1;};}",
"812 250 LINE {stroke = {w = 1;};}",
"797 230 LINE {stroke = {w = 1;};}",
"782 210 LINE {stroke = {w = 1;};}",
"765 191 LINE {stroke = {w = 1;};}",
"748 173 LINE {stroke = {w = 1;};}",
"729 157 LINE {stroke = {w = 1;};}",
"709 141 LINE {stroke = {w = 1;};}",
"688 127 LINE {stroke = {w = 1;};}",
"667 114 LINE {stroke = {w = 1;};}",
"644 103 LINE {stroke = {w = 1;};}",
"621 93 LINE {stroke = {w = 1;};}",
"598 85 LINE {stroke = {w = 1;};}",
"574 78 LINE {stroke = {w = 1;};}",
"549 72 LINE {stroke = {w = 1;};}",
"525 68 LINE {stroke = {w = 1;};}",
"500 66 LINE {stroke = {w = 1;};}",
"475 65 LINE {stroke = {w = 1;};}",
"450 66 LINE {stroke = {w = 1;};}",
"425 68 LINE {stroke = {w = 1;};}",
"400 72 LINE {stroke = {w = 1;};}",
"375 78 LINE {stroke = {w = 1;};}",
"351 85 LINE {stroke = {w = 1;};}",
"328 93 LINE {stroke = {w = 1;};}",
"305 103 LINE {stroke = {w = 1;};}",
"282 114 LINE {stroke = {w = 1;};}",
"261 127 LINE {stroke = {w = 1;};}",
"240 141 LINE {stroke = {w = 1;};}",
"220 157 LINE {stroke = {w = 1;};}",
"201 173 LINE {stroke = {w = 1;};}",
"184 191 LINE {stroke = {w = 1;};}",
"167 210 LINE {stroke = {w = 1;};}",
"152 230 LINE {stroke = {w = 1;};}",
"138 250 LINE {stroke = {w = 1;};}",
"125 272 LINE {stroke = {w = 1;};}",
"113 294 LINE {stroke = {w = 1;};}",
"104 317 LINE {stroke = {w = 1;};}",
"95 341 LINE {stroke = {w = 1;};}",
"88 365 LINE {stroke = {w = 1;};}",
"83 389 LINE {stroke = {w = 1;};}",
"79 414 LINE {stroke = {w = 1;};}",
"76 439 LINE {stroke = {w = 1;};}",
"75 464 LINE {stroke = {w = 1;};}",
"76 489 LINE {stroke = {w = 1;};}",
"79 514 LINE {stroke = {w = 1;};}",
"83 539 LINE {stroke = {w = 1;};}",
"88 563 LINE {stroke = {w = 1;};}",
"95 587 LINE {stroke = {w = 1;};}",
"104 611 LINE {stroke = {w = 1;};}",
"113 634 LINE {stroke = {w = 1;};}",
"125 656 LINE {stroke = {w = 1;};}",
"138 678 LINE {stroke = {w = 1;};}",
"152 699 LINE {stroke = {w = 1;};}",
"167 718 LINE {stroke = {w = 1;};}",
"184 737 LINE {stroke = {w = 1;};}",
"201 755 LINE {stroke = {w = 1;};}",
"220 772 LINE {stroke = {w = 1;};}",
"240 787 LINE {stroke = {w = 1;};}",
"261 801 LINE {stroke = {w = 1;};}",
"282 814 LINE {stroke = {w = 1;};}",
"305 825 LINE {stroke = {w = 1;};}",
"328 835 LINE {stroke = {w = 1;};}",
"351 844 LINE {stroke = {w = 1;};}",
"375 851 LINE {stroke = {w = 1;};}",
"400 856 LINE {stroke = {w = 1;};}",
"425 860 LINE {stroke = {w = 1;};}",
"450 862 LINE {stroke = {w = 1;};}",
"475 863 LINE {stroke = {w = 1;};}",
"475 464 LINE {stroke = {w = 1;};}",
"709 787 LINE {stroke = {w = 1;};}",
"729 772 LINE {stroke = {w = 1;};}",
"748 755 LINE {stroke = {w = 1;};}",
"765 737 LINE {stroke = {w = 1;};}",
"782 718 LINE {stroke = {w = 1;};}",
"797 699 LINE {stroke = {w = 1;};}",
"812 678 LINE {stroke = {w = 1;};}",
"824 656 LINE {stroke = {w = 1;};}",
"836 634 LINE {stroke = {w = 1;};}",
"846 611 LINE {stroke = {w = 1;};}",
"854 587 LINE {stroke = {w = 1;};}",
"861 563 LINE {stroke = {w = 1;};}",
"867 539 LINE {stroke = {w = 1;};}",
"870 514 LINE {stroke = {w = 1;};}",
"873 489 LINE {stroke = {w = 1;};}",
"874 464 LINE {stroke = {w = 1;};}",
"873 439 LINE {stroke = {w = 1;};}",
"870 414 LINE {stroke = {w = 1;};}"
);
}
);
width = 950;
}
);
},
{
glyphname = one_one_percent.liga;
lastChange = "2021-11-14 20:29:03 +0000";
layers = (
{
layerId = "3603F491-BDB4-4F7B-A4F4-044CFF075AAF";
paths = (
{
closed = 1;
nodes = (
"218 931 OFFCURVE {stroke = {w = 1;};}",
"9 722 OFFCURVE {stroke = {w = 1;};}",
"10 466 CURVE {stroke = {w = 1;};}",
"10 209 OFFCURVE {stroke = {w = 1;};}",
"218 1 OFFCURVE {stroke = {w = 1;};}",
"474 1 CURVE {stroke = {w = 1;};}",
"731 1 OFFCURVE {stroke = {w = 1;};}",
"939 209 OFFCURVE {stroke = {w = 1;};}",
"939 466 CURVE {stroke = {w = 1;};}",
"939 722 OFFCURVE {stroke = {w = 1;};}",
"731 931 OFFCURVE {stroke = {w = 1;};}",
"474 931 CURVE {stroke = {w = 1;};}"
);
},
{
closed = 1;
nodes = (
"866 389 LINE {stroke = {w = 1;};}",
"861 365 LINE {stroke = {w = 1;};}",
"854 340 LINE {stroke = {w = 1;};}",
"845 317 LINE {stroke = {w = 1;};}",
"835 294 LINE {stroke = {w = 1;};}",
"824 272 LINE {stroke = {w = 1;};}",
"811 250 LINE {stroke = {w = 1;};}",
"797 229 LINE {stroke = {w = 1;};}",
"782 209 LINE {stroke = {w = 1;};}",
"765 191 LINE {stroke = {w = 1;};}",
"747 173 LINE {stroke = {w = 1;};}",
"729 156 LINE {stroke = {w = 1;};}",
"709 141 LINE {stroke = {w = 1;};}",
"688 127 LINE {stroke = {w = 1;};}",
"667 114 LINE {stroke = {w = 1;};}",
"644 103 LINE {stroke = {w = 1;};}",
"621 93 LINE {stroke = {w = 1;};}",
"598 84 LINE {stroke = {w = 1;};}",
"574 77 LINE {stroke = {w = 1;};}",
"549 72 LINE {stroke = {w = 1;};}",
"524 68 LINE {stroke = {w = 1;};}",
"499 65 LINE {stroke = {w = 1;};}",
"474 65 LINE {stroke = {w = 1;};}",
"449 65 LINE {stroke = {w = 1;};}",
"424 68 LINE {stroke = {w = 1;};}",
"400 72 LINE {stroke = {w = 1;};}",
"375 77 LINE {stroke = {w = 1;};}",
"351 84 LINE {stroke = {w = 1;};}",
"327 93 LINE {stroke = {w = 1;};}",
"304 103 LINE {stroke = {w = 1;};}",
"282 114 LINE {stroke = {w = 1;};}",
"260 127 LINE {stroke = {w = 1;};}",
"240 141 LINE {stroke = {w = 1;};}",
"220 156 LINE {stroke = {w = 1;};}",
"201 173 LINE {stroke = {w = 1;};}",
"183 191 LINE {stroke = {w = 1;};}",
"167 209 LINE {stroke = {w = 1;};}",
"151 229 LINE {stroke = {w = 1;};}",
"137 250 LINE {stroke = {w = 1;};}",
"125 272 LINE {stroke = {w = 1;};}",
"113 294 LINE {stroke = {w = 1;};}",
"103 317 LINE {stroke = {w = 1;};}",
"95 340 LINE {stroke = {w = 1;};}",
"88 365 LINE {stroke = {w = 1;};}",
"82 389 LINE {stroke = {w = 1;};}",
"78 414 LINE {stroke = {w = 1;};}",
"76 439 LINE {stroke = {w = 1;};}",
"75 464 LINE {stroke = {w = 1;};}",
"76 489 LINE {stroke = {w = 1;};}",
"78 514 LINE {stroke = {w = 1;};}",
"82 539 LINE {stroke = {w = 1;};}",
"88 563 LINE {stroke = {w = 1;};}",
"95 587 LINE {stroke = {w = 1;};}",
"103 611 LINE {stroke = {w = 1;};}",
"113 634 LINE {stroke = {w = 1;};}",
"125 656 LINE {stroke = {w = 1;};}",
"137 678 LINE {stroke = {w = 1;};}",
"151 698 LINE {stroke = {w = 1;};}",
"167 718 LINE {stroke = {w = 1;};}",
"183 737 LINE {stroke = {w = 1;};}",
"201 755 LINE {stroke = {w = 1;};}",
"220 771 LINE {stroke = {w = 1;};}",
"240 787 LINE {stroke = {w = 1;};}",
"260 801 LINE {stroke = {w = 1;};}",
"282 813 LINE {stroke = {w = 1;};}",
"304 825 LINE {stroke = {w = 1;};}",
"327 835 LINE {stroke = {w = 1;};}",
"351 843 LINE {stroke = {w = 1;};}",
"375 850 LINE {stroke = {w = 1;};}",
"400 856 LINE {stroke = {w = 1;};}",
"424 860 LINE {stroke = {w = 1;};}",
"449 862 LINE {stroke = {w = 1;};}",
"474 863 LINE {stroke = {w = 1;};}",
"474 464 LINE {stroke = {w = 1;};}",
"729 771 LINE {stroke = {w = 1;};}",
"747 755 LINE {stroke = {w = 1;};}",
"765 737 LINE {stroke = {w = 1;};}",
"782 718 LINE {stroke = {w = 1;};}",
"797 698 LINE {stroke = {w = 1;};}",
"811 678 LINE {stroke = {w = 1;};}",
"824 656 LINE {stroke = {w = 1;};}",
"835 634 LINE {stroke = {w = 1;};}",
"845 611 LINE {stroke = {w = 1;};}",
"854 587 LINE {stroke = {w = 1;};}",
"861 563 LINE {stroke = {w = 1;};}",
"866 539 LINE {stroke = {w = 1;};}",
"870 514 LINE {stroke = {w = 1;};}",
"873 489 LINE {stroke = {w = 1;};}",
"873 464 LINE {stroke = {w = 1;};}",
"873 439 LINE {stroke = {w = 1;};}",
"870 414 LINE {stroke = {w = 1;};}"
);
}
);
width = 950;
}
);
},
{
glyphname = one_two_percent.liga;
lastChange = "2021-11-14 20:29:55 +0000";
layers = (
{
layerId = "3603F491-BDB4-4F7B-A4F4-044CFF075AAF";
paths = (
{
closed = 1;
nodes = (
"218 931 OFFCURVE {stroke = {w = 1;};}",
"10 723 OFFCURVE {stroke = {w = 1;};}",
"10 466 CURVE {stroke = {w = 1;};}",
"10 209 OFFCURVE {stroke = {w = 1;};}",
"218 1 OFFCURVE {stroke = {w = 1;};}",
"475 1 CURVE {stroke = {w = 1;};}",
"731 1 OFFCURVE {stroke = {w = 1;};}",
"939 209 OFFCURVE {stroke = {w = 1;};}",
"939 466 CURVE {stroke = {w = 1;};}",
"939 723 OFFCURVE {stroke = {w = 1;};}",
"731 931 OFFCURVE {stroke = {w = 1;};}",
"475 931 CURVE {stroke = {w = 1;};}"
);
},
{
closed = 1;
nodes = (
"867 389 LINE {stroke = {w = 1;};}",
"861 365 LINE {stroke = {w = 1;};}",
"854 341 LINE {stroke = {w = 1;};}",
"846 317 LINE {stroke = {w = 1;};}",
"836 294 LINE {stroke = {w = 1;};}",
"824 272 LINE {stroke = {w = 1;};}",
"812 250 LINE {stroke = {w = 1;};}",
"797 230 LINE {stroke = {w = 1;};}",
"782 210 LINE {stroke = {w = 1;};}",
"765 191 LINE {stroke = {w = 1;};}",
"748 173 LINE {stroke = {w = 1;};}",
"729 157 LINE {stroke = {w = 1;};}",
"709 141 LINE {stroke = {w = 1;};}",
"688 127 LINE {stroke = {w = 1;};}",
"667 114 LINE {stroke = {w = 1;};}",
"644 103 LINE {stroke = {w = 1;};}",
"621 93 LINE {stroke = {w = 1;};}",
"598 85 LINE {stroke = {w = 1;};}",
"574 78 LINE {stroke = {w = 1;};}",
"549 72 LINE {stroke = {w = 1;};}",
"525 68 LINE {stroke = {w = 1;};}",
"500 66 LINE {stroke = {w = 1;};}",
"475 65 LINE {stroke = {w = 1;};}",
"450 66 LINE {stroke = {w = 1;};}",
"425 68 LINE {stroke = {w = 1;};}",
"400 72 LINE {stroke = {w = 1;};}",
"375 78 LINE {stroke = {w = 1;};}",
"351 85 LINE {stroke = {w = 1;};}",
"328 93 LINE {stroke = {w = 1;};}",
"305 103 LINE {stroke = {w = 1;};}",
"282 114 LINE {stroke = {w = 1;};}",
"261 127 LINE {stroke = {w = 1;};}",
"240 141 LINE {stroke = {w = 1;};}",
"220 157 LINE {stroke = {w = 1;};}",
"201 173 LINE {stroke = {w = 1;};}",
"184 191 LINE {stroke = {w = 1;};}",
"167 210 LINE {stroke = {w = 1;};}",
"152 230 LINE {stroke = {w = 1;};}",
"138 250 LINE {stroke = {w = 1;};}",
"125 272 LINE {stroke = {w = 1;};}",
"113 294 LINE {stroke = {w = 1;};}",
"104 317 LINE {stroke = {w = 1;};}",
"95 341 LINE {stroke = {w = 1;};}",
"88 365 LINE {stroke = {w = 1;};}",
"83 389 LINE {stroke = {w = 1;};}",
"79 414 LINE {stroke = {w = 1;};}",
"76 439 LINE {stroke = {w = 1;};}",
"75 464 LINE {stroke = {w = 1;};}",
"76 489 LINE {stroke = {w = 1;};}",
"79 514 LINE {stroke = {w = 1;};}",
"83 539 LINE {stroke = {w = 1;};}",
"88 563 LINE {stroke = {w = 1;};}",
"95 587 LINE {stroke = {w = 1;};}",
"104 611 LINE {stroke = {w = 1;};}",
"113 634 LINE {stroke = {w = 1;};}",
"125 656 LINE {stroke = {w = 1;};}",
"138 678 LINE {stroke = {w = 1;};}",
"152 699 LINE {stroke = {w = 1;};}",
"167 718 LINE {stroke = {w = 1;};}",
"184 737 LINE {stroke = {w = 1;};}",
"201 755 LINE {stroke = {w = 1;};}",
"220 772 LINE {stroke = {w = 1;};}",
"240 787 LINE {stroke = {w = 1;};}",
"261 801 LINE {stroke = {w = 1;};}",
"282 814 LINE {stroke = {w = 1;};}",
"305 825 LINE {stroke = {w = 1;};}",
"328 835 LINE {stroke = {w = 1;};}",
"351 844 LINE {stroke = {w = 1;};}",
"375 851 LINE {stroke = {w = 1;};}",
"400 856 LINE {stroke = {w = 1;};}",
"425 860 LINE {stroke = {w = 1;};}",
"450 862 LINE {stroke = {w = 1;};}",
"475 863 LINE {stroke = {w = 1;};}",
"475 464 LINE {stroke = {w = 1;};}",
"748 755 LINE {stroke = {w = 1;};}",
"765 737 LINE {stroke = {w = 1;};}",
"782 718 LINE {stroke = {w = 1;};}",
"797 699 LINE {stroke = {w = 1;};}",
"812 678 LINE {stroke = {w = 1;};}",
"824 656 LINE {stroke = {w = 1;};}",
"836 634 LINE {stroke = {w = 1;};}",
"846 611 LINE {stroke = {w = 1;};}",
"854 587 LINE {stroke = {w = 1;};}",
"861 563 LINE {stroke = {w = 1;};}",
"867 539 LINE {stroke = {w = 1;};}",
"870 514 LINE {stroke = {w = 1;};}",
"873 489 LINE {stroke = {w = 1;};}",
"874 464 LINE {stroke = {w = 1;};}",
"873 439 LINE {stroke = {w = 1;};}",
"870 414 LINE {stroke = {w = 1;};}"
);
}
);
width = 950;
}
);
},
{
glyphname = one_three_percent.liga;
lastChange = "2021-11-14 20:30:44 +0000";
layers = (
{
layerId = "3603F491-BDB4-4F7B-A4F4-044CFF075AAF";
paths = (
{
closed = 1;
nodes = (
"218 931 OFFCURVE {stroke = {w = 1;};}",
"9 722 OFFCURVE {stroke = {w = 1;};}",
"10 466 CURVE {stroke = {w = 1;};}",
"10 209 OFFCURVE {stroke = {w = 1;};}",
"218 1 OFFCURVE {stroke = {w = 1;};}",
"474 1 CURVE {stroke = {w = 1;};}",
"731 1 OFFCURVE {stroke = {w = 1;};}",
"939 209 OFFCURVE {stroke = {w = 1;};}",
"939 466 CURVE {stroke = {w = 1;};}",
"939 722 OFFCURVE {stroke = {w = 1;};}",
"731 931 OFFCURVE {stroke = {w = 1;};}",
"474 931 CURVE {stroke = {w = 1;};}"
);
},
{
closed = 1;
nodes = (
"866 389 LINE {stroke = {w = 1;};}",
"861 365 LINE {stroke = {w = 1;};}",
"854 340 LINE {stroke = {w = 1;};}",
"845 317 LINE {stroke = {w = 1;};}",
"835 294 LINE {stroke = {w = 1;};}",
"824 272 LINE {stroke = {w = 1;};}",
"811 250 LINE {stroke = {w = 1;};}",
"797 229 LINE {stroke = {w = 1;};}",
"782 209 LINE {stroke = {w = 1;};}",
"765 191 LINE {stroke = {w = 1;};}",
"747 173 LINE {stroke = {w = 1;};}",
"729 156 LINE {stroke = {w = 1;};}",
"709 141 LINE {stroke = {w = 1;};}",
"688 127 LINE {stroke = {w = 1;};}",
"667 114 LINE {stroke = {w = 1;};}",
"644 103 LINE {stroke = {w = 1;};}",
"621 93 LINE {stroke = {w = 1;};}",
"598 84 LINE {stroke = {w = 1;};}",
"574 77 LINE {stroke = {w = 1;};}",
"549 72 LINE {stroke = {w = 1;};}",
"524 68 LINE {stroke = {w = 1;};}",
"499 65 LINE {stroke = {w = 1;};}",
"474 65 LINE {stroke = {w = 1;};}",
"449 65 LINE {stroke = {w = 1;};}",
"424 68 LINE {stroke = {w = 1;};}",
"400 72 LINE {stroke = {w = 1;};}",
"375 77 LINE {stroke = {w = 1;};}",
"351 84 LINE {stroke = {w = 1;};}",
"327 93 LINE {stroke = {w = 1;};}",
"304 103 LINE {stroke = {w = 1;};}",
"282 114 LINE {stroke = {w = 1;};}",
"260 127 LINE {stroke = {w = 1;};}",
"240 141 LINE {stroke = {w = 1;};}",
"220 156 LINE {stroke = {w = 1;};}",
"201 173 LINE {stroke = {w = 1;};}",
"183 191 LINE {stroke = {w = 1;};}",
"167 209 LINE {stroke = {w = 1;};}",
"151 229 LINE {stroke = {w = 1;};}",
"137 250 LINE {stroke = {w = 1;};}",
"125 272 LINE {stroke = {w = 1;};}",
"113 294 LINE {stroke = {w = 1;};}",
"103 317 LINE {stroke = {w = 1;};}",
"95 340 LINE {stroke = {w = 1;};}",
"88 365 LINE {stroke = {w = 1;};}",
"82 389 LINE {stroke = {w = 1;};}",
"78 414 LINE {stroke = {w = 1;};}",
"76 439 LINE {stroke = {w = 1;};}",
"75 464 LINE {stroke = {w = 1;};}",
"76 489 LINE {stroke = {w = 1;};}",
"78 514 LINE {stroke = {w = 1;};}",
"82 539 LINE {stroke = {w = 1;};}",
"88 563 LINE {stroke = {w = 1;};}",
"95 587 LINE {stroke = {w = 1;};}",
"103 611 LINE {stroke = {w = 1;};}",
"113 634 LINE {stroke = {w = 1;};}",
"125 656 LINE {stroke = {w = 1;};}",
"137 678 LINE {stroke = {w = 1;};}",
"151 698 LINE {stroke = {w = 1;};}",
"167 718 LINE {stroke = {w = 1;};}",
"183 737 LINE {stroke = {w = 1;};}",
"201 755 LINE {stroke = {w = 1;};}",
"220 771 LINE {stroke = {w = 1;};}",
"240 787 LINE {stroke = {w = 1;};}",
"260 801 LINE {stroke = {w = 1;};}",
"282 813 LINE {stroke = {w = 1;};}",
"304 825 LINE {stroke = {w = 1;};}",
"327 835 LINE {stroke = {w = 1;};}",
"351 843 LINE {stroke = {w = 1;};}",
"375 850 LINE {stroke = {w = 1;};}",
"400 856 LINE {stroke = {w = 1;};}",
"424 860 LINE {stroke = {w = 1;};}",
"449 862 LINE {stroke = {w = 1;};}",
"474 863 LINE {stroke = {w = 1;};}",
"474 464 LINE {stroke = {w = 1;};}",
"765 737 LINE {stroke = {w = 1;};}",
"782 718 LINE {stroke = {w = 1;};}",
"797 698 LINE {stroke = {w = 1;};}",
"811 678 LINE {stroke = {w = 1;};}",
"824 656 LINE {stroke = {w = 1;};}",
"835 634 LINE {stroke = {w = 1;};}",
"845 611 LINE {stroke = {w = 1;};}",
"854 587 LINE {stroke = {w = 1;};}",
"861 563 LINE {stroke = {w = 1;};}",
"866 539 LINE {stroke = {w = 1;};}",
"870 514 LINE {stroke = {w = 1;};}",
"873 489 LINE {stroke = {w = 1;};}",
"873 464 LINE {stroke = {w = 1;};}",
"873 439 LINE {stroke = {w = 1;};}",
"870 414 LINE {stroke = {w = 1;};}"
);
}
);
width = 950;
}
);
},
{
glyphname = one_four_percent.liga;
lastChange = "2021-11-14 20:31:41 +0000";
layers = (
{
layerId = "3603F491-BDB4-4F7B-A4F4-044CFF075AAF";
paths = (
{
closed = 1;
nodes = (
"218 931 OFFCURVE {stroke = {w = 1;};}",
"10 723 OFFCURVE {stroke = {w = 1;};}",
"10 466 CURVE {stroke = {w = 1;};}",
"10 209 OFFCURVE {stroke = {w = 1;};}",
"218 1 OFFCURVE {stroke = {w = 1;};}",
"475 1 CURVE {stroke = {w = 1;};}",
"731 1 OFFCURVE {stroke = {w = 1;};}",
"939 209 OFFCURVE {stroke = {w = 1;};}",
"939 466 CURVE {stroke = {w = 1;};}",
"939 723 OFFCURVE {stroke = {w = 1;};}",
"731 931 OFFCURVE {stroke = {w = 1;};}",
"475 931 CURVE {stroke = {w = 1;};}"
);
},
{
closed = 1;
nodes = (
"867 389 LINE {stroke = {w = 1;};}",
"861 365 LINE {stroke = {w = 1;};}",
"854 341 LINE {stroke = {w = 1;};}",
"846 317 LINE {stroke = {w = 1;};}",
"836 294 LINE {stroke = {w = 1;};}",
"824 272 LINE {stroke = {w = 1;};}",
"812 250 LINE {stroke = {w = 1;};}",
"797 230 LINE {stroke = {w = 1;};}",
"782 210 LINE {stroke = {w = 1;};}",
"765 191 LINE {stroke = {w = 1;};}",
"748 173 LINE {stroke = {w = 1;};}",
"729 157 LINE {stroke = {w = 1;};}",
"709 141 LINE {stroke = {w = 1;};}",
"688 127 LINE {stroke = {w = 1;};}",
"667 114 LINE {stroke = {w = 1;};}",
"644 103 LINE {stroke = {w = 1;};}",
"621 93 LINE {stroke = {w = 1;};}",
"598 85 LINE {stroke = {w = 1;};}",
"574 78 LINE {stroke = {w = 1;};}",
"549 72 LINE {stroke = {w = 1;};}",
"525 68 LINE {stroke = {w = 1;};}",
"500 66 LINE {stroke = {w = 1;};}",
"475 65 LINE {stroke = {w = 1;};}",
"450 66 LINE {stroke = {w = 1;};}",
"425 68 LINE {stroke = {w = 1;};}",
"400 72 LINE {stroke = {w = 1;};}",
"375 78 LINE {stroke = {w = 1;};}",
"351 85 LINE {stroke = {w = 1;};}",
"328 93 LINE {stroke = {w = 1;};}",
"305 103 LINE {stroke = {w = 1;};}",
"282 114 LINE {stroke = {w = 1;};}",
"261 127 LINE {stroke = {w = 1;};}",
"240 141 LINE {stroke = {w = 1;};}",
"220 157 LINE {stroke = {w = 1;};}",
"201 173 LINE {stroke = {w = 1;};}",
"184 191 LINE {stroke = {w = 1;};}",
"167 210 LINE {stroke = {w = 1;};}",
"152 230 LINE {stroke = {w = 1;};}",
"138 250 LINE {stroke = {w = 1;};}",
"125 272 LINE {stroke = {w = 1;};}",
"113 294 LINE {stroke = {w = 1;};}",
"104 317 LINE {stroke = {w = 1;};}",
"95 341 LINE {stroke = {w = 1;};}",
"88 365 LINE {stroke = {w = 1;};}",
"83 389 LINE {stroke = {w = 1;};}",
"79 414 LINE {stroke = {w = 1;};}",
"76 439 LINE {stroke = {w = 1;};}",
"75 464 LINE {stroke = {w = 1;};}",
"76 489 LINE {stroke = {w = 1;};}",
"79 514 LINE {stroke = {w = 1;};}",
"83 539 LINE {stroke = {w = 1;};}",
"88 563 LINE {stroke = {w = 1;};}",
"95 587 LINE {stroke = {w = 1;};}",
"104 611 LINE {stroke = {w = 1;};}",
"113 634 LINE {stroke = {w = 1;};}",
"125 656 LINE {stroke = {w = 1;};}",
"138 678 LINE {stroke = {w = 1;};}",
"152 699 LINE {stroke = {w = 1;};}",
"167 718 LINE {stroke = {w = 1;};}",
"184 737 LINE {stroke = {w = 1;};}",
"201 755 LINE {stroke = {w = 1;};}",
"220 772 LINE {stroke = {w = 1;};}",
"240 787 LINE {stroke = {w = 1;};}",
"261 801 LINE {stroke = {w = 1;};}",
"282 814 LINE {stroke = {w = 1;};}",
"305 825 LINE {stroke = {w = 1;};}",
"328 835 LINE {stroke = {w = 1;};}",
"351 844 LINE {stroke = {w = 1;};}",
"375 851 LINE {stroke = {w = 1;};}",
"400 856 LINE {stroke = {w = 1;};}",
"425 860 LINE {stroke = {w = 1;};}",
"450 862 LINE {stroke = {w = 1;};}",
"475 863 LINE {stroke = {w = 1;};}",
"475 464 LINE {stroke = {w = 1;};}",
"782 718 LINE {stroke = {w = 1;};}",
"797 699 LINE {stroke = {w = 1;};}",
"812 678 LINE {stroke = {w = 1;};}",
"824 656 LINE {stroke = {w = 1;};}",
"836 634 LINE {stroke = {w = 1;};}",
"846 611 LINE {stroke = {w = 1;};}",
"854 587 LINE {stroke = {w = 1;};}",
"861 563 LINE {stroke = {w = 1;};}",
"867 539 LINE {stroke = {w = 1;};}",
"870 514 LINE {stroke = {w = 1;};}",
"873 489 LINE {stroke = {w = 1;};}",
"874 464 LINE {stroke = {w = 1;};}",
"873 439 LINE {stroke = {w = 1;};}",
"870 414 LINE {stroke = {w = 1;};}"
);
}
);
width = 950;
}
);
},
{
glyphname = one_five_percent.liga;
lastChange = "2021-11-14 20:32:40 +0000";
layers = (
{
layerId = "3603F491-BDB4-4F7B-A4F4-044CFF075AAF";
paths = (
{
closed = 1;
nodes = (
"218 931 OFFCURVE {stroke = {w = 1;};}",
"9 722 OFFCURVE {stroke = {w = 1;};}",
"10 466 CURVE {stroke = {w = 1;};}",
"10 209 OFFCURVE {stroke = {w = 1;};}",
"218 1 OFFCURVE {stroke = {w = 1;};}",
"474 1 CURVE {stroke = {w = 1;};}",
"731 1 OFFCURVE {stroke = {w = 1;};}",
"939 209 OFFCURVE {stroke = {w = 1;};}",
"939 466 CURVE {stroke = {w = 1;};}",
"939 722 OFFCURVE {stroke = {w = 1;};}",
"731 931 OFFCURVE {stroke = {w = 1;};}",
"474 931 CURVE {stroke = {w = 1;};}"
);
},
{
closed = 1;
nodes = (
"866 389 LINE {stroke = {w = 1;};}",
"861 365 LINE {stroke = {w = 1;};}",
"854 340 LINE {stroke = {w = 1;};}",
"845 317 LINE {stroke = {w = 1;};}",
"835 294 LINE {stroke = {w = 1;};}",
"824 272 LINE {stroke = {w = 1;};}",
"811 250 LINE {stroke = {w = 1;};}",
"797 229 LINE {stroke = {w = 1;};}",
"782 209 LINE {stroke = {w = 1;};}",
"765 191 LINE {stroke = {w = 1;};}",
"747 173 LINE {stroke = {w = 1;};}",
"729 156 LINE {stroke = {w = 1;};}",
"709 141 LINE {stroke = {w = 1;};}",
"688 127 LINE {stroke = {w = 1;};}",
"667 114 LINE {stroke = {w = 1;};}",
"644 103 LINE {stroke = {w = 1;};}",
"621 93 LINE {stroke = {w = 1;};}",
"598 84 LINE {stroke = {w = 1;};}",
"574 77 LINE {stroke = {w = 1;};}",
"549 72 LINE {stroke = {w = 1;};}",
"524 68 LINE {stroke = {w = 1;};}",
"499 65 LINE {stroke = {w = 1;};}",
"474 65 LINE {stroke = {w = 1;};}",
"449 65 LINE {stroke = {w = 1;};}",
"424 68 LINE {stroke = {w = 1;};}",
"400 72 LINE {stroke = {w = 1;};}",
"375 77 LINE {stroke = {w = 1;};}",
"351 84 LINE {stroke = {w = 1;};}",
"327 93 LINE {stroke = {w = 1;};}",
"304 103 LINE {stroke = {w = 1;};}",
"282 114 LINE {stroke = {w = 1;};}",
"260 127 LINE {stroke = {w = 1;};}",
"240 141 LINE {stroke = {w = 1;};}",
"220 156 LINE {stroke = {w = 1;};}",
"201 173 LINE {stroke = {w = 1;};}",
"183 191 LINE {stroke = {w = 1;};}",
"167 209 LINE {stroke = {w = 1;};}",
"151 229 LINE {stroke = {w = 1;};}",
"137 250 LINE {stroke = {w = 1;};}",
"125 272 LINE {stroke = {w = 1;};}",
"113 294 LINE {stroke = {w = 1;};}",
"103 317 LINE {stroke = {w = 1;};}",
"95 340 LINE {stroke = {w = 1;};}",
"88 365 LINE {stroke = {w = 1;};}",
"82 389 LINE {stroke = {w = 1;};}",
"78 414 LINE {stroke = {w = 1;};}",
"76 439 LINE {stroke = {w = 1;};}",
"75 464 LINE {stroke = {w = 1;};}",
"76 489 LINE {stroke = {w = 1;};}",
"78 514 LINE {stroke = {w = 1;};}",
"82 539 LINE {stroke = {w = 1;};}",
"88 563 LINE {stroke = {w = 1;};}",
"95 587 LINE {stroke = {w = 1;};}",
"103 611 LINE {stroke = {w = 1;};}",
"113 634 LINE {stroke = {w = 1;};}",
"125 656 LINE {stroke = {w = 1;};}",
"137 678 LINE {stroke = {w = 1;};}",
"151 698 LINE {stroke = {w = 1;};}",
"167 718 LINE {stroke = {w = 1;};}",
"183 737 LINE {stroke = {w = 1;};}",
"201 755 LINE {stroke = {w = 1;};}",
"220 771 LINE {stroke = {w = 1;};}",
"240 787 LINE {stroke = {w = 1;};}",
"260 801 LINE {stroke = {w = 1;};}",
"282 813 LINE {stroke = {w = 1;};}",
"304 825 LINE {stroke = {w = 1;};}",
"327 835 LINE {stroke = {w = 1;};}",
"351 843 LINE {stroke = {w = 1;};}",
"375 850 LINE {stroke = {w = 1;};}",
"400 856 LINE {stroke = {w = 1;};}",
"424 860 LINE {stroke = {w = 1;};}",
"449 862 LINE {stroke = {w = 1;};}",
"474 863 LINE {stroke = {w = 1;};}",
"474 464 LINE {stroke = {w = 1;};}",
"797 698 LINE {stroke = {w = 1;};}",
"811 678 LINE {stroke = {w = 1;};}",
"824 656 LINE {stroke = {w = 1;};}",
"835 634 LINE {stroke = {w = 1;};}",
"845 611 LINE {stroke = {w = 1;};}",
"854 587 LINE {stroke = {w = 1;};}",
"861 563 LINE {stroke = {w = 1;};}",
"866 539 LINE {stroke = {w = 1;};}",
"870 514 LINE {stroke = {w = 1;};}",
"873 489 LINE {stroke = {w = 1;};}",
"873 464 LINE {stroke = {w = 1;};}",
"873 439 LINE {stroke = {w = 1;};}",
"870 414 LINE {stroke = {w = 1;};}"
);
}
);
width = 950;
}
);
},
{
glyphname = one_six_percent.liga;
lastChange = "2021-11-14 20:33:48 +0000";
layers = (
{
layerId = "3603F491-BDB4-4F7B-A4F4-044CFF075AAF";
paths = (
{
closed = 1;
nodes = (
"218 931 OFFCURVE {stroke = {w = 1;};}",
"9 722 OFFCURVE {stroke = {w = 1;};}",
"10 466 CURVE {stroke = {w = 1;};}",
"10 209 OFFCURVE {stroke = {w = 1;};}",
"218 1 OFFCURVE {stroke = {w = 1;};}",
"474 1 CURVE {stroke = {w = 1;};}",
"731 1 OFFCURVE {stroke = {w = 1;};}",
"939 209 OFFCURVE {stroke = {w = 1;};}",
"939 466 CURVE {stroke = {w = 1;};}",
"939 722 OFFCURVE {stroke = {w = 1;};}",
"731 931 OFFCURVE {stroke = {w = 1;};}",
"474 931 CURVE {stroke = {w = 1;};}"
);
},
{
closed = 1;
nodes = (
"866 389 LINE {stroke = {w = 1;};}",
"861 365 LINE {stroke = {w = 1;};}",
"854 340 LINE {stroke = {w = 1;};}",
"845 317 LINE {stroke = {w = 1;};}",
"835 294 LINE {stroke = {w = 1;};}",
"824 272 LINE {stroke = {w = 1;};}",
"811 250 LINE {stroke = {w = 1;};}",
"797 229 LINE {stroke = {w = 1;};}",
"782 209 LINE {stroke = {w = 1;};}",
"765 191 LINE {stroke = {w = 1;};}",
"747 173 LINE {stroke = {w = 1;};}",
"729 156 LINE {stroke = {w = 1;};}",
"709 141 LINE {stroke = {w = 1;};}",
"688 127 LINE {stroke = {w = 1;};}",
"667 114 LINE {stroke = {w = 1;};}",
"644 103 LINE {stroke = {w = 1;};}",
"621 93 LINE {stroke = {w = 1;};}",
"598 84 LINE {stroke = {w = 1;};}",
"574 77 LINE {stroke = {w = 1;};}",
"549 72 LINE {stroke = {w = 1;};}",
"524 68 LINE {stroke = {w = 1;};}",
"499 65 LINE {stroke = {w = 1;};}",
"474 65 LINE {stroke = {w = 1;};}",
"449 65 LINE {stroke = {w = 1;};}",
"424 68 LINE {stroke = {w = 1;};}",
"400 72 LINE {stroke = {w = 1;};}",
"375 77 LINE {stroke = {w = 1;};}",
"351 84 LINE {stroke = {w = 1;};}",
"327 93 LINE {stroke = {w = 1;};}",
"304 103 LINE {stroke = {w = 1;};}",
"282 114 LINE {stroke = {w = 1;};}",
"260 127 LINE {stroke = {w = 1;};}",
"240 141 LINE {stroke = {w = 1;};}",
"220 156 LINE {stroke = {w = 1;};}",
"201 173 LINE {stroke = {w = 1;};}",
"183 191 LINE {stroke = {w = 1;};}",
"167 209 LINE {stroke = {w = 1;};}",
"151 229 LINE {stroke = {w = 1;};}",
"137 250 LINE {stroke = {w = 1;};}",
"125 272 LINE {stroke = {w = 1;};}",
"113 294 LINE {stroke = {w = 1;};}",
"103 317 LINE {stroke = {w = 1;};}",
"95 340 LINE {stroke = {w = 1;};}",
"88 365 LINE {stroke = {w = 1;};}",
"82 389 LINE {stroke = {w = 1;};}",
"78 414 LINE {stroke = {w = 1;};}",
"76 439 LINE {stroke = {w = 1;};}",
"75 464 LINE {stroke = {w = 1;};}",
"76 489 LINE {stroke = {w = 1;};}",
"78 514 LINE {stroke = {w = 1;};}",
"82 539 LINE {stroke = {w = 1;};}",
"88 563 LINE {stroke = {w = 1;};}",
"95 587 LINE {stroke = {w = 1;};}",
"103 611 LINE {stroke = {w = 1;};}",
"113 634 LINE {stroke = {w = 1;};}",
"125 656 LINE {stroke = {w = 1;};}",
"137 678 LINE {stroke = {w = 1;};}",
"151 698 LINE {stroke = {w = 1;};}",
"167 718 LINE {stroke = {w = 1;};}",
"183 737 LINE {stroke = {w = 1;};}",
"201 755 LINE {stroke = {w = 1;};}",
"220 771 LINE {stroke = {w = 1;};}",
"240 787 LINE {stroke = {w = 1;};}",
"260 801 LINE {stroke = {w = 1;};}",
"282 813 LINE {stroke = {w = 1;};}",
"304 825 LINE {stroke = {w = 1;};}",
"327 835 LINE {stroke = {w = 1;};}",
"351 843 LINE {stroke = {w = 1;};}",
"375 850 LINE {stroke = {w = 1;};}",
"400 856 LINE {stroke = {w = 1;};}",
"424 860 LINE {stroke = {w = 1;};}",
"449 862 LINE {stroke = {w = 1;};}",
"474 863 LINE {stroke = {w = 1;};}",
"474 464 LINE {stroke = {w = 1;};}",
"811 678 LINE {stroke = {w = 1;};}",
"824 656 LINE {stroke = {w = 1;};}",
"835 634 LINE {stroke = {w = 1;};}",
"845 611 LINE {stroke = {w = 1;};}",
"854 587 LINE {stroke = {w = 1;};}",
"861 563 LINE {stroke = {w = 1;};}",
"866 539 LINE {stroke = {w = 1;};}",
"870 514 LINE {stroke = {w = 1;};}",
"873 489 LINE {stroke = {w = 1;};}",
"873 464 LINE {stroke = {w = 1;};}",
"873 439 LINE {stroke = {w = 1;};}",
"870 414 LINE {stroke = {w = 1;};}"
);
}
);
width = 950;
}
);
},
{
glyphname = one_seven_percent.liga;
lastChange = "2021-11-14 20:34:50 +0000";
layers = (
{
layerId = "3603F491-BDB4-4F7B-A4F4-044CFF075AAF";
paths = (
{
closed = 1;
nodes = (
"218 931 OFFCURVE {stroke = {w = 1;};}",
"9 722 OFFCURVE {stroke = {w = 1;};}",
"10 466 CURVE {stroke = {w = 1;};}",
"10 209 OFFCURVE {stroke = {w = 1;};}",
"218 1 OFFCURVE {stroke = {w = 1;};}",
"474 1 CURVE {stroke = {w = 1;};}",
"731 1 OFFCURVE {stroke = {w = 1;};}",
"939 209 OFFCURVE {stroke = {w = 1;};}",
"939 466 CURVE {stroke = {w = 1;};}",
"939 722 OFFCURVE {stroke = {w = 1;};}",
"731 931 OFFCURVE {stroke = {w = 1;};}",
"474 931 CURVE {stroke = {w = 1;};}"
);
},
{
closed = 1;
nodes = (
"866 389 LINE {stroke = {w = 1;};}",
"861 365 LINE {stroke = {w = 1;};}",
"854 340 LINE {stroke = {w = 1;};}",
"845 317 LINE {stroke = {w = 1;};}",
"835 294 LINE {stroke = {w = 1;};}",
"824 272 LINE {stroke = {w = 1;};}",
"811 250 LINE {stroke = {w = 1;};}",
"797 229 LINE {stroke = {w = 1;};}",
"782 209 LINE {stroke = {w = 1;};}",
"765 191 LINE {stroke = {w = 1;};}",
"747 173 LINE {stroke = {w = 1;};}",
"729 156 LINE {stroke = {w = 1;};}",
"709 141 LINE {stroke = {w = 1;};}",
"688 127 LINE {stroke = {w = 1;};}",
"667 114 LINE {stroke = {w = 1;};}",
"644 103 LINE {stroke = {w = 1;};}",
"621 93 LINE {stroke = {w = 1;};}",
"598 84 LINE {stroke = {w = 1;};}",
"574 77 LINE {stroke = {w = 1;};}",
"549 72 LINE {stroke = {w = 1;};}",
"524 68 LINE {stroke = {w = 1;};}",
"499 65 LINE {stroke = {w = 1;};}",
"474 65 LINE {stroke = {w = 1;};}",
"449 65 LINE {stroke = {w = 1;};}",
"424 68 LINE {stroke = {w = 1;};}",
"400 72 LINE {stroke = {w = 1;};}",
"375 77 LINE {stroke = {w = 1;};}",
"351 84 LINE {stroke = {w = 1;};}",
"327 93 LINE {stroke = {w = 1;};}",
"304 103 LINE {stroke = {w = 1;};}",
"282 114 LINE {stroke = {w = 1;};}",
"260 127 LINE {stroke = {w = 1;};}",
"240 141 LINE {stroke = {w = 1;};}",
"220 156 LINE {stroke = {w = 1;};}",
"201 173 LINE {stroke = {w = 1;};}",
"183 191 LINE {stroke = {w = 1;};}",
"167 209 LINE {stroke = {w = 1;};}",
"151 229 LINE {stroke = {w = 1;};}",
"137 250 LINE {stroke = {w = 1;};}",
"125 272 LINE {stroke = {w = 1;};}",
"113 294 LINE {stroke = {w = 1;};}",
"103 317 LINE {stroke = {w = 1;};}",
"95 340 LINE {stroke = {w = 1;};}",
"88 365 LINE {stroke = {w = 1;};}",
"82 389 LINE {stroke = {w = 1;};}",
"78 414 LINE {stroke = {w = 1;};}",
"76 439 LINE {stroke = {w = 1;};}",
"75 464 LINE {stroke = {w = 1;};}",
"76 489 LINE {stroke = {w = 1;};}",
"78 514 LINE {stroke = {w = 1;};}",
"82 539 LINE {stroke = {w = 1;};}",
"88 563 LINE {stroke = {w = 1;};}",
"95 587 LINE {stroke = {w = 1;};}",
"103 611 LINE {stroke = {w = 1;};}",
"113 634 LINE {stroke = {w = 1;};}",
"125 656 LINE {stroke = {w = 1;};}",
"137 678 LINE {stroke = {w = 1;};}",
"151 698 LINE {stroke = {w = 1;};}",
"167 718 LINE {stroke = {w = 1;};}",
"183 737 LINE {stroke = {w = 1;};}",
"201 755 LINE {stroke = {w = 1;};}",
"220 771 LINE {stroke = {w = 1;};}",
"240 787 LINE {stroke = {w = 1;};}",
"260 801 LINE {stroke = {w = 1;};}",
"282 813 LINE {stroke = {w = 1;};}",
"304 825 LINE {stroke = {w = 1;};}",
"327 835 LINE {stroke = {w = 1;};}",
"351 843 LINE {stroke = {w = 1;};}",
"375 850 LINE {stroke = {w = 1;};}",
"400 856 LINE {stroke = {w = 1;};}",
"424 860 LINE {stroke = {w = 1;};}",
"449 862 LINE {stroke = {w = 1;};}",
"474 863 LINE {stroke = {w = 1;};}",
"474 464 LINE {stroke = {w = 1;};}",
"824 656 LINE {stroke = {w = 1;};}",
"835 634 LINE {stroke = {w = 1;};}",
"845 611 LINE {stroke = {w = 1;};}",
"854 587 LINE {stroke = {w = 1;};}",
"861 563 LINE {stroke = {w = 1;};}",
"866 539 LINE {stroke = {w = 1;};}",
"870 514 LINE {stroke = {w = 1;};}",
"873 489 LINE {stroke = {w = 1;};}",
"873 464 LINE {stroke = {w = 1;};}",
"873 439 LINE {stroke = {w = 1;};}",
"870 414 LINE {stroke = {w = 1;};}"
);
}
);
width = 950;
}
);
},
{
glyphname = one_eight_percent.liga;
lastChange = "2021-11-14 20:35:40 +0000";
layers = (
{
layerId = "3603F491-BDB4-4F7B-A4F4-044CFF075AAF";
paths = (
{
closed = 1;
nodes = (
"218 931 OFFCURVE {stroke = {w = 1;};}",
"9 722 OFFCURVE {stroke = {w = 1;};}",
"10 466 CURVE {stroke = {w = 1;};}",
"10 209 OFFCURVE {stroke = {w = 1;};}",
"218 1 OFFCURVE {stroke = {w = 1;};}",
"474 1 CURVE {stroke = {w = 1;};}",
"731 1 OFFCURVE {stroke = {w = 1;};}",
"939 209 OFFCURVE {stroke = {w = 1;};}",
"939 466 CURVE {stroke = {w = 1;};}",
"939 722 OFFCURVE {stroke = {w = 1;};}",
"731 931 OFFCURVE {stroke = {w = 1;};}",
"474 931 CURVE {stroke = {w = 1;};}"
);
},
{
closed = 1;
nodes = (
"866 389 LINE {stroke = {w = 1;};}",
"861 365 LINE {stroke = {w = 1;};}",
"854 340 LINE {stroke = {w = 1;};}",
"845 317 LINE {stroke = {w = 1;};}",
"835 294 LINE {stroke = {w = 1;};}",
"824 272 LINE {stroke = {w = 1;};}",
"811 250 LINE {stroke = {w = 1;};}",
"797 229 LINE {stroke = {w = 1;};}",
"782 209 LINE {stroke = {w = 1;};}",
"765 191 LINE {stroke = {w = 1;};}",
"747 173 LINE {stroke = {w = 1;};}",
"729 156 LINE {stroke = {w = 1;};}",
"709 141 LINE {stroke = {w = 1;};}",
"688 127 LINE {stroke = {w = 1;};}",
"667 114 LINE {stroke = {w = 1;};}",
"644 103 LINE {stroke = {w = 1;};}",
"621 93 LINE {stroke = {w = 1;};}",
"598 84 LINE {stroke = {w = 1;};}",
"574 77 LINE {stroke = {w = 1;};}",
"549 72 LINE {stroke = {w = 1;};}",
"524 68 LINE {stroke = {w = 1;};}",
"499 65 LINE {stroke = {w = 1;};}",
"474 65 LINE {stroke = {w = 1;};}",
"449 65 LINE {stroke = {w = 1;};}",
"424 68 LINE {stroke = {w = 1;};}",
"400 72 LINE {stroke = {w = 1;};}",
"375 77 LINE {stroke = {w = 1;};}",
"351 84 LINE {stroke = {w = 1;};}",
"327 93 LINE {stroke = {w = 1;};}",
"304 103 LINE {stroke = {w = 1;};}",
"282 114 LINE {stroke = {w = 1;};}",
"260 127 LINE {stroke = {w = 1;};}",
"240 141 LINE {stroke = {w = 1;};}",
"220 156 LINE {stroke = {w = 1;};}",
"201 173 LINE {stroke = {w = 1;};}",
"183 191 LINE {stroke = {w = 1;};}",
"167 209 LINE {stroke = {w = 1;};}",
"151 229 LINE {stroke = {w = 1;};}",
"137 250 LINE {stroke = {w = 1;};}",
"125 272 LINE {stroke = {w = 1;};}",
"113 294 LINE {stroke = {w = 1;};}",
"103 317 LINE {stroke = {w = 1;};}",
"95 340 LINE {stroke = {w = 1;};}",
"88 365 LINE {stroke = {w = 1;};}",
"82 389 LINE {stroke = {w = 1;};}",
"78 414 LINE {stroke = {w = 1;};}",
"76 439 LINE {stroke = {w = 1;};}",
"75 464 LINE {stroke = {w = 1;};}",
"76 489 LINE {stroke = {w = 1;};}",
"78 514 LINE {stroke = {w = 1;};}",
"82 539 LINE {stroke = {w = 1;};}",
"88 563 LINE {stroke = {w = 1;};}",
"95 587 LINE {stroke = {w = 1;};}",
"103 611 LINE {stroke = {w = 1;};}",
"113 634 LINE {stroke = {w = 1;};}",
"125 656 LINE {stroke = {w = 1;};}",
"137 678 LINE {stroke = {w = 1;};}",
"151 698 LINE {stroke = {w = 1;};}",
"167 718 LINE {stroke = {w = 1;};}",
"183 737 LINE {stroke = {w = 1;};}",
"201 755 LINE {stroke = {w = 1;};}",
"220 771 LINE {stroke = {w = 1;};}",
"240 787 LINE {stroke = {w = 1;};}",
"260 801 LINE {stroke = {w = 1;};}",
"282 813 LINE {stroke = {w = 1;};}",
"304 825 LINE {stroke = {w = 1;};}",
"327 835 LINE {stroke = {w = 1;};}",
"351 843 LINE {stroke = {w = 1;};}",
"375 850 LINE {stroke = {w = 1;};}",
"400 856 LINE {stroke = {w = 1;};}",
"424 860 LINE {stroke = {w = 1;};}",
"449 862 LINE {stroke = {w = 1;};}",
"474 863 LINE {stroke = {w = 1;};}",
"474 464 LINE {stroke = {w = 1;};}",
"835 634 LINE {stroke = {w = 1;};}",
"845 611 LINE {stroke = {w = 1;};}",
"854 587 LINE {stroke = {w = 1;};}",
"861 563 LINE {stroke = {w = 1;};}",
"866 539 LINE {stroke = {w = 1;};}",
"870 514 LINE {stroke = {w = 1;};}",
"873 489 LINE {stroke = {w = 1;};}",
"873 464 LINE {stroke = {w = 1;};}",
"873 439 LINE {stroke = {w = 1;};}",
"870 414 LINE {stroke = {w = 1;};}"
);
}
);
width = 950;
}
);
},
{
glyphname = one_nine_percent.liga;
lastChange = "2021-11-14 20:36:37 +0000";
layers = (
{
layerId = "3603F491-BDB4-4F7B-A4F4-044CFF075AAF";
paths = (
{
closed = 1;
nodes = (
"218 931 OFFCURVE {stroke = {w = 1;};}",
"9 722 OFFCURVE {stroke = {w = 1;};}",
"10 466 CURVE {stroke = {w = 1;};}",
"10 209 OFFCURVE {stroke = {w = 1;};}",
"218 1 OFFCURVE {stroke = {w = 1;};}",
"474 1 CURVE {stroke = {w = 1;};}",
"731 1 OFFCURVE {stroke = {w = 1;};}",
"939 209 OFFCURVE {stroke = {w = 1;};}",
"939 466 CURVE {stroke = {w = 1;};}",
"939 722 OFFCURVE {stroke = {w = 1;};}",
"731 931 OFFCURVE {stroke = {w = 1;};}",
"474 931 CURVE {stroke = {w = 1;};}"
);
},
{
closed = 1;
nodes = (
"866 389 LINE {stroke = {w = 1;};}",
"861 365 LINE {stroke = {w = 1;};}",
"854 340 LINE {stroke = {w = 1;};}",
"845 317 LINE {stroke = {w = 1;};}",
"835 294 LINE {stroke = {w = 1;};}",
"824 272 LINE {stroke = {w = 1;};}",
"811 250 LINE {stroke = {w = 1;};}",
"797 229 LINE {stroke = {w = 1;};}",
"782 209 LINE {stroke = {w = 1;};}",
"765 191 LINE {stroke = {w = 1;};}",
"747 173 LINE {stroke = {w = 1;};}",
"729 156 LINE {stroke = {w = 1;};}",
"709 141 LINE {stroke = {w = 1;};}",
"688 127 LINE {stroke = {w = 1;};}",
"667 114 LINE {stroke = {w = 1;};}",
"644 103 LINE {stroke = {w = 1;};}",
"621 93 LINE {stroke = {w = 1;};}",
"598 84 LINE {stroke = {w = 1;};}",
"574 77 LINE {stroke = {w = 1;};}",
"549 72 LINE {stroke = {w = 1;};}",
"524 68 LINE {stroke = {w = 1;};}",
"499 65 LINE {stroke = {w = 1;};}",
"474 65 LINE {stroke = {w = 1;};}",
"449 65 LINE {stroke = {w = 1;};}",
"424 68 LINE {stroke = {w = 1;};}",
"400 72 LINE {stroke = {w = 1;};}",
"375 77 LINE {stroke = {w = 1;};}",
"351 84 LINE {stroke = {w = 1;};}",
"327 93 LINE {stroke = {w = 1;};}",
"304 103 LINE {stroke = {w = 1;};}",
"282 114 LINE {stroke = {w = 1;};}",
"260 127 LINE {stroke = {w = 1;};}",
"240 141 LINE {stroke = {w = 1;};}",
"220 156 LINE {stroke = {w = 1;};}",
"201 173 LINE {stroke = {w = 1;};}",
"183 191 LINE {stroke = {w = 1;};}",
"167 209 LINE {stroke = {w = 1;};}",
"151 229 LINE {stroke = {w = 1;};}",
"137 250 LINE {stroke = {w = 1;};}",
"125 272 LINE {stroke = {w = 1;};}",
"113 294 LINE {stroke = {w = 1;};}",
"103 317 LINE {stroke = {w = 1;};}",
"95 340 LINE {stroke = {w = 1;};}",
"88 365 LINE {stroke = {w = 1;};}",
"82 389 LINE {stroke = {w = 1;};}",
"78 414 LINE {stroke = {w = 1;};}",
"76 439 LINE {stroke = {w = 1;};}",
"75 464 LINE {stroke = {w = 1;};}",
"76 489 LINE {stroke = {w = 1;};}",
"78 514 LINE {stroke = {w = 1;};}",
"82 539 LINE {stroke = {w = 1;};}",
"88 563 LINE {stroke = {w = 1;};}",
"95 587 LINE {stroke = {w = 1;};}",
"103 611 LINE {stroke = {w = 1;};}",
"113 634 LINE {stroke = {w = 1;};}",
"125 656 LINE {stroke = {w = 1;};}",
"137 678 LINE {stroke = {w = 1;};}",
"151 698 LINE {stroke = {w = 1;};}",
"167 718 LINE {stroke = {w = 1;};}",
"183 737 LINE {stroke = {w = 1;};}",
"201 755 LINE {stroke = {w = 1;};}",
"220 771 LINE {stroke = {w = 1;};}",
"240 787 LINE {stroke = {w = 1;};}",
"260 801 LINE {stroke = {w = 1;};}",
"282 813 LINE {stroke = {w = 1;};}",
"304 825 LINE {stroke = {w = 1;};}",
"327 835 LINE {stroke = {w = 1;};}",
"351 843 LINE {stroke = {w = 1;};}",
"375 850 LINE {stroke = {w = 1;};}",
"400 856 LINE {stroke = {w = 1;};}",
"424 860 LINE {stroke = {w = 1;};}",
"449 862 LINE {stroke = {w = 1;};}",
"474 863 LINE {stroke = {w = 1;};}",
"474 464 LINE {stroke = {w = 1;};}",
"845 611 LINE {stroke = {w = 1;};}",
"854 587 LINE {stroke = {w = 1;};}",
"861 563 LINE {stroke = {w = 1;};}",
"866 539 LINE {stroke = {w = 1;};}",
"870 514 LINE {stroke = {w = 1;};}",
"873 489 LINE {stroke = {w = 1;};}",
"873 464 LINE {stroke = {w = 1;};}",
"873 439 LINE {stroke = {w = 1;};}",
"870 414 LINE {stroke = {w = 1;};}"
);
}
);
width = 950;
}
);
},
{
glyphname = one_percent.liga;
lastChange = "2021-11-14 20:13:54 +0000";
layers = (
{
layerId = "3603F491-BDB4-4F7B-A4F4-044CFF075AAF";
paths = (
{
closed = 1;
nodes = (
"223 931 OFFCURVE {stroke = {w = 1;};}",
"14 722 OFFCURVE {stroke = {w = 1;};}",
"15 466 CURVE {stroke = {w = 1;};}",
"15 209 OFFCURVE {stroke = {w = 1;};}",
"223 1 OFFCURVE {stroke = {w = 1;};}",
"479 1 CURVE {stroke = {w = 1;};}",
"736 1 OFFCURVE {stroke = {w = 1;};}",
"944 209 OFFCURVE {stroke = {w = 1;};}",
"944 466 CURVE {stroke = {w = 1;};}",
"944 722 OFFCURVE {stroke = {w = 1;};}",
"736 931 OFFCURVE {stroke = {w = 1;};}",
"479 931 CURVE {stroke = {w = 1;};}"
);
},
{
closed = 1;
nodes = (
"871 389 LINE {stroke = {w = 1;};}",
"866 365 LINE {stroke = {w = 1;};}",
"859 340 LINE {stroke = {w = 1;};}",
"850 317 LINE {stroke = {w = 1;};}",
"840 294 LINE {stroke = {w = 1;};}",
"829 272 LINE {stroke = {w = 1;};}",
"816 250 LINE {stroke = {w = 1;};}",
"802 229 LINE {stroke = {w = 1;};}",
"787 209 LINE {stroke = {w = 1;};}",
"770 191 LINE {stroke = {w = 1;};}",
"752 173 LINE {stroke = {w = 1;};}",
"734 156 LINE {stroke = {w = 1;};}",
"714 141 LINE {stroke = {w = 1;};}",
"693 127 LINE {stroke = {w = 1;};}",
"672 114 LINE {stroke = {w = 1;};}",
"649 103 LINE {stroke = {w = 1;};}",
"626 93 LINE {stroke = {w = 1;};}",
"603 84 LINE {stroke = {w = 1;};}",
"579 77 LINE {stroke = {w = 1;};}",
"554 72 LINE {stroke = {w = 1;};}",
"529 68 LINE {stroke = {w = 1;};}",
"504 66 LINE {stroke = {w = 1;};}",
"479 65 LINE {stroke = {w = 1;};}",
"454 66 LINE {stroke = {w = 1;};}",
"429 68 LINE {stroke = {w = 1;};}",
"405 72 LINE {stroke = {w = 1;};}",
"380 77 LINE {stroke = {w = 1;};}",
"356 84 LINE {stroke = {w = 1;};}",
"332 93 LINE {stroke = {w = 1;};}",
"309 103 LINE {stroke = {w = 1;};}",
"287 114 LINE {stroke = {w = 1;};}",
"265 127 LINE {stroke = {w = 1;};}",
"245 141 LINE {stroke = {w = 1;};}",
"225 156 LINE {stroke = {w = 1;};}",
"206 173 LINE {stroke = {w = 1;};}",
"188 191 LINE {stroke = {w = 1;};}",
"172 209 LINE {stroke = {w = 1;};}",
"156 229 LINE {stroke = {w = 1;};}",
"142 250 LINE {stroke = {w = 1;};}",
"130 272 LINE {stroke = {w = 1;};}",
"118 294 LINE {stroke = {w = 1;};}",
"108 317 LINE {stroke = {w = 1;};}",
"100 340 LINE {stroke = {w = 1;};}",
"93 365 LINE {stroke = {w = 1;};}",
"87 389 LINE {stroke = {w = 1;};}",
"83 414 LINE {stroke = {w = 1;};}",
"81 439 LINE {stroke = {w = 1;};}",
"80 464 LINE {stroke = {w = 1;};}",
"81 489 LINE {stroke = {w = 1;};}",
"83 514 LINE {stroke = {w = 1;};}",
"87 539 LINE {stroke = {w = 1;};}",
"93 563 LINE {stroke = {w = 1;};}",
"100 587 LINE {stroke = {w = 1;};}",
"108 611 LINE {stroke = {w = 1;};}",
"118 634 LINE {stroke = {w = 1;};}",
"130 656 LINE {stroke = {w = 1;};}",
"142 678 LINE {stroke = {w = 1;};}",
"156 698 LINE {stroke = {w = 1;};}",
"172 718 LINE {stroke = {w = 1;};}",
"188 737 LINE {stroke = {w = 1;};}",
"206 755 LINE {stroke = {w = 1;};}",
"225 771 LINE {stroke = {w = 1;};}",
"245 787 LINE {stroke = {w = 1;};}",
"265 801 LINE {stroke = {w = 1;};}",
"287 813 LINE {stroke = {w = 1;};}",
"309 825 LINE {stroke = {w = 1;};}",
"332 835 LINE {stroke = {w = 1;};}",
"356 843 LINE {stroke = {w = 1;};}",
"380 850 LINE {stroke = {w = 1;};}",
"405 856 LINE {stroke = {w = 1;};}",
"429 860 LINE {stroke = {w = 1;};}",
"454 862 LINE {stroke = {w = 1;};}",
"479 863 LINE {stroke = {w = 1;};}",
"479 464 LINE {stroke = {w = 1;};}",
"504 862 LINE {stroke = {w = 1;};}",
"529 860 LINE {stroke = {w = 1;};}",
"554 856 LINE {stroke = {w = 1;};}",
"579 850 LINE {stroke = {w = 1;};}",
"603 843 LINE {stroke = {w = 1;};}",
"626 835 LINE {stroke = {w = 1;};}",
"649 825 LINE {stroke = {w = 1;};}",
"672 813 LINE {stroke = {w = 1;};}",
"693 801 LINE {stroke = {w = 1;};}",
"714 787 LINE {stroke = {w = 1;};}",
"734 771 LINE {stroke = {w = 1;};}",
"752 755 LINE {stroke = {w = 1;};}",
"770 737 LINE {stroke = {w = 1;};}",
"787 718 LINE {stroke = {w = 1;};}",
"802 698 LINE {stroke = {w = 1;};}",
"816 678 LINE {stroke = {w = 1;};}",
"829 656 LINE {stroke = {w = 1;};}",
"840 634 LINE {stroke = {w = 1;};}",
"850 611 LINE {stroke = {w = 1;};}",
"859 587 LINE {stroke = {w = 1;};}",
"866 563 LINE {stroke = {w = 1;};}",
"871 539 LINE {stroke = {w = 1;};}",
"875 514 LINE {stroke = {w = 1;};}",
"878 489 LINE {stroke = {w = 1;};}",
"878 464 LINE {stroke = {w = 1;};}",
"878 439 LINE {stroke = {w = 1;};}",
"875 414 LINE {stroke = {w = 1;};}"
);
}
);
width = 959;
}
);
},
{
glyphname = two_zero_percent.liga;
lastChange = "2021-11-14 20:37:29 +0000";
layers = (
{
layerId = "3603F491-BDB4-4F7B-A4F4-044CFF075AAF";
paths = (
{
closed = 1;
nodes = (
"218 931 OFFCURVE {stroke = {w = 1;};}",
"9 722 OFFCURVE {stroke = {w = 1;};}",
"10 466 CURVE {stroke = {w = 1;};}",
"10 209 OFFCURVE {stroke = {w = 1;};}",
"218 1 OFFCURVE {stroke = {w = 1;};}",
"474 1 CURVE {stroke = {w = 1;};}",
"731 1 OFFCURVE {stroke = {w = 1;};}",
"939 209 OFFCURVE {stroke = {w = 1;};}",
"939 466 CURVE {stroke = {w = 1;};}",
"939 722 OFFCURVE {stroke = {w = 1;};}",
"731 931 OFFCURVE {stroke = {w = 1;};}",
"474 931 CURVE {stroke = {w = 1;};}"
);
},
{
closed = 1;
nodes = (
"866 389 LINE {stroke = {w = 1;};}",
"861 365 LINE {stroke = {w = 1;};}",
"854 340 LINE {stroke = {w = 1;};}",
"845 317 LINE {stroke = {w = 1;};}",
"835 294 LINE {stroke = {w = 1;};}",
"824 272 LINE {stroke = {w = 1;};}",
"811 250 LINE {stroke = {w = 1;};}",
"797 229 LINE {stroke = {w = 1;};}",
"782 209 LINE {stroke = {w = 1;};}",
"765 191 LINE {stroke = {w = 1;};}",
"747 173 LINE {stroke = {w = 1;};}",
"729 156 LINE {stroke = {w = 1;};}",
"709 141 LINE {stroke = {w = 1;};}",
"688 127 LINE {stroke = {w = 1;};}",
"667 114 LINE {stroke = {w = 1;};}",
"644 103 LINE {stroke = {w = 1;};}",
"621 93 LINE {stroke = {w = 1;};}",
"598 84 LINE {stroke = {w = 1;};}",
"574 77 LINE {stroke = {w = 1;};}",
"549 72 LINE {stroke = {w = 1;};}",
"524 68 LINE {stroke = {w = 1;};}",
"499 65 LINE {stroke = {w = 1;};}",
"474 65 LINE {stroke = {w = 1;};}",
"449 65 LINE {stroke = {w = 1;};}",
"424 68 LINE {stroke = {w = 1;};}",
"400 72 LINE {stroke = {w = 1;};}",
"375 77 LINE {stroke = {w = 1;};}",
"351 84 LINE {stroke = {w = 1;};}",
"327 93 LINE {stroke = {w = 1;};}",
"304 103 LINE {stroke = {w = 1;};}",
"282 114 LINE {stroke = {w = 1;};}",
"260 127 LINE {stroke = {w = 1;};}",
"240 141 LINE {stroke = {w = 1;};}",
"220 156 LINE {stroke = {w = 1;};}",
"201 173 LINE {stroke = {w = 1;};}",
"183 191 LINE {stroke = {w = 1;};}",
"167 209 LINE {stroke = {w = 1;};}",
"151 229 LINE {stroke = {w = 1;};}",
"137 250 LINE {stroke = {w = 1;};}",
"125 272 LINE {stroke = {w = 1;};}",
"113 294 LINE {stroke = {w = 1;};}",
"103 317 LINE {stroke = {w = 1;};}",
"95 340 LINE {stroke = {w = 1;};}",
"88 365 LINE {stroke = {w = 1;};}",
"82 389 LINE {stroke = {w = 1;};}",
"78 414 LINE {stroke = {w = 1;};}",
"76 439 LINE {stroke = {w = 1;};}",
"75 464 LINE {stroke = {w = 1;};}",
"76 489 LINE {stroke = {w = 1;};}",
"78 514 LINE {stroke = {w = 1;};}",
"82 539 LINE {stroke = {w = 1;};}",
"88 563 LINE {stroke = {w = 1;};}",
"95 587 LINE {stroke = {w = 1;};}",
"103 611 LINE {stroke = {w = 1;};}",
"113 634 LINE {stroke = {w = 1;};}",
"125 656 LINE {stroke = {w = 1;};}",
"137 678 LINE {stroke = {w = 1;};}",
"151 698 LINE {stroke = {w = 1;};}",
"167 718 LINE {stroke = {w = 1;};}",
"183 737 LINE {stroke = {w = 1;};}",
"201 755 LINE {stroke = {w = 1;};}",
"220 771 LINE {stroke = {w = 1;};}",
"240 787 LINE {stroke = {w = 1;};}",
"260 801 LINE {stroke = {w = 1;};}",
"282 813 LINE {stroke = {w = 1;};}",
"304 825 LINE {stroke = {w = 1;};}",
"327 835 LINE {stroke = {w = 1;};}",
"351 843 LINE {stroke = {w = 1;};}",
"375 850 LINE {stroke = {w = 1;};}",
"400 856 LINE {stroke = {w = 1;};}",
"424 860 LINE {stroke = {w = 1;};}",
"449 862 LINE {stroke = {w = 1;};}",
"474 863 LINE {stroke = {w = 1;};}",
"474 464 LINE {stroke = {w = 1;};}",
"854 587 LINE {stroke = {w = 1;};}",
"861 563 LINE {stroke = {w = 1;};}",
"866 539 LINE {stroke = {w = 1;};}",
"870 514 LINE {stroke = {w = 1;};}",
"873 489 LINE {stroke = {w = 1;};}",
"873 464 LINE {stroke = {w = 1;};}",
"873 439 LINE {stroke = {w = 1;};}",
"870 414 LINE {stroke = {w = 1;};}"
);
}
);
width = 950;
}
);
},
{
glyphname = two_one_percent.liga;
lastChange = "2021-11-14 20:39:40 +0000";
layers = (
{
layerId = "3603F491-BDB4-4F7B-A4F4-044CFF075AAF";
paths = (
{
closed = 1;
nodes = (
"218 931 OFFCURVE {stroke = {w = 1;};}",
"9 722 OFFCURVE {stroke = {w = 1;};}",
"10 466 CURVE {stroke = {w = 1;};}",
"10 209 OFFCURVE {stroke = {w = 1;};}",
"218 1 OFFCURVE {stroke = {w = 1;};}",
"474 1 CURVE {stroke = {w = 1;};}",
"731 1 OFFCURVE {stroke = {w = 1;};}",
"939 209 OFFCURVE {stroke = {w = 1;};}",
"939 466 CURVE {stroke = {w = 1;};}",
"939 722 OFFCURVE {stroke = {w = 1;};}",
"731 931 OFFCURVE {stroke = {w = 1;};}",
"474 931 CURVE {stroke = {w = 1;};}"
);
},
{
closed = 1;
nodes = (
"866 389 LINE {stroke = {w = 1;};}",
"861 365 LINE {stroke = {w = 1;};}",
"854 340 LINE {stroke = {w = 1;};}",
"845 317 LINE {stroke = {w = 1;};}",
"835 294 LINE {stroke = {w = 1;};}",
"824 272 LINE {stroke = {w = 1;};}",
"811 250 LINE {stroke = {w = 1;};}",
"797 229 LINE {stroke = {w = 1;};}",
"782 209 LINE {stroke = {w = 1;};}",
"765 191 LINE {stroke = {w = 1;};}",
"747 173 LINE {stroke = {w = 1;};}",
"729 156 LINE {stroke = {w = 1;};}",
"709 141 LINE {stroke = {w = 1;};}",
"688 127 LINE {stroke = {w = 1;};}",
"667 114 LINE {stroke = {w = 1;};}",
"644 103 LINE {stroke = {w = 1;};}",
"621 93 LINE {stroke = {w = 1;};}",
"598 84 LINE {stroke = {w = 1;};}",
"574 77 LINE {stroke = {w = 1;};}",
"549 72 LINE {stroke = {w = 1;};}",
"524 68 LINE {stroke = {w = 1;};}",
"499 65 LINE {stroke = {w = 1;};}",
"474 65 LINE {stroke = {w = 1;};}",
"449 65 LINE {stroke = {w = 1;};}",
"424 68 LINE {stroke = {w = 1;};}",
"400 72 LINE {stroke = {w = 1;};}",
"375 77 LINE {stroke = {w = 1;};}",
"351 84 LINE {stroke = {w = 1;};}",
"327 93 LINE {stroke = {w = 1;};}",
"304 103 LINE {stroke = {w = 1;};}",
"282 114 LINE {stroke = {w = 1;};}",
"260 127 LINE {stroke = {w = 1;};}",
"240 141 LINE {stroke = {w = 1;};}",
"220 156 LINE {stroke = {w = 1;};}",
"201 173 LINE {stroke = {w = 1;};}",
"183 191 LINE {stroke = {w = 1;};}",
"167 209 LINE {stroke = {w = 1;};}",
"151 229 LINE {stroke = {w = 1;};}",
"137 250 LINE {stroke = {w = 1;};}",
"125 272 LINE {stroke = {w = 1;};}",
"113 294 LINE {stroke = {w = 1;};}",
"103 317 LINE {stroke = {w = 1;};}",
"95 340 LINE {stroke = {w = 1;};}",
"88 365 LINE {stroke = {w = 1;};}",
"82 389 LINE {stroke = {w = 1;};}",
"78 414 LINE {stroke = {w = 1;};}",
"76 439 LINE {stroke = {w = 1;};}",
"75 464 LINE {stroke = {w = 1;};}",
"76 489 LINE {stroke = {w = 1;};}",
"78 514 LINE {stroke = {w = 1;};}",
"82 539 LINE {stroke = {w = 1;};}",
"88 563 LINE {stroke = {w = 1;};}",
"95 587 LINE {stroke = {w = 1;};}",
"103 611 LINE {stroke = {w = 1;};}",
"113 634 LINE {stroke = {w = 1;};}",
"125 656 LINE {stroke = {w = 1;};}",
"137 678 LINE {stroke = {w = 1;};}",
"151 698 LINE {stroke = {w = 1;};}",
"167 718 LINE {stroke = {w = 1;};}",
"183 737 LINE {stroke = {w = 1;};}",
"201 755 LINE {stroke = {w = 1;};}",
"220 771 LINE {stroke = {w = 1;};}",
"240 787 LINE {stroke = {w = 1;};}",
"260 801 LINE {stroke = {w = 1;};}",
"282 813 LINE {stroke = {w = 1;};}",
"304 825 LINE {stroke = {w = 1;};}",
"327 835 LINE {stroke = {w = 1;};}",
"351 843 LINE {stroke = {w = 1;};}",
"375 850 LINE {stroke = {w = 1;};}",
"400 856 LINE {stroke = {w = 1;};}",
"424 860 LINE {stroke = {w = 1;};}",
"449 862 LINE {stroke = {w = 1;};}",
"474 863 LINE {stroke = {w = 1;};}",
"480 464 LINE {stroke = {w = 1;};}",
"861 563 LINE {stroke = {w = 1;};}",
"866 539 LINE {stroke = {w = 1;};}",
"870 514 LINE {stroke = {w = 1;};}",
"873 489 LINE {stroke = {w = 1;};}",
"873 464 LINE {stroke = {w = 1;};}",
"873 439 LINE {stroke = {w = 1;};}",
"870 414 LINE {stroke = {w = 1;};}"
);
}
);
width = 950;
}
);
},
{
glyphname = two_two_percent.liga;
lastChange = "2021-11-14 20:40:36 +0000";
layers = (
{
layerId = "3603F491-BDB4-4F7B-A4F4-044CFF075AAF";
paths = (
{
closed = 1;
nodes = (
"218 931 OFFCURVE {stroke = {w = 1;};}",
"9 722 OFFCURVE {stroke = {w = 1;};}",
"10 466 CURVE {stroke = {w = 1;};}",
"10 209 OFFCURVE {stroke = {w = 1;};}",
"218 1 OFFCURVE {stroke = {w = 1;};}",
"474 1 CURVE {stroke = {w = 1;};}",
"731 1 OFFCURVE {stroke = {w = 1;};}",
"939 209 OFFCURVE {stroke = {w = 1;};}",
"939 466 CURVE {stroke = {w = 1;};}",
"939 722 OFFCURVE {stroke = {w = 1;};}",
"731 931 OFFCURVE {stroke = {w = 1;};}",
"474 931 CURVE {stroke = {w = 1;};}"
);
},
{
closed = 1;
nodes = (
"866 389 LINE {stroke = {w = 1;};}",
"861 365 LINE {stroke = {w = 1;};}",
"854 340 LINE {stroke = {w = 1;};}",
"845 317 LINE {stroke = {w = 1;};}",
"835 294 LINE {stroke = {w = 1;};}",
"824 272 LINE {stroke = {w = 1;};}",
"811 250 LINE {stroke = {w = 1;};}",
"797 229 LINE {stroke = {w = 1;};}",
"782 209 LINE {stroke = {w = 1;};}",
"765 191 LINE {stroke = {w = 1;};}",
"747 173 LINE {stroke = {w = 1;};}",
"729 156 LINE {stroke = {w = 1;};}",
"709 141 LINE {stroke = {w = 1;};}",
"688 127 LINE {stroke = {w = 1;};}",
"667 114 LINE {stroke = {w = 1;};}",
"644 103 LINE {stroke = {w = 1;};}",
"621 93 LINE {stroke = {w = 1;};}",
"598 84 LINE {stroke = {w = 1;};}",
"574 77 LINE {stroke = {w = 1;};}",
"549 72 LINE {stroke = {w = 1;};}",
"524 68 LINE {stroke = {w = 1;};}",
"499 65 LINE {stroke = {w = 1;};}",
"474 65 LINE {stroke = {w = 1;};}",
"449 65 LINE {stroke = {w = 1;};}",
"424 68 LINE {stroke = {w = 1;};}",
"400 72 LINE {stroke = {w = 1;};}",
"375 77 LINE {stroke = {w = 1;};}",
"351 84 LINE {stroke = {w = 1;};}",
"327 93 LINE {stroke = {w = 1;};}",
"304 103 LINE {stroke = {w = 1;};}",
"282 114 LINE {stroke = {w = 1;};}",
"260 127 LINE {stroke = {w = 1;};}",
"240 141 LINE {stroke = {w = 1;};}",
"220 156 LINE {stroke = {w = 1;};}",
"201 173 LINE {stroke = {w = 1;};}",
"183 191 LINE {stroke = {w = 1;};}",
"167 209 LINE {stroke = {w = 1;};}",
"151 229 LINE {stroke = {w = 1;};}",
"137 250 LINE {stroke = {w = 1;};}",
"125 272 LINE {stroke = {w = 1;};}",
"113 294 LINE {stroke = {w = 1;};}",
"103 317 LINE {stroke = {w = 1;};}",
"95 340 LINE {stroke = {w = 1;};}",
"88 365 LINE {stroke = {w = 1;};}",
"82 389 LINE {stroke = {w = 1;};}",
"78 414 LINE {stroke = {w = 1;};}",
"76 439 LINE {stroke = {w = 1;};}",
"75 464 LINE {stroke = {w = 1;};}",
"76 489 LINE {stroke = {w = 1;};}",
"78 514 LINE {stroke = {w = 1;};}",
"82 539 LINE {stroke = {w = 1;};}",
"88 563 LINE {stroke = {w = 1;};}",
"95 587 LINE {stroke = {w = 1;};}",
"103 611 LINE {stroke = {w = 1;};}",
"113 634 LINE {stroke = {w = 1;};}",
"125 656 LINE {stroke = {w = 1;};}",
"137 678 LINE {stroke = {w = 1;};}",
"151 698 LINE {stroke = {w = 1;};}",
"167 718 LINE {stroke = {w = 1;};}",
"183 737 LINE {stroke = {w = 1;};}",
"201 755 LINE {stroke = {w = 1;};}",
"220 771 LINE {stroke = {w = 1;};}",
"240 787 LINE {stroke = {w = 1;};}",
"260 801 LINE {stroke = {w = 1;};}",
"282 813 LINE {stroke = {w = 1;};}",
"304 825 LINE {stroke = {w = 1;};}",
"327 835 LINE {stroke = {w = 1;};}",
"351 843 LINE {stroke = {w = 1;};}",
"375 850 LINE {stroke = {w = 1;};}",
"400 856 LINE {stroke = {w = 1;};}",
"424 860 LINE {stroke = {w = 1;};}",
"449 862 LINE {stroke = {w = 1;};}",
"474 863 LINE {stroke = {w = 1;};}",
"480 464 LINE {stroke = {w = 1;};}",
"866 539 LINE {stroke = {w = 1;};}",
"870 514 LINE {stroke = {w = 1;};}",
"873 489 LINE {stroke = {w = 1;};}",
"873 464 LINE {stroke = {w = 1;};}",
"873 439 LINE {stroke = {w = 1;};}",
"870 414 LINE {stroke = {w = 1;};}"
);
}
);
width = 950;
}
);
},
{
glyphname = two_three_percent.liga;
lastChange = "2021-11-14 20:41:27 +0000";
layers = (
{
layerId = "3603F491-BDB4-4F7B-A4F4-044CFF075AAF";
paths = (
{
closed = 1;
nodes = (
"218 931 OFFCURVE {stroke = {w = 1;};}",
"9 722 OFFCURVE {stroke = {w = 1;};}",
"10 466 CURVE {stroke = {w = 1;};}",
"10 209 OFFCURVE {stroke = {w = 1;};}",
"218 1 OFFCURVE {stroke = {w = 1;};}",
"474 1 CURVE {stroke = {w = 1;};}",
"731 1 OFFCURVE {stroke = {w = 1;};}",
"939 209 OFFCURVE {stroke = {w = 1;};}",
"939 466 CURVE {stroke = {w = 1;};}",
"939 722 OFFCURVE {stroke = {w = 1;};}",
"731 931 OFFCURVE {stroke = {w = 1;};}",
"474 931 CURVE {stroke = {w = 1;};}"
);
},
{
closed = 1;
nodes = (
"866 389 LINE {stroke = {w = 1;};}",
"861 365 LINE {stroke = {w = 1;};}",
"854 340 LINE {stroke = {w = 1;};}",
"845 317 LINE {stroke = {w = 1;};}",
"835 294 LINE {stroke = {w = 1;};}",
"824 272 LINE {stroke = {w = 1;};}",
"811 250 LINE {stroke = {w = 1;};}",
"797 229 LINE {stroke = {w = 1;};}",
"782 209 LINE {stroke = {w = 1;};}",
"765 191 LINE {stroke = {w = 1;};}",
"747 173 LINE {stroke = {w = 1;};}",
"729 156 LINE {stroke = {w = 1;};}",
"709 141 LINE {stroke = {w = 1;};}",
"688 127 LINE {stroke = {w = 1;};}",
"667 114 LINE {stroke = {w = 1;};}",
"644 103 LINE {stroke = {w = 1;};}",
"621 93 LINE {stroke = {w = 1;};}",
"598 84 LINE {stroke = {w = 1;};}",
"574 77 LINE {stroke = {w = 1;};}",
"549 72 LINE {stroke = {w = 1;};}",
"524 68 LINE {stroke = {w = 1;};}",
"499 65 LINE {stroke = {w = 1;};}",
"474 65 LINE {stroke = {w = 1;};}",
"449 65 LINE {stroke = {w = 1;};}",
"424 68 LINE {stroke = {w = 1;};}",
"400 72 LINE {stroke = {w = 1;};}",
"375 77 LINE {stroke = {w = 1;};}",
"351 84 LINE {stroke = {w = 1;};}",
"327 93 LINE {stroke = {w = 1;};}",
"304 103 LINE {stroke = {w = 1;};}",
"282 114 LINE {stroke = {w = 1;};}",
"260 127 LINE {stroke = {w = 1;};}",
"240 141 LINE {stroke = {w = 1;};}",
"220 156 LINE {stroke = {w = 1;};}",
"201 173 LINE {stroke = {w = 1;};}",
"183 191 LINE {stroke = {w = 1;};}",
"167 209 LINE {stroke = {w = 1;};}",
"151 229 LINE {stroke = {w = 1;};}",
"137 250 LINE {stroke = {w = 1;};}",
"125 272 LINE {stroke = {w = 1;};}",
"113 294 LINE {stroke = {w = 1;};}",
"103 317 LINE {stroke = {w = 1;};}",
"95 340 LINE {stroke = {w = 1;};}",
"88 365 LINE {stroke = {w = 1;};}",
"82 389 LINE {stroke = {w = 1;};}",
"78 414 LINE {stroke = {w = 1;};}",
"76 439 LINE {stroke = {w = 1;};}",
"75 464 LINE {stroke = {w = 1;};}",
"76 489 LINE {stroke = {w = 1;};}",
"78 514 LINE {stroke = {w = 1;};}",
"82 539 LINE {stroke = {w = 1;};}",
"88 563 LINE {stroke = {w = 1;};}",
"95 587 LINE {stroke = {w = 1;};}",
"103 611 LINE {stroke = {w = 1;};}",
"113 634 LINE {stroke = {w = 1;};}",
"125 656 LINE {stroke = {w = 1;};}",
"137 678 LINE {stroke = {w = 1;};}",
"151 698 LINE {stroke = {w = 1;};}",
"167 718 LINE {stroke = {w = 1;};}",
"183 737 LINE {stroke = {w = 1;};}",
"201 755 LINE {stroke = {w = 1;};}",
"220 771 LINE {stroke = {w = 1;};}",
"240 787 LINE {stroke = {w = 1;};}",
"260 801 LINE {stroke = {w = 1;};}",
"282 813 LINE {stroke = {w = 1;};}",
"304 825 LINE {stroke = {w = 1;};}",
"327 835 LINE {stroke = {w = 1;};}",
"351 843 LINE {stroke = {w = 1;};}",
"375 850 LINE {stroke = {w = 1;};}",
"400 856 LINE {stroke = {w = 1;};}",
"424 860 LINE {stroke = {w = 1;};}",
"449 862 LINE {stroke = {w = 1;};}",
"474 863 LINE {stroke = {w = 1;};}",
"480 464 LINE {stroke = {w = 1;};}",
"870 514 LINE {stroke = {w = 1;};}",
"873 489 LINE {stroke = {w = 1;};}",
"873 464 LINE {stroke = {w = 1;};}",
"873 439 LINE {stroke = {w = 1;};}",
"870 414 LINE {stroke = {w = 1;};}"
);
}
);
width = 950;
}
);
},
{
glyphname = two_four_percent.liga;
lastChange = "2021-11-14 20:42:27 +0000";
layers = (
{
layerId = "3603F491-BDB4-4F7B-A4F4-044CFF075AAF";
paths = (
{
closed = 1;
nodes = (
"218 931 OFFCURVE {stroke = {w = 1;};}",
"9 722 OFFCURVE {stroke = {w = 1;};}",
"10 466 CURVE {stroke = {w = 1;};}",
"10 209 OFFCURVE {stroke = {w = 1;};}",
"218 1 OFFCURVE {stroke = {w = 1;};}",
"474 1 CURVE {stroke = {w = 1;};}",
"731 1 OFFCURVE {stroke = {w = 1;};}",
"939 209 OFFCURVE {stroke = {w = 1;};}",
"939 466 CURVE {stroke = {w = 1;};}",
"939 722 OFFCURVE {stroke = {w = 1;};}",
"731 931 OFFCURVE {stroke = {w = 1;};}",
"474 931 CURVE {stroke = {w = 1;};}"
);
},
{
closed = 1;
nodes = (
"866 389 LINE {stroke = {w = 1;};}",
"861 365 LINE {stroke = {w = 1;};}",
"854 340 LINE {stroke = {w = 1;};}",
"845 317 LINE {stroke = {w = 1;};}",
"835 294 LINE {stroke = {w = 1;};}",
"824 272 LINE {stroke = {w = 1;};}",
"811 250 LINE {stroke = {w = 1;};}",
"797 229 LINE {stroke = {w = 1;};}",
"782 209 LINE {stroke = {w = 1;};}",
"765 191 LINE {stroke = {w = 1;};}",
"747 173 LINE {stroke = {w = 1;};}",
"729 156 LINE {stroke = {w = 1;};}",
"709 141 LINE {stroke = {w = 1;};}",
"688 127 LINE {stroke = {w = 1;};}",
"667 114 LINE {stroke = {w = 1;};}",
"644 103 LINE {stroke = {w = 1;};}",
"621 93 LINE {stroke = {w = 1;};}",
"598 84 LINE {stroke = {w = 1;};}",
"574 77 LINE {stroke = {w = 1;};}",
"549 72 LINE {stroke = {w = 1;};}",
"524 68 LINE {stroke = {w = 1;};}",
"499 65 LINE {stroke = {w = 1;};}",
"474 65 LINE {stroke = {w = 1;};}",
"449 65 LINE {stroke = {w = 1;};}",
"424 68 LINE {stroke = {w = 1;};}",
"400 72 LINE {stroke = {w = 1;};}",
"375 77 LINE {stroke = {w = 1;};}",
"351 84 LINE {stroke = {w = 1;};}",
"327 93 LINE {stroke = {w = 1;};}",
"304 103 LINE {stroke = {w = 1;};}",
"282 114 LINE {stroke = {w = 1;};}",
"260 127 LINE {stroke = {w = 1;};}",
"240 141 LINE {stroke = {w = 1;};}",
"220 156 LINE {stroke = {w = 1;};}",
"201 173 LINE {stroke = {w = 1;};}",
"183 191 LINE {stroke = {w = 1;};}",
"167 209 LINE {stroke = {w = 1;};}",
"151 229 LINE {stroke = {w = 1;};}",
"137 250 LINE {stroke = {w = 1;};}",
"125 272 LINE {stroke = {w = 1;};}",
"113 294 LINE {stroke = {w = 1;};}",
"103 317 LINE {stroke = {w = 1;};}",
"95 340 LINE {stroke = {w = 1;};}",
"88 365 LINE {stroke = {w = 1;};}",
"82 389 LINE {stroke = {w = 1;};}",
"78 414 LINE {stroke = {w = 1;};}",
"76 439 LINE {stroke = {w = 1;};}",
"75 464 LINE {stroke = {w = 1;};}",
"76 489 LINE {stroke = {w = 1;};}",
"78 514 LINE {stroke = {w = 1;};}",
"82 539 LINE {stroke = {w = 1;};}",
"88 563 LINE {stroke = {w = 1;};}",
"95 587 LINE {stroke = {w = 1;};}",
"103 611 LINE {stroke = {w = 1;};}",
"113 634 LINE {stroke = {w = 1;};}",
"125 656 LINE {stroke = {w = 1;};}",
"137 678 LINE {stroke = {w = 1;};}",
"151 698 LINE {stroke = {w = 1;};}",
"167 718 LINE {stroke = {w = 1;};}",
"183 737 LINE {stroke = {w = 1;};}",
"201 755 LINE {stroke = {w = 1;};}",
"220 771 LINE {stroke = {w = 1;};}",
"240 787 LINE {stroke = {w = 1;};}",
"260 801 LINE {stroke = {w = 1;};}",
"282 813 LINE {stroke = {w = 1;};}",
"304 825 LINE {stroke = {w = 1;};}",
"327 835 LINE {stroke = {w = 1;};}",
"351 843 LINE {stroke = {w = 1;};}",
"375 850 LINE {stroke = {w = 1;};}",
"400 856 LINE {stroke = {w = 1;};}",
"424 860 LINE {stroke = {w = 1;};}",
"449 862 LINE {stroke = {w = 1;};}",
"474 863 LINE {stroke = {w = 1;};}",
"480 464 LINE {stroke = {w = 1;};}",
"873 489 LINE {stroke = {w = 1;};}",
"873 464 LINE {stroke = {w = 1;};}",
"873 439 LINE {stroke = {w = 1;};}",
"870 414 LINE {stroke = {w = 1;};}"
);
}
);
width = 950;
}
);
},
{
glyphname = two_five_percent.liga;
lastChange = "2021-11-14 20:43:29 +0000";
layers = (
{
layerId = "3603F491-BDB4-4F7B-A4F4-044CFF075AAF";
paths = (
{
closed = 1;
nodes = (
"218 931 OFFCURVE {stroke = {w = 1;};}",
"9 722 OFFCURVE {stroke = {w = 1;};}",
"10 466 CURVE {stroke = {w = 1;};}",
"10 209 OFFCURVE {stroke = {w = 1;};}",
"218 1 OFFCURVE {stroke = {w = 1;};}",
"474 1 CURVE {stroke = {w = 1;};}",
"731 1 OFFCURVE {stroke = {w = 1;};}",
"939 209 OFFCURVE {stroke = {w = 1;};}",
"939 466 CURVE {stroke = {w = 1;};}",
"939 722 OFFCURVE {stroke = {w = 1;};}",
"731 931 OFFCURVE {stroke = {w = 1;};}",
"474 931 CURVE {stroke = {w = 1;};}"
);
},
{
closed = 1;
nodes = (
"866 389 LINE {stroke = {w = 1;};}",
"861 365 LINE {stroke = {w = 1;};}",
"854 340 LINE {stroke = {w = 1;};}",
"845 317 LINE {stroke = {w = 1;};}",
"835 294 LINE {stroke = {w = 1;};}",
"824 272 LINE {stroke = {w = 1;};}",
"811 250 LINE {stroke = {w = 1;};}",
"797 229 LINE {stroke = {w = 1;};}",
"782 209 LINE {stroke = {w = 1;};}",
"765 191 LINE {stroke = {w = 1;};}",
"747 173 LINE {stroke = {w = 1;};}",
"729 156 LINE {stroke = {w = 1;};}",
"709 141 LINE {stroke = {w = 1;};}",
"688 127 LINE {stroke = {w = 1;};}",
"667 114 LINE {stroke = {w = 1;};}",
"644 103 LINE {stroke = {w = 1;};}",
"621 93 LINE {stroke = {w = 1;};}",
"598 84 LINE {stroke = {w = 1;};}",
"574 77 LINE {stroke = {w = 1;};}",
"549 72 LINE {stroke = {w = 1;};}",
"524 68 LINE {stroke = {w = 1;};}",
"499 65 LINE {stroke = {w = 1;};}",
"474 65 LINE {stroke = {w = 1;};}",
"449 65 LINE {stroke = {w = 1;};}",
"424 68 LINE {stroke = {w = 1;};}",
"400 72 LINE {stroke = {w = 1;};}",
"375 77 LINE {stroke = {w = 1;};}",
"351 84 LINE {stroke = {w = 1;};}",
"327 93 LINE {stroke = {w = 1;};}",
"304 103 LINE {stroke = {w = 1;};}",
"282 114 LINE {stroke = {w = 1;};}",
"260 127 LINE {stroke = {w = 1;};}",
"240 141 LINE {stroke = {w = 1;};}",
"220 156 LINE {stroke = {w = 1;};}",
"201 173 LINE {stroke = {w = 1;};}",
"183 191 LINE {stroke = {w = 1;};}",
"167 209 LINE {stroke = {w = 1;};}",
"151 229 LINE {stroke = {w = 1;};}",
"137 250 LINE {stroke = {w = 1;};}",
"125 272 LINE {stroke = {w = 1;};}",
"113 294 LINE {stroke = {w = 1;};}",
"103 317 LINE {stroke = {w = 1;};}",
"95 340 LINE {stroke = {w = 1;};}",
"88 365 LINE {stroke = {w = 1;};}",
"82 389 LINE {stroke = {w = 1;};}",
"78 414 LINE {stroke = {w = 1;};}",
"76 439 LINE {stroke = {w = 1;};}",
"75 464 LINE {stroke = {w = 1;};}",
"76 489 LINE {stroke = {w = 1;};}",
"78 514 LINE {stroke = {w = 1;};}",
"82 539 LINE {stroke = {w = 1;};}",
"88 563 LINE {stroke = {w = 1;};}",
"95 587 LINE {stroke = {w = 1;};}",
"103 611 LINE {stroke = {w = 1;};}",
"113 634 LINE {stroke = {w = 1;};}",
"125 656 LINE {stroke = {w = 1;};}",
"137 678 LINE {stroke = {w = 1;};}",
"151 698 LINE {stroke = {w = 1;};}",
"167 718 LINE {stroke = {w = 1;};}",
"183 737 LINE {stroke = {w = 1;};}",
"201 755 LINE {stroke = {w = 1;};}",
"220 771 LINE {stroke = {w = 1;};}",
"240 787 LINE {stroke = {w = 1;};}",
"260 801 LINE {stroke = {w = 1;};}",
"282 813 LINE {stroke = {w = 1;};}",
"304 825 LINE {stroke = {w = 1;};}",
"327 835 LINE {stroke = {w = 1;};}",
"351 843 LINE {stroke = {w = 1;};}",
"375 850 LINE {stroke = {w = 1;};}",
"400 856 LINE {stroke = {w = 1;};}",
"424 860 LINE {stroke = {w = 1;};}",
"449 862 LINE {stroke = {w = 1;};}",
"474 863 LINE {stroke = {w = 1;};}",
"475 464 LINE {stroke = {w = 1;};}",
"873 464 LINE {stroke = {w = 1;};}",
"873 439 LINE {stroke = {w = 1;};}",
"870 414 LINE {stroke = {w = 1;};}"
);
}
);
width = 950;
}
);
},
{
glyphname = two_six_percent.liga;
lastChange = "2021-11-14 20:46:05 +0000";
layers = (
{
layerId = "3603F491-BDB4-4F7B-A4F4-044CFF075AAF";
paths = (
{
closed = 1;
nodes = (
"218 931 OFFCURVE {stroke = {w = 1;};}",
"9 722 OFFCURVE {stroke = {w = 1;};}",
"10 466 CURVE {stroke = {w = 1;};}",
"10 209 OFFCURVE {stroke = {w = 1;};}",
"218 1 OFFCURVE {stroke = {w = 1;};}",
"474 1 CURVE {stroke = {w = 1;};}",
"731 1 OFFCURVE {stroke = {w = 1;};}",
"939 209 OFFCURVE {stroke = {w = 1;};}",
"939 466 CURVE {stroke = {w = 1;};}",
"939 722 OFFCURVE {stroke = {w = 1;};}",
"731 931 OFFCURVE {stroke = {w = 1;};}",
"474 931 CURVE {stroke = {w = 1;};}"
);
},
{
closed = 1;
nodes = (
"861 365 LINE {stroke = {w = 1;};}",
"854 340 LINE {stroke = {w = 1;};}",
"845 317 LINE {stroke = {w = 1;};}",
"835 294 LINE {stroke = {w = 1;};}",
"824 272 LINE {stroke = {w = 1;};}",
"811 250 LINE {stroke = {w = 1;};}",
"797 229 LINE {stroke = {w = 1;};}",
"782 209 LINE {stroke = {w = 1;};}",
"765 191 LINE {stroke = {w = 1;};}",
"747 173 LINE {stroke = {w = 1;};}",
"729 156 LINE {stroke = {w = 1;};}",
"709 141 LINE {stroke = {w = 1;};}",
"688 127 LINE {stroke = {w = 1;};}",
"667 114 LINE {stroke = {w = 1;};}",
"644 103 LINE {stroke = {w = 1;};}",
"621 93 LINE {stroke = {w = 1;};}",
"598 84 LINE {stroke = {w = 1;};}",
"574 77 LINE {stroke = {w = 1;};}",
"549 72 LINE {stroke = {w = 1;};}",
"524 68 LINE {stroke = {w = 1;};}",
"499 65 LINE {stroke = {w = 1;};}",
"474 65 LINE {stroke = {w = 1;};}",
"449 65 LINE {stroke = {w = 1;};}",
"424 68 LINE {stroke = {w = 1;};}",
"400 72 LINE {stroke = {w = 1;};}",
"375 77 LINE {stroke = {w = 1;};}",
"351 84 LINE {stroke = {w = 1;};}",
"327 93 LINE {stroke = {w = 1;};}",
"304 103 LINE {stroke = {w = 1;};}",
"282 114 LINE {stroke = {w = 1;};}",
"260 127 LINE {stroke = {w = 1;};}",
"240 141 LINE {stroke = {w = 1;};}",
"220 156 LINE {stroke = {w = 1;};}",
"201 173 LINE {stroke = {w = 1;};}",
"183 191 LINE {stroke = {w = 1;};}",
"167 209 LINE {stroke = {w = 1;};}",
"151 229 LINE {stroke = {w = 1;};}",
"137 250 LINE {stroke = {w = 1;};}",
"125 272 LINE {stroke = {w = 1;};}",
"113 294 LINE {stroke = {w = 1;};}",
"103 317 LINE {stroke = {w = 1;};}",
"95 340 LINE {stroke = {w = 1;};}",
"88 365 LINE {stroke = {w = 1;};}",
"82 389 LINE {stroke = {w = 1;};}",
"78 414 LINE {stroke = {w = 1;};}",
"76 439 LINE {stroke = {w = 1;};}",
"75 464 LINE {stroke = {w = 1;};}",
"76 489 LINE {stroke = {w = 1;};}",
"78 514 LINE {stroke = {w = 1;};}",
"82 539 LINE {stroke = {w = 1;};}",
"88 563 LINE {stroke = {w = 1;};}",
"95 587 LINE {stroke = {w = 1;};}",
"103 611 LINE {stroke = {w = 1;};}",
"113 634 LINE {stroke = {w = 1;};}",
"125 656 LINE {stroke = {w = 1;};}",
"137 678 LINE {stroke = {w = 1;};}",
"151 698 LINE {stroke = {w = 1;};}",
"167 718 LINE {stroke = {w = 1;};}",
"183 737 LINE {stroke = {w = 1;};}",
"201 755 LINE {stroke = {w = 1;};}",
"220 771 LINE {stroke = {w = 1;};}",
"240 787 LINE {stroke = {w = 1;};}",
"260 801 LINE {stroke = {w = 1;};}",
"282 813 LINE {stroke = {w = 1;};}",
"304 825 LINE {stroke = {w = 1;};}",
"327 835 LINE {stroke = {w = 1;};}",
"351 843 LINE {stroke = {w = 1;};}",
"375 850 LINE {stroke = {w = 1;};}",
"400 856 LINE {stroke = {w = 1;};}",
"424 860 LINE {stroke = {w = 1;};}",
"449 862 LINE {stroke = {w = 1;};}",
"474 863 LINE {stroke = {w = 1;};}",
"474 464 LINE {stroke = {w = 1;};}",
"873 439 LINE {stroke = {w = 1;};}",
"870 414 LINE {stroke = {w = 1;};}",
"866 389 LINE {stroke = {w = 1;};}"
);
}
);
width = 950;
}
);
},
{
glyphname = two_seven_percent.liga;
lastChange = "2021-11-14 20:45:51 +0000";
layers = (
{
layerId = "3603F491-BDB4-4F7B-A4F4-044CFF075AAF";
paths = (
{
closed = 1;
nodes = (
"218 931 OFFCURVE {stroke = {w = 1;};}",
"10 723 OFFCURVE {stroke = {w = 1;};}",
"10 466 CURVE {stroke = {w = 1;};}",
"10 209 OFFCURVE {stroke = {w = 1;};}",
"218 1 OFFCURVE {stroke = {w = 1;};}",
"475 1 CURVE {stroke = {w = 1;};}",
"731 1 OFFCURVE {stroke = {w = 1;};}",
"939 209 OFFCURVE {stroke = {w = 1;};}",
"939 466 CURVE {stroke = {w = 1;};}",
"939 723 OFFCURVE {stroke = {w = 1;};}",
"731 931 OFFCURVE {stroke = {w = 1;};}",
"475 931 CURVE {stroke = {w = 1;};}"
);
},
{
closed = 1;
nodes = (
"854 341 LINE {stroke = {w = 1;};}",
"846 317 LINE {stroke = {w = 1;};}",
"836 294 LINE {stroke = {w = 1;};}",
"824 272 LINE {stroke = {w = 1;};}",
"812 250 LINE {stroke = {w = 1;};}",
"797 230 LINE {stroke = {w = 1;};}",
"782 210 LINE {stroke = {w = 1;};}",
"765 191 LINE {stroke = {w = 1;};}",
"748 173 LINE {stroke = {w = 1;};}",
"729 157 LINE {stroke = {w = 1;};}",
"709 141 LINE {stroke = {w = 1;};}",
"688 127 LINE {stroke = {w = 1;};}",
"667 114 LINE {stroke = {w = 1;};}",
"644 103 LINE {stroke = {w = 1;};}",
"621 93 LINE {stroke = {w = 1;};}",
"598 85 LINE {stroke = {w = 1;};}",
"574 78 LINE {stroke = {w = 1;};}",
"549 72 LINE {stroke = {w = 1;};}",
"525 68 LINE {stroke = {w = 1;};}",
"500 66 LINE {stroke = {w = 1;};}",
"475 65 LINE {stroke = {w = 1;};}",
"450 66 LINE {stroke = {w = 1;};}",
"425 68 LINE {stroke = {w = 1;};}",
"400 72 LINE {stroke = {w = 1;};}",
"375 78 LINE {stroke = {w = 1;};}",
"351 85 LINE {stroke = {w = 1;};}",
"328 93 LINE {stroke = {w = 1;};}",
"305 103 LINE {stroke = {w = 1;};}",
"282 114 LINE {stroke = {w = 1;};}",
"261 127 LINE {stroke = {w = 1;};}",
"240 141 LINE {stroke = {w = 1;};}",
"220 157 LINE {stroke = {w = 1;};}",
"201 173 LINE {stroke = {w = 1;};}",
"184 191 LINE {stroke = {w = 1;};}",
"167 210 LINE {stroke = {w = 1;};}",
"152 230 LINE {stroke = {w = 1;};}",
"138 250 LINE {stroke = {w = 1;};}",
"125 272 LINE {stroke = {w = 1;};}",
"113 294 LINE {stroke = {w = 1;};}",
"104 317 LINE {stroke = {w = 1;};}",
"95 341 LINE {stroke = {w = 1;};}",
"88 365 LINE {stroke = {w = 1;};}",
"83 389 LINE {stroke = {w = 1;};}",
"79 414 LINE {stroke = {w = 1;};}",
"76 439 LINE {stroke = {w = 1;};}",
"75 464 LINE {stroke = {w = 1;};}",
"76 489 LINE {stroke = {w = 1;};}",
"79 514 LINE {stroke = {w = 1;};}",
"83 539 LINE {stroke = {w = 1;};}",
"88 563 LINE {stroke = {w = 1;};}",
"95 587 LINE {stroke = {w = 1;};}",
"104 611 LINE {stroke = {w = 1;};}",
"113 634 LINE {stroke = {w = 1;};}",
"125 656 LINE {stroke = {w = 1;};}",
"138 678 LINE {stroke = {w = 1;};}",
"152 699 LINE {stroke = {w = 1;};}",
"167 718 LINE {stroke = {w = 1;};}",
"184 737 LINE {stroke = {w = 1;};}",
"201 755 LINE {stroke = {w = 1;};}",
"220 772 LINE {stroke = {w = 1;};}",
"240 787 LINE {stroke = {w = 1;};}",
"261 801 LINE {stroke = {w = 1;};}",
"282 814 LINE {stroke = {w = 1;};}",
"305 825 LINE {stroke = {w = 1;};}",
"328 835 LINE {stroke = {w = 1;};}",
"351 844 LINE {stroke = {w = 1;};}",
"375 851 LINE {stroke = {w = 1;};}",
"400 856 LINE {stroke = {w = 1;};}",
"425 860 LINE {stroke = {w = 1;};}",
"450 862 LINE {stroke = {w = 1;};}",
"475 863 LINE {stroke = {w = 1;};}",
"475 464 LINE {stroke = {w = 1;};}",
"870 414 LINE {stroke = {w = 1;};}",
"867 389 LINE {stroke = {w = 1;};}",
"861 365 LINE {stroke = {w = 1;};}"
);
}
);
width = 950;
}
);
},
{
glyphname = two_eight_percent.liga;
lastChange = "2021-11-14 20:47:00 +0000";
layers = (
{
layerId = "3603F491-BDB4-4F7B-A4F4-044CFF075AAF";
paths = (
{
closed = 1;
nodes = (
"218 931 OFFCURVE {stroke = {w = 1;};}",
"10 723 OFFCURVE {stroke = {w = 1;};}",
"10 466 CURVE {stroke = {w = 1;};}",
"10 209 OFFCURVE {stroke = {w = 1;};}",
"218 1 OFFCURVE {stroke = {w = 1;};}",
"475 1 CURVE {stroke = {w = 1;};}",
"731 1 OFFCURVE {stroke = {w = 1;};}",
"939 209 OFFCURVE {stroke = {w = 1;};}",
"939 466 CURVE {stroke = {w = 1;};}",
"939 723 OFFCURVE {stroke = {w = 1;};}",
"731 931 OFFCURVE {stroke = {w = 1;};}",
"475 931 CURVE {stroke = {w = 1;};}"
);
},
{
closed = 1;
nodes = (
"846 317 LINE {stroke = {w = 1;};}",
"836 294 LINE {stroke = {w = 1;};}",
"824 272 LINE {stroke = {w = 1;};}",
"812 250 LINE {stroke = {w = 1;};}",
"797 230 LINE {stroke = {w = 1;};}",
"782 210 LINE {stroke = {w = 1;};}",
"765 191 LINE {stroke = {w = 1;};}",
"748 173 LINE {stroke = {w = 1;};}",
"729 157 LINE {stroke = {w = 1;};}",
"709 141 LINE {stroke = {w = 1;};}",
"688 127 LINE {stroke = {w = 1;};}",
"667 114 LINE {stroke = {w = 1;};}",
"644 103 LINE {stroke = {w = 1;};}",
"621 93 LINE {stroke = {w = 1;};}",
"598 85 LINE {stroke = {w = 1;};}",
"574 78 LINE {stroke = {w = 1;};}",
"549 72 LINE {stroke = {w = 1;};}",
"525 68 LINE {stroke = {w = 1;};}",
"500 66 LINE {stroke = {w = 1;};}",
"475 65 LINE {stroke = {w = 1;};}",
"450 66 LINE {stroke = {w = 1;};}",
"425 68 LINE {stroke = {w = 1;};}",
"400 72 LINE {stroke = {w = 1;};}",
"375 78 LINE {stroke = {w = 1;};}",
"351 85 LINE {stroke = {w = 1;};}",
"328 93 LINE {stroke = {w = 1;};}",
"305 103 LINE {stroke = {w = 1;};}",
"282 114 LINE {stroke = {w = 1;};}",
"261 127 LINE {stroke = {w = 1;};}",
"240 141 LINE {stroke = {w = 1;};}",
"220 157 LINE {stroke = {w = 1;};}",
"201 173 LINE {stroke = {w = 1;};}",
"184 191 LINE {stroke = {w = 1;};}",
"167 210 LINE {stroke = {w = 1;};}",
"152 230 LINE {stroke = {w = 1;};}",
"138 250 LINE {stroke = {w = 1;};}",
"125 272 LINE {stroke = {w = 1;};}",
"113 294 LINE {stroke = {w = 1;};}",
"104 317 LINE {stroke = {w = 1;};}",
"95 341 LINE {stroke = {w = 1;};}",
"88 365 LINE {stroke = {w = 1;};}",
"83 389 LINE {stroke = {w = 1;};}",
"79 414 LINE {stroke = {w = 1;};}",
"76 439 LINE {stroke = {w = 1;};}",
"75 464 LINE {stroke = {w = 1;};}",
"76 489 LINE {stroke = {w = 1;};}",
"79 514 LINE {stroke = {w = 1;};}",
"83 539 LINE {stroke = {w = 1;};}",
"88 563 LINE {stroke = {w = 1;};}",
"95 587 LINE {stroke = {w = 1;};}",
"104 611 LINE {stroke = {w = 1;};}",
"113 634 LINE {stroke = {w = 1;};}",
"125 656 LINE {stroke = {w = 1;};}",
"138 678 LINE {stroke = {w = 1;};}",
"152 699 LINE {stroke = {w = 1;};}",
"167 718 LINE {stroke = {w = 1;};}",
"184 737 LINE {stroke = {w = 1;};}",
"201 755 LINE {stroke = {w = 1;};}",
"220 772 LINE {stroke = {w = 1;};}",
"240 787 LINE {stroke = {w = 1;};}",
"261 801 LINE {stroke = {w = 1;};}",
"282 814 LINE {stroke = {w = 1;};}",
"305 825 LINE {stroke = {w = 1;};}",
"328 835 LINE {stroke = {w = 1;};}",
"351 844 LINE {stroke = {w = 1;};}",
"375 851 LINE {stroke = {w = 1;};}",
"400 856 LINE {stroke = {w = 1;};}",
"425 860 LINE {stroke = {w = 1;};}",
"450 862 LINE {stroke = {w = 1;};}",
"475 863 LINE {stroke = {w = 1;};}",
"475 464 LINE {stroke = {w = 1;};}",
"867 389 LINE {stroke = {w = 1;};}",
"861 365 LINE {stroke = {w = 1;};}",
"854 341 LINE {stroke = {w = 1;};}"
);
}
);
width = 950;
}
);
},
{
glyphname = two_nine_percent.liga;
lastChange = "2021-11-14 20:47:48 +0000";
layers = (
{
layerId = "3603F491-BDB4-4F7B-A4F4-044CFF075AAF";
paths = (
{
closed = 1;
nodes = (
"218 931 OFFCURVE {stroke = {w = 1;};}",
"10 723 OFFCURVE {stroke = {w = 1;};}",
"10 466 CURVE {stroke = {w = 1;};}",
"10 209 OFFCURVE {stroke = {w = 1;};}",
"218 1 OFFCURVE {stroke = {w = 1;};}",
"475 1 CURVE {stroke = {w = 1;};}",
"731 1 OFFCURVE {stroke = {w = 1;};}",
"939 209 OFFCURVE {stroke = {w = 1;};}",
"939 466 CURVE {stroke = {w = 1;};}",
"939 723 OFFCURVE {stroke = {w = 1;};}",
"731 931 OFFCURVE {stroke = {w = 1;};}",
"475 931 CURVE {stroke = {w = 1;};}"
);
},
{
closed = 1;
nodes = (
"836 294 LINE {stroke = {w = 1;};}",
"824 272 LINE {stroke = {w = 1;};}",
"812 250 LINE {stroke = {w = 1;};}",
"797 230 LINE {stroke = {w = 1;};}",
"782 210 LINE {stroke = {w = 1;};}",
"765 191 LINE {stroke = {w = 1;};}",
"748 173 LINE {stroke = {w = 1;};}",
"729 157 LINE {stroke = {w = 1;};}",
"709 141 LINE {stroke = {w = 1;};}",
"688 127 LINE {stroke = {w = 1;};}",
"667 114 LINE {stroke = {w = 1;};}",
"644 103 LINE {stroke = {w = 1;};}",
"621 93 LINE {stroke = {w = 1;};}",
"598 85 LINE {stroke = {w = 1;};}",
"574 78 LINE {stroke = {w = 1;};}",
"549 72 LINE {stroke = {w = 1;};}",
"525 68 LINE {stroke = {w = 1;};}",
"500 66 LINE {stroke = {w = 1;};}",
"475 65 LINE {stroke = {w = 1;};}",
"450 66 LINE {stroke = {w = 1;};}",
"425 68 LINE {stroke = {w = 1;};}",
"400 72 LINE {stroke = {w = 1;};}",
"375 78 LINE {stroke = {w = 1;};}",
"351 85 LINE {stroke = {w = 1;};}",
"328 93 LINE {stroke = {w = 1;};}",
"305 103 LINE {stroke = {w = 1;};}",
"282 114 LINE {stroke = {w = 1;};}",
"261 127 LINE {stroke = {w = 1;};}",
"240 141 LINE {stroke = {w = 1;};}",
"220 157 LINE {stroke = {w = 1;};}",
"201 173 LINE {stroke = {w = 1;};}",
"184 191 LINE {stroke = {w = 1;};}",
"167 210 LINE {stroke = {w = 1;};}",
"152 230 LINE {stroke = {w = 1;};}",
"138 250 LINE {stroke = {w = 1;};}",
"125 272 LINE {stroke = {w = 1;};}",
"113 294 LINE {stroke = {w = 1;};}",
"104 317 LINE {stroke = {w = 1;};}",
"95 341 LINE {stroke = {w = 1;};}",
"88 365 LINE {stroke = {w = 1;};}",
"83 389 LINE {stroke = {w = 1;};}",
"79 414 LINE {stroke = {w = 1;};}",
"76 439 LINE {stroke = {w = 1;};}",
"75 464 LINE {stroke = {w = 1;};}",
"76 489 LINE {stroke = {w = 1;};}",
"79 514 LINE {stroke = {w = 1;};}",
"83 539 LINE {stroke = {w = 1;};}",
"88 563 LINE {stroke = {w = 1;};}",
"95 587 LINE {stroke = {w = 1;};}",
"104 611 LINE {stroke = {w = 1;};}",
"113 634 LINE {stroke = {w = 1;};}",
"125 656 LINE {stroke = {w = 1;};}",
"138 678 LINE {stroke = {w = 1;};}",
"152 699 LINE {stroke = {w = 1;};}",
"167 718 LINE {stroke = {w = 1;};}",
"184 737 LINE {stroke = {w = 1;};}",
"201 755 LINE {stroke = {w = 1;};}",
"220 772 LINE {stroke = {w = 1;};}",
"240 787 LINE {stroke = {w = 1;};}",
"261 801 LINE {stroke = {w = 1;};}",
"282 814 LINE {stroke = {w = 1;};}",
"305 825 LINE {stroke = {w = 1;};}",
"328 835 LINE {stroke = {w = 1;};}",
"351 844 LINE {stroke = {w = 1;};}",
"375 851 LINE {stroke = {w = 1;};}",
"400 856 LINE {stroke = {w = 1;};}",
"425 860 LINE {stroke = {w = 1;};}",
"450 862 LINE {stroke = {w = 1;};}",
"475 863 LINE {stroke = {w = 1;};}",
"475 464 LINE {stroke = {w = 1;};}",
"861 365 LINE {stroke = {w = 1;};}",
"854 341 LINE {stroke = {w = 1;};}",
"846 317 LINE {stroke = {w = 1;};}"
);
}
);
width = 950;
}
);
},
{
glyphname = two_percent.liga;
lastChange = "2021-11-14 20:15:01 +0000";
layers = (
{
layerId = "3603F491-BDB4-4F7B-A4F4-044CFF075AAF";
paths = (
{
closed = 1;
nodes = (
"223 931 OFFCURVE {stroke = {w = 1;};}",
"15 723 OFFCURVE {stroke = {w = 1;};}",
"15 466 CURVE {stroke = {w = 1;};}",
"15 209 OFFCURVE {stroke = {w = 1;};}",
"223 1 OFFCURVE {stroke = {w = 1;};}",
"480 1 CURVE {stroke = {w = 1;};}",
"736 1 OFFCURVE {stroke = {w = 1;};}",
"944 209 OFFCURVE {stroke = {w = 1;};}",
"944 466 CURVE {stroke = {w = 1;};}",
"944 723 OFFCURVE {stroke = {w = 1;};}",
"736 931 OFFCURVE {stroke = {w = 1;};}",
"480 931 CURVE {stroke = {w = 1;};}"
);
},
{
closed = 1;
nodes = (
"872 389 LINE {stroke = {w = 1;};}",
"866 365 LINE {stroke = {w = 1;};}",
"859 341 LINE {stroke = {w = 1;};}",
"851 317 LINE {stroke = {w = 1;};}",
"841 294 LINE {stroke = {w = 1;};}",
"829 272 LINE {stroke = {w = 1;};}",
"817 250 LINE {stroke = {w = 1;};}",
"802 230 LINE {stroke = {w = 1;};}",
"787 210 LINE {stroke = {w = 1;};}",
"770 191 LINE {stroke = {w = 1;};}",
"753 173 LINE {stroke = {w = 1;};}",
"734 157 LINE {stroke = {w = 1;};}",
"714 141 LINE {stroke = {w = 1;};}",
"693 127 LINE {stroke = {w = 1;};}",
"672 114 LINE {stroke = {w = 1;};}",
"649 103 LINE {stroke = {w = 1;};}",
"626 93 LINE {stroke = {w = 1;};}",
"603 85 LINE {stroke = {w = 1;};}",
"579 78 LINE {stroke = {w = 1;};}",
"554 72 LINE {stroke = {w = 1;};}",
"530 68 LINE {stroke = {w = 1;};}",
"505 66 LINE {stroke = {w = 1;};}",
"480 65 LINE {stroke = {w = 1;};}",
"455 66 LINE {stroke = {w = 1;};}",
"430 68 LINE {stroke = {w = 1;};}",
"405 72 LINE {stroke = {w = 1;};}",
"380 78 LINE {stroke = {w = 1;};}",
"356 85 LINE {stroke = {w = 1;};}",
"333 93 LINE {stroke = {w = 1;};}",
"310 103 LINE {stroke = {w = 1;};}",
"287 114 LINE {stroke = {w = 1;};}",
"266 127 LINE {stroke = {w = 1;};}",
"245 141 LINE {stroke = {w = 1;};}",
"225 157 LINE {stroke = {w = 1;};}",
"206 173 LINE {stroke = {w = 1;};}",
"189 191 LINE {stroke = {w = 1;};}",
"172 210 LINE {stroke = {w = 1;};}",
"157 230 LINE {stroke = {w = 1;};}",
"143 250 LINE {stroke = {w = 1;};}",
"130 272 LINE {stroke = {w = 1;};}",
"118 294 LINE {stroke = {w = 1;};}",
"109 317 LINE {stroke = {w = 1;};}",
"100 341 LINE {stroke = {w = 1;};}",
"93 365 LINE {stroke = {w = 1;};}",
"88 389 LINE {stroke = {w = 1;};}",
"84 414 LINE {stroke = {w = 1;};}",
"81 439 LINE {stroke = {w = 1;};}",
"80 464 LINE {stroke = {w = 1;};}",
"81 489 LINE {stroke = {w = 1;};}",
"84 514 LINE {stroke = {w = 1;};}",
"88 539 LINE {stroke = {w = 1;};}",
"93 563 LINE {stroke = {w = 1;};}",
"100 587 LINE {stroke = {w = 1;};}",
"109 611 LINE {stroke = {w = 1;};}",
"118 634 LINE {stroke = {w = 1;};}",
"130 656 LINE {stroke = {w = 1;};}",
"143 678 LINE {stroke = {w = 1;};}",
"157 699 LINE {stroke = {w = 1;};}",
"172 718 LINE {stroke = {w = 1;};}",
"189 737 LINE {stroke = {w = 1;};}",
"206 755 LINE {stroke = {w = 1;};}",
"225 772 LINE {stroke = {w = 1;};}",
"245 787 LINE {stroke = {w = 1;};}",
"266 801 LINE {stroke = {w = 1;};}",
"287 814 LINE {stroke = {w = 1;};}",
"310 825 LINE {stroke = {w = 1;};}",
"333 835 LINE {stroke = {w = 1;};}",
"356 844 LINE {stroke = {w = 1;};}",
"380 851 LINE {stroke = {w = 1;};}",
"405 856 LINE {stroke = {w = 1;};}",
"430 860 LINE {stroke = {w = 1;};}",
"455 862 LINE {stroke = {w = 1;};}",
"480 863 LINE {stroke = {w = 1;};}",
"480 464 LINE {stroke = {w = 1;};}",
"530 860 LINE {stroke = {w = 1;};}",
"554 856 LINE {stroke = {w = 1;};}",
"579 851 LINE {stroke = {w = 1;};}",
"603 844 LINE {stroke = {w = 1;};}",
"626 835 LINE {stroke = {w = 1;};}",
"649 825 LINE {stroke = {w = 1;};}",
"672 814 LINE {stroke = {w = 1;};}",
"693 801 LINE {stroke = {w = 1;};}",
"714 787 LINE {stroke = {w = 1;};}",
"734 772 LINE {stroke = {w = 1;};}",
"753 755 LINE {stroke = {w = 1;};}",
"770 737 LINE {stroke = {w = 1;};}",
"787 718 LINE {stroke = {w = 1;};}",
"802 699 LINE {stroke = {w = 1;};}",
"817 678 LINE {stroke = {w = 1;};}",
"829 656 LINE {stroke = {w = 1;};}",
"841 634 LINE {stroke = {w = 1;};}",
"851 611 LINE {stroke = {w = 1;};}",
"859 587 LINE {stroke = {w = 1;};}",
"866 563 LINE {stroke = {w = 1;};}",
"872 539 LINE {stroke = {w = 1;};}",
"875 514 LINE {stroke = {w = 1;};}",
"878 489 LINE {stroke = {w = 1;};}",
"879 464 LINE {stroke = {w = 1;};}",
"878 439 LINE {stroke = {w = 1;};}",
"875 414 LINE {stroke = {w = 1;};}"
);
}
);
width = 959;
}
);
},
{
glyphname = three_zero_percent.liga;
lastChange = "2021-11-14 20:48:39 +0000";
layers = (
{
layerId = "3603F491-BDB4-4F7B-A4F4-044CFF075AAF";
paths = (
{
closed = 1;
nodes = (
"218 931 OFFCURVE {stroke = {w = 1;};}",
"10 723 OFFCURVE {stroke = {w = 1;};}",
"10 466 CURVE {stroke = {w = 1;};}",
"10 209 OFFCURVE {stroke = {w = 1;};}",
"218 1 OFFCURVE {stroke = {w = 1;};}",
"475 1 CURVE {stroke = {w = 1;};}",
"731 1 OFFCURVE {stroke = {w = 1;};}",
"939 209 OFFCURVE {stroke = {w = 1;};}",
"939 466 CURVE {stroke = {w = 1;};}",
"939 723 OFFCURVE {stroke = {w = 1;};}",
"731 931 OFFCURVE {stroke = {w = 1;};}",
"475 931 CURVE {stroke = {w = 1;};}"
);
},
{
closed = 1;
nodes = (
"824 272 LINE {stroke = {w = 1;};}",
"812 250 LINE {stroke = {w = 1;};}",
"797 230 LINE {stroke = {w = 1;};}",
"782 210 LINE {stroke = {w = 1;};}",
"765 191 LINE {stroke = {w = 1;};}",
"748 173 LINE {stroke = {w = 1;};}",
"729 157 LINE {stroke = {w = 1;};}",
"709 141 LINE {stroke = {w = 1;};}",
"688 127 LINE {stroke = {w = 1;};}",
"667 114 LINE {stroke = {w = 1;};}",
"644 103 LINE {stroke = {w = 1;};}",
"621 93 LINE {stroke = {w = 1;};}",
"598 85 LINE {stroke = {w = 1;};}",
"574 78 LINE {stroke = {w = 1;};}",
"549 72 LINE {stroke = {w = 1;};}",
"525 68 LINE {stroke = {w = 1;};}",
"500 66 LINE {stroke = {w = 1;};}",
"475 65 LINE {stroke = {w = 1;};}",
"450 66 LINE {stroke = {w = 1;};}",
"425 68 LINE {stroke = {w = 1;};}",
"400 72 LINE {stroke = {w = 1;};}",
"375 78 LINE {stroke = {w = 1;};}",
"351 85 LINE {stroke = {w = 1;};}",
"328 93 LINE {stroke = {w = 1;};}",
"305 103 LINE {stroke = {w = 1;};}",
"282 114 LINE {stroke = {w = 1;};}",
"261 127 LINE {stroke = {w = 1;};}",
"240 141 LINE {stroke = {w = 1;};}",
"220 157 LINE {stroke = {w = 1;};}",
"201 173 LINE {stroke = {w = 1;};}",
"184 191 LINE {stroke = {w = 1;};}",
"167 210 LINE {stroke = {w = 1;};}",
"152 230 LINE {stroke = {w = 1;};}",
"138 250 LINE {stroke = {w = 1;};}",
"125 272 LINE {stroke = {w = 1;};}",
"113 294 LINE {stroke = {w = 1;};}",
"104 317 LINE {stroke = {w = 1;};}",
"95 341 LINE {stroke = {w = 1;};}",
"88 365 LINE {stroke = {w = 1;};}",
"83 389 LINE {stroke = {w = 1;};}",
"79 414 LINE {stroke = {w = 1;};}",
"76 439 LINE {stroke = {w = 1;};}",
"75 464 LINE {stroke = {w = 1;};}",
"76 489 LINE {stroke = {w = 1;};}",
"79 514 LINE {stroke = {w = 1;};}",
"83 539 LINE {stroke = {w = 1;};}",
"88 563 LINE {stroke = {w = 1;};}",
"95 587 LINE {stroke = {w = 1;};}",
"104 611 LINE {stroke = {w = 1;};}",
"113 634 LINE {stroke = {w = 1;};}",
"125 656 LINE {stroke = {w = 1;};}",
"138 678 LINE {stroke = {w = 1;};}",
"152 699 LINE {stroke = {w = 1;};}",
"167 718 LINE {stroke = {w = 1;};}",
"184 737 LINE {stroke = {w = 1;};}",
"201 755 LINE {stroke = {w = 1;};}",
"220 772 LINE {stroke = {w = 1;};}",
"240 787 LINE {stroke = {w = 1;};}",
"261 801 LINE {stroke = {w = 1;};}",
"282 814 LINE {stroke = {w = 1;};}",
"305 825 LINE {stroke = {w = 1;};}",
"328 835 LINE {stroke = {w = 1;};}",
"351 844 LINE {stroke = {w = 1;};}",
"375 851 LINE {stroke = {w = 1;};}",
"400 856 LINE {stroke = {w = 1;};}",
"425 860 LINE {stroke = {w = 1;};}",
"450 862 LINE {stroke = {w = 1;};}",
"475 863 LINE {stroke = {w = 1;};}",
"475 464 LINE {stroke = {w = 1;};}",
"854 341 LINE {stroke = {w = 1;};}",
"846 317 LINE {stroke = {w = 1;};}",
"836 294 LINE {stroke = {w = 1;};}"
);
}
);
width = 950;
}
);
},
{
glyphname = three_one_percent.liga;
lastChange = "2021-11-14 20:50:46 +0000";
layers = (
{
layerId = "3603F491-BDB4-4F7B-A4F4-044CFF075AAF";
paths = (
{
closed = 1;
nodes = (
"218 931 OFFCURVE {stroke = {w = 1;};}",
"9 722 OFFCURVE {stroke = {w = 1;};}",
"10 466 CURVE {stroke = {w = 1;};}",
"10 209 OFFCURVE {stroke = {w = 1;};}",
"218 1 OFFCURVE {stroke = {w = 1;};}",
"474 1 CURVE {stroke = {w = 1;};}",
"731 1 OFFCURVE {stroke = {w = 1;};}",
"939 209 OFFCURVE {stroke = {w = 1;};}",
"939 466 CURVE {stroke = {w = 1;};}",
"939 722 OFFCURVE {stroke = {w = 1;};}",
"731 931 OFFCURVE {stroke = {w = 1;};}",
"474 931 CURVE {stroke = {w = 1;};}"
);
},
{
closed = 1;
nodes = (
"811 250 LINE {stroke = {w = 1;};}",
"797 229 LINE {stroke = {w = 1;};}",
"782 209 LINE {stroke = {w = 1;};}",
"765 191 LINE {stroke = {w = 1;};}",
"747 173 LINE {stroke = {w = 1;};}",
"729 156 LINE {stroke = {w = 1;};}",
"709 141 LINE {stroke = {w = 1;};}",
"688 127 LINE {stroke = {w = 1;};}",
"667 114 LINE {stroke = {w = 1;};}",
"644 103 LINE {stroke = {w = 1;};}",
"621 93 LINE {stroke = {w = 1;};}",
"598 84 LINE {stroke = {w = 1;};}",
"574 77 LINE {stroke = {w = 1;};}",
"549 72 LINE {stroke = {w = 1;};}",
"524 68 LINE {stroke = {w = 1;};}",
"499 65 LINE {stroke = {w = 1;};}",
"474 65 LINE {stroke = {w = 1;};}",
"449 65 LINE {stroke = {w = 1;};}",
"424 68 LINE {stroke = {w = 1;};}",
"400 72 LINE {stroke = {w = 1;};}",
"375 77 LINE {stroke = {w = 1;};}",
"351 84 LINE {stroke = {w = 1;};}",
"327 93 LINE {stroke = {w = 1;};}",
"304 103 LINE {stroke = {w = 1;};}",
"282 114 LINE {stroke = {w = 1;};}",
"260 127 LINE {stroke = {w = 1;};}",
"240 141 LINE {stroke = {w = 1;};}",
"220 156 LINE {stroke = {w = 1;};}",
"201 173 LINE {stroke = {w = 1;};}",
"183 191 LINE {stroke = {w = 1;};}",
"167 209 LINE {stroke = {w = 1;};}",
"151 229 LINE {stroke = {w = 1;};}",
"137 250 LINE {stroke = {w = 1;};}",
"125 272 LINE {stroke = {w = 1;};}",
"113 294 LINE {stroke = {w = 1;};}",
"103 317 LINE {stroke = {w = 1;};}",
"95 340 LINE {stroke = {w = 1;};}",
"88 365 LINE {stroke = {w = 1;};}",
"82 389 LINE {stroke = {w = 1;};}",
"78 414 LINE {stroke = {w = 1;};}",
"76 439 LINE {stroke = {w = 1;};}",
"75 464 LINE {stroke = {w = 1;};}",
"76 489 LINE {stroke = {w = 1;};}",
"78 514 LINE {stroke = {w = 1;};}",
"82 539 LINE {stroke = {w = 1;};}",
"88 563 LINE {stroke = {w = 1;};}",
"95 587 LINE {stroke = {w = 1;};}",
"103 611 LINE {stroke = {w = 1;};}",
"113 634 LINE {stroke = {w = 1;};}",
"125 656 LINE {stroke = {w = 1;};}",
"137 678 LINE {stroke = {w = 1;};}",
"151 698 LINE {stroke = {w = 1;};}",
"167 718 LINE {stroke = {w = 1;};}",
"183 737 LINE {stroke = {w = 1;};}",
"201 755 LINE {stroke = {w = 1;};}",
"220 771 LINE {stroke = {w = 1;};}",
"240 787 LINE {stroke = {w = 1;};}",
"260 801 LINE {stroke = {w = 1;};}",
"282 813 LINE {stroke = {w = 1;};}",
"304 825 LINE {stroke = {w = 1;};}",
"327 835 LINE {stroke = {w = 1;};}",
"351 843 LINE {stroke = {w = 1;};}",
"375 850 LINE {stroke = {w = 1;};}",
"400 856 LINE {stroke = {w = 1;};}",
"424 860 LINE {stroke = {w = 1;};}",
"449 862 LINE {stroke = {w = 1;};}",
"474 863 LINE {stroke = {w = 1;};}",
"474 464 LINE {stroke = {w = 1;};}",
"845 317 LINE {stroke = {w = 1;};}",
"835 294 LINE {stroke = {w = 1;};}",
"824 272 LINE {stroke = {w = 1;};}"
);
}
);
width = 950;
}
);
},
{
glyphname = three_two_percent.liga;
lastChange = "2021-11-14 20:51:55 +0000";
layers = (
{
layerId = "3603F491-BDB4-4F7B-A4F4-044CFF075AAF";
paths = (
{
closed = 1;
nodes = (
"218 931 OFFCURVE {stroke = {w = 1;};}",
"10 723 OFFCURVE {stroke = {w = 1;};}",
"10 466 CURVE {stroke = {w = 1;};}",
"10 209 OFFCURVE {stroke = {w = 1;};}",
"218 1 OFFCURVE {stroke = {w = 1;};}",
"475 1 CURVE {stroke = {w = 1;};}",
"731 1 OFFCURVE {stroke = {w = 1;};}",
"939 209 OFFCURVE {stroke = {w = 1;};}",
"939 466 CURVE {stroke = {w = 1;};}",
"939 723 OFFCURVE {stroke = {w = 1;};}",
"731 931 OFFCURVE {stroke = {w = 1;};}",
"475 931 CURVE {stroke = {w = 1;};}"
);
},
{
closed = 1;
nodes = (
"797 230 LINE {stroke = {w = 1;};}",
"782 210 LINE {stroke = {w = 1;};}",
"765 191 LINE {stroke = {w = 1;};}",
"748 173 LINE {stroke = {w = 1;};}",
"729 157 LINE {stroke = {w = 1;};}",
"709 141 LINE {stroke = {w = 1;};}",
"688 127 LINE {stroke = {w = 1;};}",
"667 114 LINE {stroke = {w = 1;};}",
"644 103 LINE {stroke = {w = 1;};}",
"621 93 LINE {stroke = {w = 1;};}",
"598 85 LINE {stroke = {w = 1;};}",
"574 78 LINE {stroke = {w = 1;};}",
"549 72 LINE {stroke = {w = 1;};}",
"525 68 LINE {stroke = {w = 1;};}",
"500 66 LINE {stroke = {w = 1;};}",
"475 65 LINE {stroke = {w = 1;};}",
"450 66 LINE {stroke = {w = 1;};}",
"425 68 LINE {stroke = {w = 1;};}",
"400 72 LINE {stroke = {w = 1;};}",
"375 78 LINE {stroke = {w = 1;};}",
"351 85 LINE {stroke = {w = 1;};}",
"328 93 LINE {stroke = {w = 1;};}",
"305 103 LINE {stroke = {w = 1;};}",
"282 114 LINE {stroke = {w = 1;};}",
"261 127 LINE {stroke = {w = 1;};}",
"240 141 LINE {stroke = {w = 1;};}",
"220 157 LINE {stroke = {w = 1;};}",
"201 173 LINE {stroke = {w = 1;};}",
"184 191 LINE {stroke = {w = 1;};}",
"167 210 LINE {stroke = {w = 1;};}",
"152 230 LINE {stroke = {w = 1;};}",
"138 250 LINE {stroke = {w = 1;};}",
"125 272 LINE {stroke = {w = 1;};}",
"113 294 LINE {stroke = {w = 1;};}",
"104 317 LINE {stroke = {w = 1;};}",
"95 341 LINE {stroke = {w = 1;};}",
"88 365 LINE {stroke = {w = 1;};}",
"83 389 LINE {stroke = {w = 1;};}",
"79 414 LINE {stroke = {w = 1;};}",
"76 439 LINE {stroke = {w = 1;};}",
"75 464 LINE {stroke = {w = 1;};}",
"76 489 LINE {stroke = {w = 1;};}",
"79 514 LINE {stroke = {w = 1;};}",
"83 539 LINE {stroke = {w = 1;};}",
"88 563 LINE {stroke = {w = 1;};}",
"95 587 LINE {stroke = {w = 1;};}",
"104 611 LINE {stroke = {w = 1;};}",
"113 634 LINE {stroke = {w = 1;};}",
"125 656 LINE {stroke = {w = 1;};}",
"138 678 LINE {stroke = {w = 1;};}",
"152 699 LINE {stroke = {w = 1;};}",
"167 718 LINE {stroke = {w = 1;};}",
"184 737 LINE {stroke = {w = 1;};}",
"201 755 LINE {stroke = {w = 1;};}",
"220 772 LINE {stroke = {w = 1;};}",
"240 787 LINE {stroke = {w = 1;};}",
"261 801 LINE {stroke = {w = 1;};}",
"282 814 LINE {stroke = {w = 1;};}",
"305 825 LINE {stroke = {w = 1;};}",
"328 835 LINE {stroke = {w = 1;};}",
"351 844 LINE {stroke = {w = 1;};}",
"375 851 LINE {stroke = {w = 1;};}",
"400 856 LINE {stroke = {w = 1;};}",
"425 860 LINE {stroke = {w = 1;};}",
"450 862 LINE {stroke = {w = 1;};}",
"475 863 LINE {stroke = {w = 1;};}",
"475 464 LINE {stroke = {w = 1;};}",
"836 294 LINE {stroke = {w = 1;};}",
"824 272 LINE {stroke = {w = 1;};}",
"812 250 LINE {stroke = {w = 1;};}"
);
}
);
width = 950;
}
);
},
{
glyphname = three_three_percent.liga;
lastChange = "2021-11-14 20:52:50 +0000";
layers = (
{
layerId = "3603F491-BDB4-4F7B-A4F4-044CFF075AAF";
paths = (
{
closed = 1;
nodes = (
"218 931 OFFCURVE {stroke = {w = 1;};}",
"9 722 OFFCURVE {stroke = {w = 1;};}",
"10 466 CURVE {stroke = {w = 1;};}",
"10 209 OFFCURVE {stroke = {w = 1;};}",
"218 1 OFFCURVE {stroke = {w = 1;};}",
"474 1 CURVE {stroke = {w = 1;};}",
"731 1 OFFCURVE {stroke = {w = 1;};}",
"939 209 OFFCURVE {stroke = {w = 1;};}",
"939 466 CURVE {stroke = {w = 1;};}",
"939 722 OFFCURVE {stroke = {w = 1;};}",
"731 931 OFFCURVE {stroke = {w = 1;};}",
"474 931 CURVE {stroke = {w = 1;};}"
);
},
{
closed = 1;
nodes = (
"782 209 LINE {stroke = {w = 1;};}",
"765 191 LINE {stroke = {w = 1;};}",
"747 173 LINE {stroke = {w = 1;};}",
"729 156 LINE {stroke = {w = 1;};}",
"709 141 LINE {stroke = {w = 1;};}",
"688 127 LINE {stroke = {w = 1;};}",
"667 114 LINE {stroke = {w = 1;};}",
"644 103 LINE {stroke = {w = 1;};}",
"621 93 LINE {stroke = {w = 1;};}",
"598 84 LINE {stroke = {w = 1;};}",
"574 77 LINE {stroke = {w = 1;};}",
"549 72 LINE {stroke = {w = 1;};}",
"524 68 LINE {stroke = {w = 1;};}",
"499 65 LINE {stroke = {w = 1;};}",
"474 65 LINE {stroke = {w = 1;};}",
"449 65 LINE {stroke = {w = 1;};}",
"424 68 LINE {stroke = {w = 1;};}",
"400 72 LINE {stroke = {w = 1;};}",
"375 77 LINE {stroke = {w = 1;};}",
"351 84 LINE {stroke = {w = 1;};}",
"327 93 LINE {stroke = {w = 1;};}",
"304 103 LINE {stroke = {w = 1;};}",
"282 114 LINE {stroke = {w = 1;};}",
"260 127 LINE {stroke = {w = 1;};}",
"240 141 LINE {stroke = {w = 1;};}",
"220 156 LINE {stroke = {w = 1;};}",
"201 173 LINE {stroke = {w = 1;};}",
"183 191 LINE {stroke = {w = 1;};}",
"167 209 LINE {stroke = {w = 1;};}",
"151 229 LINE {stroke = {w = 1;};}",
"137 250 LINE {stroke = {w = 1;};}",
"125 272 LINE {stroke = {w = 1;};}",
"113 294 LINE {stroke = {w = 1;};}",
"103 317 LINE {stroke = {w = 1;};}",
"95 340 LINE {stroke = {w = 1;};}",
"88 365 LINE {stroke = {w = 1;};}",
"82 389 LINE {stroke = {w = 1;};}",
"78 414 LINE {stroke = {w = 1;};}",
"76 439 LINE {stroke = {w = 1;};}",
"75 464 LINE {stroke = {w = 1;};}",
"76 489 LINE {stroke = {w = 1;};}",
"78 514 LINE {stroke = {w = 1;};}",
"82 539 LINE {stroke = {w = 1;};}",
"88 563 LINE {stroke = {w = 1;};}",
"95 587 LINE {stroke = {w = 1;};}",
"103 611 LINE {stroke = {w = 1;};}",
"113 634 LINE {stroke = {w = 1;};}",
"125 656 LINE {stroke = {w = 1;};}",
"137 678 LINE {stroke = {w = 1;};}",
"151 698 LINE {stroke = {w = 1;};}",
"167 718 LINE {stroke = {w = 1;};}",
"183 737 LINE {stroke = {w = 1;};}",
"201 755 LINE {stroke = {w = 1;};}",
"220 771 LINE {stroke = {w = 1;};}",
"240 787 LINE {stroke = {w = 1;};}",
"260 801 LINE {stroke = {w = 1;};}",
"282 813 LINE {stroke = {w = 1;};}",
"304 825 LINE {stroke = {w = 1;};}",
"327 835 LINE {stroke = {w = 1;};}",
"351 843 LINE {stroke = {w = 1;};}",
"375 850 LINE {stroke = {w = 1;};}",
"400 856 LINE {stroke = {w = 1;};}",
"424 860 LINE {stroke = {w = 1;};}",
"449 862 LINE {stroke = {w = 1;};}",
"474 863 LINE {stroke = {w = 1;};}",
"474 464 LINE {stroke = {w = 1;};}",
"824 272 LINE {stroke = {w = 1;};}",
"811 250 LINE {stroke = {w = 1;};}",
"797 229 LINE {stroke = {w = 1;};}"
);
}
);
width = 950;
}
);
},
{
glyphname = three_four_percent.liga;
lastChange = "2021-11-14 20:53:46 +0000";
layers = (
{
layerId = "3603F491-BDB4-4F7B-A4F4-044CFF075AAF";
paths = (
{
closed = 1;
nodes = (
"218 931 OFFCURVE {stroke = {w = 1;};}",
"10 723 OFFCURVE {stroke = {w = 1;};}",
"10 466 CURVE {stroke = {w = 1;};}",
"10 209 OFFCURVE {stroke = {w = 1;};}",
"218 1 OFFCURVE {stroke = {w = 1;};}",
"475 1 CURVE {stroke = {w = 1;};}",
"731 1 OFFCURVE {stroke = {w = 1;};}",
"939 209 OFFCURVE {stroke = {w = 1;};}",
"939 466 CURVE {stroke = {w = 1;};}",
"939 723 OFFCURVE {stroke = {w = 1;};}",
"731 931 OFFCURVE {stroke = {w = 1;};}",
"475 931 CURVE {stroke = {w = 1;};}"
);
},
{
closed = 1;
nodes = (
"782 210 LINE {stroke = {w = 1;};}",
"765 191 LINE {stroke = {w = 1;};}",
"748 173 LINE {stroke = {w = 1;};}",
"729 157 LINE {stroke = {w = 1;};}",
"709 141 LINE {stroke = {w = 1;};}",
"688 127 LINE {stroke = {w = 1;};}",
"667 114 LINE {stroke = {w = 1;};}",
"644 103 LINE {stroke = {w = 1;};}",
"621 93 LINE {stroke = {w = 1;};}",
"598 85 LINE {stroke = {w = 1;};}",
"574 78 LINE {stroke = {w = 1;};}",
"549 72 LINE {stroke = {w = 1;};}",
"525 68 LINE {stroke = {w = 1;};}",
"500 66 LINE {stroke = {w = 1;};}",
"475 65 LINE {stroke = {w = 1;};}",
"450 66 LINE {stroke = {w = 1;};}",
"425 68 LINE {stroke = {w = 1;};}",
"400 72 LINE {stroke = {w = 1;};}",
"375 78 LINE {stroke = {w = 1;};}",
"351 85 LINE {stroke = {w = 1;};}",
"328 93 LINE {stroke = {w = 1;};}",
"305 103 LINE {stroke = {w = 1;};}",
"282 114 LINE {stroke = {w = 1;};}",
"261 127 LINE {stroke = {w = 1;};}",
"240 141 LINE {stroke = {w = 1;};}",
"220 157 LINE {stroke = {w = 1;};}",
"201 173 LINE {stroke = {w = 1;};}",
"184 191 LINE {stroke = {w = 1;};}",
"167 210 LINE {stroke = {w = 1;};}",
"152 230 LINE {stroke = {w = 1;};}",
"138 250 LINE {stroke = {w = 1;};}",
"125 272 LINE {stroke = {w = 1;};}",
"113 294 LINE {stroke = {w = 1;};}",
"104 317 LINE {stroke = {w = 1;};}",
"95 341 LINE {stroke = {w = 1;};}",
"88 365 LINE {stroke = {w = 1;};}",
"83 389 LINE {stroke = {w = 1;};}",
"79 414 LINE {stroke = {w = 1;};}",
"76 439 LINE {stroke = {w = 1;};}",
"75 464 LINE {stroke = {w = 1;};}",
"76 489 LINE {stroke = {w = 1;};}",
"79 514 LINE {stroke = {w = 1;};}",
"83 539 LINE {stroke = {w = 1;};}",
"88 563 LINE {stroke = {w = 1;};}",
"95 587 LINE {stroke = {w = 1;};}",
"104 611 LINE {stroke = {w = 1;};}",
"113 634 LINE {stroke = {w = 1;};}",
"125 656 LINE {stroke = {w = 1;};}",
"138 678 LINE {stroke = {w = 1;};}",
"152 699 LINE {stroke = {w = 1;};}",
"167 718 LINE {stroke = {w = 1;};}",
"184 737 LINE {stroke = {w = 1;};}",
"201 755 LINE {stroke = {w = 1;};}",
"220 772 LINE {stroke = {w = 1;};}",
"240 787 LINE {stroke = {w = 1;};}",
"261 801 LINE {stroke = {w = 1;};}",
"282 814 LINE {stroke = {w = 1;};}",
"305 825 LINE {stroke = {w = 1;};}",
"328 835 LINE {stroke = {w = 1;};}",
"351 844 LINE {stroke = {w = 1;};}",
"375 851 LINE {stroke = {w = 1;};}",
"400 856 LINE {stroke = {w = 1;};}",
"425 860 LINE {stroke = {w = 1;};}",
"450 862 LINE {stroke = {w = 1;};}",
"475 863 LINE {stroke = {w = 1;};}",
"475 464 LINE {stroke = {w = 1;};}",
"812 250 LINE {stroke = {w = 1;};}",
"797 230 LINE {stroke = {w = 1;};}"
);
}
);
width = 950;
}
);
},
{
glyphname = three_five_percent.liga;
lastChange = "2021-11-14 20:54:50 +0000";
layers = (
{
layerId = "3603F491-BDB4-4F7B-A4F4-044CFF075AAF";
paths = (
{
closed = 1;
nodes = (
"218 931 OFFCURVE {stroke = {w = 1;};}",
"9 722 OFFCURVE {stroke = {w = 1;};}",
"10 466 CURVE {stroke = {w = 1;};}",
"10 209 OFFCURVE {stroke = {w = 1;};}",
"218 1 OFFCURVE {stroke = {w = 1;};}",
"474 1 CURVE {stroke = {w = 1;};}",
"731 1 OFFCURVE {stroke = {w = 1;};}",
"939 209 OFFCURVE {stroke = {w = 1;};}",
"939 466 CURVE {stroke = {w = 1;};}",
"939 722 OFFCURVE {stroke = {w = 1;};}",
"731 931 OFFCURVE {stroke = {w = 1;};}",
"474 931 CURVE {stroke = {w = 1;};}"
);
},
{
closed = 1;
nodes = (
"765 191 LINE {stroke = {w = 1;};}",
"747 173 LINE {stroke = {w = 1;};}",
"729 156 LINE {stroke = {w = 1;};}",
"709 141 LINE {stroke = {w = 1;};}",
"688 127 LINE {stroke = {w = 1;};}",
"667 114 LINE {stroke = {w = 1;};}",
"644 103 LINE {stroke = {w = 1;};}",
"621 93 LINE {stroke = {w = 1;};}",
"598 84 LINE {stroke = {w = 1;};}",
"574 77 LINE {stroke = {w = 1;};}",
"549 72 LINE {stroke = {w = 1;};}",
"524 68 LINE {stroke = {w = 1;};}",
"499 65 LINE {stroke = {w = 1;};}",
"474 65 LINE {stroke = {w = 1;};}",
"449 65 LINE {stroke = {w = 1;};}",
"424 68 LINE {stroke = {w = 1;};}",
"400 72 LINE {stroke = {w = 1;};}",
"375 77 LINE {stroke = {w = 1;};}",
"351 84 LINE {stroke = {w = 1;};}",
"327 93 LINE {stroke = {w = 1;};}",
"304 103 LINE {stroke = {w = 1;};}",
"282 114 LINE {stroke = {w = 1;};}",
"260 127 LINE {stroke = {w = 1;};}",
"240 141 LINE {stroke = {w = 1;};}",
"220 156 LINE {stroke = {w = 1;};}",
"201 173 LINE {stroke = {w = 1;};}",
"183 191 LINE {stroke = {w = 1;};}",
"167 209 LINE {stroke = {w = 1;};}",
"151 229 LINE {stroke = {w = 1;};}",
"137 250 LINE {stroke = {w = 1;};}",
"125 272 LINE {stroke = {w = 1;};}",
"113 294 LINE {stroke = {w = 1;};}",
"103 317 LINE {stroke = {w = 1;};}",
"95 340 LINE {stroke = {w = 1;};}",
"88 365 LINE {stroke = {w = 1;};}",
"82 389 LINE {stroke = {w = 1;};}",
"78 414 LINE {stroke = {w = 1;};}",
"76 439 LINE {stroke = {w = 1;};}",
"75 464 LINE {stroke = {w = 1;};}",
"76 489 LINE {stroke = {w = 1;};}",
"78 514 LINE {stroke = {w = 1;};}",
"82 539 LINE {stroke = {w = 1;};}",
"88 563 LINE {stroke = {w = 1;};}",
"95 587 LINE {stroke = {w = 1;};}",
"103 611 LINE {stroke = {w = 1;};}",
"113 634 LINE {stroke = {w = 1;};}",
"125 656 LINE {stroke = {w = 1;};}",
"137 678 LINE {stroke = {w = 1;};}",
"151 698 LINE {stroke = {w = 1;};}",
"167 718 LINE {stroke = {w = 1;};}",
"183 737 LINE {stroke = {w = 1;};}",
"201 755 LINE {stroke = {w = 1;};}",
"220 771 LINE {stroke = {w = 1;};}",
"240 787 LINE {stroke = {w = 1;};}",
"260 801 LINE {stroke = {w = 1;};}",
"282 813 LINE {stroke = {w = 1;};}",
"304 825 LINE {stroke = {w = 1;};}",
"327 835 LINE {stroke = {w = 1;};}",
"351 843 LINE {stroke = {w = 1;};}",
"375 850 LINE {stroke = {w = 1;};}",
"400 856 LINE {stroke = {w = 1;};}",
"424 860 LINE {stroke = {w = 1;};}",
"449 862 LINE {stroke = {w = 1;};}",
"474 863 LINE {stroke = {w = 1;};}",
"474 464 LINE {stroke = {w = 1;};}",
"797 229 LINE {stroke = {w = 1;};}",
"782 209 LINE {stroke = {w = 1;};}"
);
}
);
width = 950;
}
);
},
{
glyphname = three_six_percent.liga;
lastChange = "2021-11-14 20:55:45 +0000";
layers = (
{
layerId = "3603F491-BDB4-4F7B-A4F4-044CFF075AAF";
paths = (
{
closed = 1;
nodes = (
"218 931 OFFCURVE {stroke = {w = 1;};}",
"9 722 OFFCURVE {stroke = {w = 1;};}",
"10 466 CURVE {stroke = {w = 1;};}",
"10 209 OFFCURVE {stroke = {w = 1;};}",
"218 1 OFFCURVE {stroke = {w = 1;};}",
"474 1 CURVE {stroke = {w = 1;};}",
"731 1 OFFCURVE {stroke = {w = 1;};}",
"939 209 OFFCURVE {stroke = {w = 1;};}",
"939 466 CURVE {stroke = {w = 1;};}",
"939 722 OFFCURVE {stroke = {w = 1;};}",
"731 931 OFFCURVE {stroke = {w = 1;};}",
"474 931 CURVE {stroke = {w = 1;};}"
);
},
{
closed = 1;
nodes = (
"747 173 LINE {stroke = {w = 1;};}",
"729 156 LINE {stroke = {w = 1;};}",
"709 141 LINE {stroke = {w = 1;};}",
"688 127 LINE {stroke = {w = 1;};}",
"667 114 LINE {stroke = {w = 1;};}",
"644 103 LINE {stroke = {w = 1;};}",
"621 93 LINE {stroke = {w = 1;};}",
"598 84 LINE {stroke = {w = 1;};}",
"574 77 LINE {stroke = {w = 1;};}",
"549 72 LINE {stroke = {w = 1;};}",
"524 68 LINE {stroke = {w = 1;};}",
"499 65 LINE {stroke = {w = 1;};}",
"474 65 LINE {stroke = {w = 1;};}",
"449 65 LINE {stroke = {w = 1;};}",
"424 68 LINE {stroke = {w = 1;};}",
"400 72 LINE {stroke = {w = 1;};}",
"375 77 LINE {stroke = {w = 1;};}",
"351 84 LINE {stroke = {w = 1;};}",
"327 93 LINE {stroke = {w = 1;};}",
"304 103 LINE {stroke = {w = 1;};}",
"282 114 LINE {stroke = {w = 1;};}",
"260 127 LINE {stroke = {w = 1;};}",
"240 141 LINE {stroke = {w = 1;};}",
"220 156 LINE {stroke = {w = 1;};}",
"201 173 LINE {stroke = {w = 1;};}",
"183 191 LINE {stroke = {w = 1;};}",
"167 209 LINE {stroke = {w = 1;};}",
"151 229 LINE {stroke = {w = 1;};}",
"137 250 LINE {stroke = {w = 1;};}",
"125 272 LINE {stroke = {w = 1;};}",
"113 294 LINE {stroke = {w = 1;};}",
"103 317 LINE {stroke = {w = 1;};}",
"95 340 LINE {stroke = {w = 1;};}",
"88 365 LINE {stroke = {w = 1;};}",
"82 389 LINE {stroke = {w = 1;};}",
"78 414 LINE {stroke = {w = 1;};}",
"76 439 LINE {stroke = {w = 1;};}",
"75 464 LINE {stroke = {w = 1;};}",
"76 489 LINE {stroke = {w = 1;};}",
"78 514 LINE {stroke = {w = 1;};}",
"82 539 LINE {stroke = {w = 1;};}",
"88 563 LINE {stroke = {w = 1;};}",
"95 587 LINE {stroke = {w = 1;};}",
"103 611 LINE {stroke = {w = 1;};}",
"113 634 LINE {stroke = {w = 1;};}",
"125 656 LINE {stroke = {w = 1;};}",
"137 678 LINE {stroke = {w = 1;};}",
"151 698 LINE {stroke = {w = 1;};}",
"167 718 LINE {stroke = {w = 1;};}",
"183 737 LINE {stroke = {w = 1;};}",
"201 755 LINE {stroke = {w = 1;};}",
"220 771 LINE {stroke = {w = 1;};}",
"240 787 LINE {stroke = {w = 1;};}",
"260 801 LINE {stroke = {w = 1;};}",
"282 813 LINE {stroke = {w = 1;};}",
"304 825 LINE {stroke = {w = 1;};}",
"327 835 LINE {stroke = {w = 1;};}",
"351 843 LINE {stroke = {w = 1;};}",
"375 850 LINE {stroke = {w = 1;};}",
"400 856 LINE {stroke = {w = 1;};}",
"424 860 LINE {stroke = {w = 1;};}",
"449 862 LINE {stroke = {w = 1;};}",
"474 863 LINE {stroke = {w = 1;};}",
"474 464 LINE {stroke = {w = 1;};}",
"782 209 LINE {stroke = {w = 1;};}",
"765 191 LINE {stroke = {w = 1;};}"
);
}
);
width = 950;
}
);
},
{
glyphname = three_seven_percent.liga;
lastChange = "2021-11-14 20:56:43 +0000";
layers = (
{
layerId = "3603F491-BDB4-4F7B-A4F4-044CFF075AAF";
paths = (
{
closed = 1;
nodes = (
"218 931 OFFCURVE {stroke = {w = 1;};}",
"10 723 OFFCURVE {stroke = {w = 1;};}",
"10 466 CURVE {stroke = {w = 1;};}",
"10 209 OFFCURVE {stroke = {w = 1;};}",
"218 1 OFFCURVE {stroke = {w = 1;};}",
"475 1 CURVE {stroke = {w = 1;};}",
"731 1 OFFCURVE {stroke = {w = 1;};}",
"939 209 OFFCURVE {stroke = {w = 1;};}",
"939 466 CURVE {stroke = {w = 1;};}",
"939 723 OFFCURVE {stroke = {w = 1;};}",
"731 931 OFFCURVE {stroke = {w = 1;};}",
"475 931 CURVE {stroke = {w = 1;};}"
);
},
{
closed = 1;
nodes = (
"729 157 LINE {stroke = {w = 1;};}",
"709 141 LINE {stroke = {w = 1;};}",
"688 127 LINE {stroke = {w = 1;};}",
"667 114 LINE {stroke = {w = 1;};}",
"644 103 LINE {stroke = {w = 1;};}",
"621 93 LINE {stroke = {w = 1;};}",
"598 85 LINE {stroke = {w = 1;};}",
"574 78 LINE {stroke = {w = 1;};}",
"549 72 LINE {stroke = {w = 1;};}",
"525 68 LINE {stroke = {w = 1;};}",
"500 66 LINE {stroke = {w = 1;};}",
"475 65 LINE {stroke = {w = 1;};}",
"450 66 LINE {stroke = {w = 1;};}",
"425 68 LINE {stroke = {w = 1;};}",
"400 72 LINE {stroke = {w = 1;};}",
"375 78 LINE {stroke = {w = 1;};}",
"351 85 LINE {stroke = {w = 1;};}",
"328 93 LINE {stroke = {w = 1;};}",
"305 103 LINE {stroke = {w = 1;};}",
"282 114 LINE {stroke = {w = 1;};}",
"261 127 LINE {stroke = {w = 1;};}",
"240 141 LINE {stroke = {w = 1;};}",
"220 157 LINE {stroke = {w = 1;};}",
"201 173 LINE {stroke = {w = 1;};}",
"184 191 LINE {stroke = {w = 1;};}",
"167 210 LINE {stroke = {w = 1;};}",
"152 230 LINE {stroke = {w = 1;};}",
"138 250 LINE {stroke = {w = 1;};}",
"125 272 LINE {stroke = {w = 1;};}",
"113 294 LINE {stroke = {w = 1;};}",
"104 317 LINE {stroke = {w = 1;};}",
"95 341 LINE {stroke = {w = 1;};}",
"88 365 LINE {stroke = {w = 1;};}",
"83 389 LINE {stroke = {w = 1;};}",
"79 414 LINE {stroke = {w = 1;};}",
"76 439 LINE {stroke = {w = 1;};}",
"75 464 LINE {stroke = {w = 1;};}",
"76 489 LINE {stroke = {w = 1;};}",
"79 514 LINE {stroke = {w = 1;};}",
"83 539 LINE {stroke = {w = 1;};}",
"88 563 LINE {stroke = {w = 1;};}",
"95 587 LINE {stroke = {w = 1;};}",
"104 611 LINE {stroke = {w = 1;};}",
"113 634 LINE {stroke = {w = 1;};}",
"125 656 LINE {stroke = {w = 1;};}",
"138 678 LINE {stroke = {w = 1;};}",
"152 699 LINE {stroke = {w = 1;};}",
"167 718 LINE {stroke = {w = 1;};}",
"184 737 LINE {stroke = {w = 1;};}",
"201 755 LINE {stroke = {w = 1;};}",
"220 772 LINE {stroke = {w = 1;};}",
"240 787 LINE {stroke = {w = 1;};}",
"261 801 LINE {stroke = {w = 1;};}",
"282 814 LINE {stroke = {w = 1;};}",
"305 825 LINE {stroke = {w = 1;};}",
"328 835 LINE {stroke = {w = 1;};}",
"351 844 LINE {stroke = {w = 1;};}",
"375 851 LINE {stroke = {w = 1;};}",
"400 856 LINE {stroke = {w = 1;};}",
"425 860 LINE {stroke = {w = 1;};}",
"450 862 LINE {stroke = {w = 1;};}",
"475 863 LINE {stroke = {w = 1;};}",
"475 464 LINE {stroke = {w = 1;};}",
"765 191 LINE {stroke = {w = 1;};}",
"748 173 LINE {stroke = {w = 1;};}"
);
}
);
width = 950;
}
);
},
{
glyphname = three_eight_percent.liga;
lastChange = "2021-11-14 20:57:32 +0000";
layers = (
{
layerId = "3603F491-BDB4-4F7B-A4F4-044CFF075AAF";
paths = (
{
closed = 1;
nodes = (
"218 931 OFFCURVE {stroke = {w = 1;};}",
"9 722 OFFCURVE {stroke = {w = 1;};}",
"10 466 CURVE {stroke = {w = 1;};}",
"10 209 OFFCURVE {stroke = {w = 1;};}",
"218 1 OFFCURVE {stroke = {w = 1;};}",
"474 1 CURVE {stroke = {w = 1;};}",
"731 1 OFFCURVE {stroke = {w = 1;};}",
"939 209 OFFCURVE {stroke = {w = 1;};}",
"939 466 CURVE {stroke = {w = 1;};}",
"939 722 OFFCURVE {stroke = {w = 1;};}",
"731 931 OFFCURVE {stroke = {w = 1;};}",
"474 931 CURVE {stroke = {w = 1;};}"
);
},
{
closed = 1;
nodes = (
"709 141 LINE {stroke = {w = 1;};}",
"688 127 LINE {stroke = {w = 1;};}",
"667 114 LINE {stroke = {w = 1;};}",
"644 103 LINE {stroke = {w = 1;};}",
"621 93 LINE {stroke = {w = 1;};}",
"598 84 LINE {stroke = {w = 1;};}",
"574 77 LINE {stroke = {w = 1;};}",
"549 72 LINE {stroke = {w = 1;};}",
"524 68 LINE {stroke = {w = 1;};}",
"499 66 LINE {stroke = {w = 1;};}",
"474 65 LINE {stroke = {w = 1;};}",
"449 66 LINE {stroke = {w = 1;};}",
"424 68 LINE {stroke = {w = 1;};}",
"400 72 LINE {stroke = {w = 1;};}",
"375 77 LINE {stroke = {w = 1;};}",
"351 84 LINE {stroke = {w = 1;};}",
"327 93 LINE {stroke = {w = 1;};}",
"304 103 LINE {stroke = {w = 1;};}",
"282 114 LINE {stroke = {w = 1;};}",
"260 127 LINE {stroke = {w = 1;};}",
"240 141 LINE {stroke = {w = 1;};}",
"220 156 LINE {stroke = {w = 1;};}",
"201 173 LINE {stroke = {w = 1;};}",
"183 191 LINE {stroke = {w = 1;};}",
"167 209 LINE {stroke = {w = 1;};}",
"151 229 LINE {stroke = {w = 1;};}",
"137 250 LINE {stroke = {w = 1;};}",
"125 272 LINE {stroke = {w = 1;};}",
"113 294 LINE {stroke = {w = 1;};}",
"103 317 LINE {stroke = {w = 1;};}",
"95 340 LINE {stroke = {w = 1;};}",
"88 365 LINE {stroke = {w = 1;};}",
"82 389 LINE {stroke = {w = 1;};}",
"78 414 LINE {stroke = {w = 1;};}",
"76 439 LINE {stroke = {w = 1;};}",
"75 464 LINE {stroke = {w = 1;};}",
"76 489 LINE {stroke = {w = 1;};}",
"78 514 LINE {stroke = {w = 1;};}",
"82 539 LINE {stroke = {w = 1;};}",
"88 563 LINE {stroke = {w = 1;};}",
"95 587 LINE {stroke = {w = 1;};}",
"103 611 LINE {stroke = {w = 1;};}",
"113 634 LINE {stroke = {w = 1;};}",
"125 656 LINE {stroke = {w = 1;};}",
"137 678 LINE {stroke = {w = 1;};}",
"151 698 LINE {stroke = {w = 1;};}",
"167 718 LINE {stroke = {w = 1;};}",
"183 737 LINE {stroke = {w = 1;};}",
"201 755 LINE {stroke = {w = 1;};}",
"220 771 LINE {stroke = {w = 1;};}",
"240 787 LINE {stroke = {w = 1;};}",
"260 801 LINE {stroke = {w = 1;};}",
"282 813 LINE {stroke = {w = 1;};}",
"304 825 LINE {stroke = {w = 1;};}",
"327 835 LINE {stroke = {w = 1;};}",
"351 843 LINE {stroke = {w = 1;};}",
"375 850 LINE {stroke = {w = 1;};}",
"400 856 LINE {stroke = {w = 1;};}",
"424 860 LINE {stroke = {w = 1;};}",
"449 862 LINE {stroke = {w = 1;};}",
"474 863 LINE {stroke = {w = 1;};}",
"474 464 LINE {stroke = {w = 1;};}",
"747 173 LINE {stroke = {w = 1;};}",
"729 156 LINE {stroke = {w = 1;};}"
);
}
);
width = 950;
}
);
},
{
glyphname = three_nine_percent.liga;
lastChange = "2021-11-14 20:58:20 +0000";
layers = (
{
layerId = "3603F491-BDB4-4F7B-A4F4-044CFF075AAF";
paths = (
{
closed = 1;
nodes = (
"218 931 OFFCURVE {stroke = {w = 1;};}",
"9 722 OFFCURVE {stroke = {w = 1;};}",
"10 466 CURVE {stroke = {w = 1;};}",
"10 209 OFFCURVE {stroke = {w = 1;};}",
"218 1 OFFCURVE {stroke = {w = 1;};}",
"474 1 CURVE {stroke = {w = 1;};}",
"731 1 OFFCURVE {stroke = {w = 1;};}",
"939 209 OFFCURVE {stroke = {w = 1;};}",
"939 466 CURVE {stroke = {w = 1;};}",
"939 722 OFFCURVE {stroke = {w = 1;};}",
"731 931 OFFCURVE {stroke = {w = 1;};}",
"474 931 CURVE {stroke = {w = 1;};}"
);
},
{
closed = 1;
nodes = (
"688 127 LINE {stroke = {w = 1;};}",
"667 114 LINE {stroke = {w = 1;};}",
"644 103 LINE {stroke = {w = 1;};}",
"621 93 LINE {stroke = {w = 1;};}",
"598 84 LINE {stroke = {w = 1;};}",
"574 77 LINE {stroke = {w = 1;};}",
"549 72 LINE {stroke = {w = 1;};}",
"524 68 LINE {stroke = {w = 1;};}",
"499 65 LINE {stroke = {w = 1;};}",
"474 65 LINE {stroke = {w = 1;};}",
"449 65 LINE {stroke = {w = 1;};}",
"424 68 LINE {stroke = {w = 1;};}",
"400 72 LINE {stroke = {w = 1;};}",
"375 77 LINE {stroke = {w = 1;};}",
"351 84 LINE {stroke = {w = 1;};}",
"327 93 LINE {stroke = {w = 1;};}",
"304 103 LINE {stroke = {w = 1;};}",
"282 114 LINE {stroke = {w = 1;};}",
"260 127 LINE {stroke = {w = 1;};}",
"240 141 LINE {stroke = {w = 1;};}",
"220 156 LINE {stroke = {w = 1;};}",
"201 173 LINE {stroke = {w = 1;};}",
"183 191 LINE {stroke = {w = 1;};}",
"167 209 LINE {stroke = {w = 1;};}",
"151 229 LINE {stroke = {w = 1;};}",
"137 250 LINE {stroke = {w = 1;};}",
"125 272 LINE {stroke = {w = 1;};}",
"113 294 LINE {stroke = {w = 1;};}",
"103 317 LINE {stroke = {w = 1;};}",
"95 340 LINE {stroke = {w = 1;};}",
"88 365 LINE {stroke = {w = 1;};}",
"82 389 LINE {stroke = {w = 1;};}",
"78 414 LINE {stroke = {w = 1;};}",
"76 439 LINE {stroke = {w = 1;};}",
"75 464 LINE {stroke = {w = 1;};}",
"76 489 LINE {stroke = {w = 1;};}",
"78 514 LINE {stroke = {w = 1;};}",
"82 539 LINE {stroke = {w = 1;};}",
"88 563 LINE {stroke = {w = 1;};}",
"95 587 LINE {stroke = {w = 1;};}",
"103 611 LINE {stroke = {w = 1;};}",
"113 634 LINE {stroke = {w = 1;};}",
"125 656 LINE {stroke = {w = 1;};}",
"137 678 LINE {stroke = {w = 1;};}",
"151 698 LINE {stroke = {w = 1;};}",
"167 718 LINE {stroke = {w = 1;};}",
"183 737 LINE {stroke = {w = 1;};}",
"201 755 LINE {stroke = {w = 1;};}",
"220 771 LINE {stroke = {w = 1;};}",
"240 787 LINE {stroke = {w = 1;};}",
"260 801 LINE {stroke = {w = 1;};}",
"282 813 LINE {stroke = {w = 1;};}",
"304 825 LINE {stroke = {w = 1;};}",
"327 835 LINE {stroke = {w = 1;};}",
"351 843 LINE {stroke = {w = 1;};}",
"375 850 LINE {stroke = {w = 1;};}",
"400 856 LINE {stroke = {w = 1;};}",
"424 860 LINE {stroke = {w = 1;};}",
"449 862 LINE {stroke = {w = 1;};}",
"474 863 LINE {stroke = {w = 1;};}",
"474 464 LINE {stroke = {w = 1;};}",
"729 156 LINE {stroke = {w = 1;};}",
"709 141 LINE {stroke = {w = 1;};}"
);
}
);
width = 950;
}
);
},
{
glyphname = three_percent.liga;
lastChange = "2021-11-14 20:16:55 +0000";
layers = (
{
layerId = "3603F491-BDB4-4F7B-A4F4-044CFF075AAF";
paths = (
{
closed = 1;
nodes = (
"218 931 OFFCURVE {stroke = {w = 1;};}",
"9 722 OFFCURVE {stroke = {w = 1;};}",
"10 466 CURVE {stroke = {w = 1;};}",
"10 209 OFFCURVE {stroke = {w = 1;};}",
"218 1 OFFCURVE {stroke = {w = 1;};}",
"474 1 CURVE {stroke = {w = 1;};}",
"731 1 OFFCURVE {stroke = {w = 1;};}",
"939 209 OFFCURVE {stroke = {w = 1;};}",
"939 466 CURVE {stroke = {w = 1;};}",
"939 722 OFFCURVE {stroke = {w = 1;};}",
"731 931 OFFCURVE {stroke = {w = 1;};}",
"474 931 CURVE {stroke = {w = 1;};}"
);
},
{
closed = 1;
nodes = (
"866 389 LINE {stroke = {w = 1;};}",
"861 365 LINE {stroke = {w = 1;};}",
"854 340 LINE {stroke = {w = 1;};}",
"845 317 LINE {stroke = {w = 1;};}",
"835 294 LINE {stroke = {w = 1;};}",
"824 272 LINE {stroke = {w = 1;};}",
"811 250 LINE {stroke = {w = 1;};}",
"797 229 LINE {stroke = {w = 1;};}",
"782 209 LINE {stroke = {w = 1;};}",
"765 191 LINE {stroke = {w = 1;};}",
"747 173 LINE {stroke = {w = 1;};}",
"729 156 LINE {stroke = {w = 1;};}",
"709 141 LINE {stroke = {w = 1;};}",
"688 127 LINE {stroke = {w = 1;};}",
"667 114 LINE {stroke = {w = 1;};}",
"644 103 LINE {stroke = {w = 1;};}",
"621 93 LINE {stroke = {w = 1;};}",
"598 84 LINE {stroke = {w = 1;};}",
"574 77 LINE {stroke = {w = 1;};}",
"549 72 LINE {stroke = {w = 1;};}",
"524 68 LINE {stroke = {w = 1;};}",
"499 65 LINE {stroke = {w = 1;};}",
"474 65 LINE {stroke = {w = 1;};}",
"449 65 LINE {stroke = {w = 1;};}",
"424 68 LINE {stroke = {w = 1;};}",
"400 72 LINE {stroke = {w = 1;};}",
"375 77 LINE {stroke = {w = 1;};}",
"351 84 LINE {stroke = {w = 1;};}",
"327 93 LINE {stroke = {w = 1;};}",
"304 103 LINE {stroke = {w = 1;};}",
"282 114 LINE {stroke = {w = 1;};}",
"260 127 LINE {stroke = {w = 1;};}",
"240 141 LINE {stroke = {w = 1;};}",
"220 156 LINE {stroke = {w = 1;};}",
"201 173 LINE {stroke = {w = 1;};}",
"183 191 LINE {stroke = {w = 1;};}",
"167 209 LINE {stroke = {w = 1;};}",
"151 229 LINE {stroke = {w = 1;};}",
"137 250 LINE {stroke = {w = 1;};}",
"125 272 LINE {stroke = {w = 1;};}",
"113 294 LINE {stroke = {w = 1;};}",
"103 317 LINE {stroke = {w = 1;};}",
"95 340 LINE {stroke = {w = 1;};}",
"88 365 LINE {stroke = {w = 1;};}",
"82 389 LINE {stroke = {w = 1;};}",
"78 414 LINE {stroke = {w = 1;};}",
"76 439 LINE {stroke = {w = 1;};}",
"75 464 LINE {stroke = {w = 1;};}",
"76 489 LINE {stroke = {w = 1;};}",
"78 514 LINE {stroke = {w = 1;};}",
"82 539 LINE {stroke = {w = 1;};}",
"88 563 LINE {stroke = {w = 1;};}",
"95 587 LINE {stroke = {w = 1;};}",
"103 611 LINE {stroke = {w = 1;};}",
"113 634 LINE {stroke = {w = 1;};}",
"125 656 LINE {stroke = {w = 1;};}",
"137 678 LINE {stroke = {w = 1;};}",
"151 698 LINE {stroke = {w = 1;};}",
"167 718 LINE {stroke = {w = 1;};}",
"183 737 LINE {stroke = {w = 1;};}",
"201 755 LINE {stroke = {w = 1;};}",
"220 771 LINE {stroke = {w = 1;};}",
"240 787 LINE {stroke = {w = 1;};}",
"260 801 LINE {stroke = {w = 1;};}",
"282 813 LINE {stroke = {w = 1;};}",
"304 825 LINE {stroke = {w = 1;};}",
"327 835 LINE {stroke = {w = 1;};}",
"351 843 LINE {stroke = {w = 1;};}",
"375 850 LINE {stroke = {w = 1;};}",
"400 856 LINE {stroke = {w = 1;};}",
"424 860 LINE {stroke = {w = 1;};}",
"449 862 LINE {stroke = {w = 1;};}",
"474 863 LINE {stroke = {w = 1;};}",
"474 464 LINE {stroke = {w = 1;};}",
"549 856 LINE {stroke = {w = 1;};}",
"574 850 LINE {stroke = {w = 1;};}",
"598 843 LINE {stroke = {w = 1;};}",
"621 835 LINE {stroke = {w = 1;};}",
"644 825 LINE {stroke = {w = 1;};}",
"667 813 LINE {stroke = {w = 1;};}",
"688 801 LINE {stroke = {w = 1;};}",
"709 787 LINE {stroke = {w = 1;};}",
"729 771 LINE {stroke = {w = 1;};}",
"747 755 LINE {stroke = {w = 1;};}",
"765 737 LINE {stroke = {w = 1;};}",
"782 718 LINE {stroke = {w = 1;};}",
"797 698 LINE {stroke = {w = 1;};}",
"811 678 LINE {stroke = {w = 1;};}",
"824 656 LINE {stroke = {w = 1;};}",
"835 634 LINE {stroke = {w = 1;};}",
"845 611 LINE {stroke = {w = 1;};}",
"854 587 LINE {stroke = {w = 1;};}",
"861 563 LINE {stroke = {w = 1;};}",
"866 539 LINE {stroke = {w = 1;};}",
"870 514 LINE {stroke = {w = 1;};}",
"873 489 LINE {stroke = {w = 1;};}",
"873 464 LINE {stroke = {w = 1;};}",
"873 439 LINE {stroke = {w = 1;};}",
"870 414 LINE {stroke = {w = 1;};}"
);
}
);
width = 950;
}
);
},
{
glyphname = four_zero_percent.liga;
lastChange = "2021-11-14 20:59:04 +0000";
layers = (
{
layerId = "3603F491-BDB4-4F7B-A4F4-044CFF075AAF";
paths = (
{
closed = 1;
nodes = (
"218 931 OFFCURVE {stroke = {w = 1;};}",
"9 722 OFFCURVE {stroke = {w = 1;};}",
"10 466 CURVE {stroke = {w = 1;};}",
"10 209 OFFCURVE {stroke = {w = 1;};}",
"218 1 OFFCURVE {stroke = {w = 1;};}",
"474 1 CURVE {stroke = {w = 1;};}",
"731 1 OFFCURVE {stroke = {w = 1;};}",
"939 209 OFFCURVE {stroke = {w = 1;};}",
"939 466 CURVE {stroke = {w = 1;};}",
"939 722 OFFCURVE {stroke = {w = 1;};}",
"731 931 OFFCURVE {stroke = {w = 1;};}",
"474 931 CURVE {stroke = {w = 1;};}"
);
},
{
closed = 1;
nodes = (
"667 114 LINE {stroke = {w = 1;};}",
"644 103 LINE {stroke = {w = 1;};}",
"621 93 LINE {stroke = {w = 1;};}",
"598 84 LINE {stroke = {w = 1;};}",
"574 77 LINE {stroke = {w = 1;};}",
"549 72 LINE {stroke = {w = 1;};}",
"524 68 LINE {stroke = {w = 1;};}",
"499 65 LINE {stroke = {w = 1;};}",
"474 65 LINE {stroke = {w = 1;};}",
"449 65 LINE {stroke = {w = 1;};}",
"424 68 LINE {stroke = {w = 1;};}",
"400 72 LINE {stroke = {w = 1;};}",
"375 77 LINE {stroke = {w = 1;};}",
"351 84 LINE {stroke = {w = 1;};}",
"327 93 LINE {stroke = {w = 1;};}",
"304 103 LINE {stroke = {w = 1;};}",
"282 114 LINE {stroke = {w = 1;};}",
"260 127 LINE {stroke = {w = 1;};}",
"240 141 LINE {stroke = {w = 1;};}",
"220 156 LINE {stroke = {w = 1;};}",
"201 173 LINE {stroke = {w = 1;};}",
"183 191 LINE {stroke = {w = 1;};}",
"167 209 LINE {stroke = {w = 1;};}",
"151 229 LINE {stroke = {w = 1;};}",
"137 250 LINE {stroke = {w = 1;};}",
"125 272 LINE {stroke = {w = 1;};}",
"113 294 LINE {stroke = {w = 1;};}",
"103 317 LINE {stroke = {w = 1;};}",
"95 340 LINE {stroke = {w = 1;};}",
"88 365 LINE {stroke = {w = 1;};}",
"82 389 LINE {stroke = {w = 1;};}",
"78 414 LINE {stroke = {w = 1;};}",
"76 439 LINE {stroke = {w = 1;};}",
"75 464 LINE {stroke = {w = 1;};}",
"76 489 LINE {stroke = {w = 1;};}",
"78 514 LINE {stroke = {w = 1;};}",
"82 539 LINE {stroke = {w = 1;};}",
"88 563 LINE {stroke = {w = 1;};}",
"95 587 LINE {stroke = {w = 1;};}",
"103 611 LINE {stroke = {w = 1;};}",
"113 634 LINE {stroke = {w = 1;};}",
"125 656 LINE {stroke = {w = 1;};}",
"137 678 LINE {stroke = {w = 1;};}",
"151 698 LINE {stroke = {w = 1;};}",
"167 718 LINE {stroke = {w = 1;};}",
"183 737 LINE {stroke = {w = 1;};}",
"201 755 LINE {stroke = {w = 1;};}",
"220 771 LINE {stroke = {w = 1;};}",
"240 787 LINE {stroke = {w = 1;};}",
"260 801 LINE {stroke = {w = 1;};}",
"282 813 LINE {stroke = {w = 1;};}",
"304 825 LINE {stroke = {w = 1;};}",
"327 835 LINE {stroke = {w = 1;};}",
"351 843 LINE {stroke = {w = 1;};}",
"375 850 LINE {stroke = {w = 1;};}",
"400 856 LINE {stroke = {w = 1;};}",
"424 860 LINE {stroke = {w = 1;};}",
"449 862 LINE {stroke = {w = 1;};}",
"474 863 LINE {stroke = {w = 1;};}",
"474 464 LINE {stroke = {w = 1;};}",
"709 141 LINE {stroke = {w = 1;};}",
"688 127 LINE {stroke = {w = 1;};}"
);
}
);
width = 950;
}
);
},
{
glyphname = four_one_percent.liga;
lastChange = "2021-11-14 21:00:13 +0000";
layers = (
{
layerId = "3603F491-BDB4-4F7B-A4F4-044CFF075AAF";
paths = (
{
closed = 1;
nodes = (
"218 931 OFFCURVE {stroke = {w = 1;};}",
"9 722 OFFCURVE {stroke = {w = 1;};}",
"10 466 CURVE {stroke = {w = 1;};}",
"10 209 OFFCURVE {stroke = {w = 1;};}",
"218 1 OFFCURVE {stroke = {w = 1;};}",
"474 1 CURVE {stroke = {w = 1;};}",
"731 1 OFFCURVE {stroke = {w = 1;};}",
"939 209 OFFCURVE {stroke = {w = 1;};}",
"939 466 CURVE {stroke = {w = 1;};}",
"939 722 OFFCURVE {stroke = {w = 1;};}",
"731 931 OFFCURVE {stroke = {w = 1;};}",
"474 931 CURVE {stroke = {w = 1;};}"
);
},
{
closed = 1;
nodes = (
"644 103 LINE {stroke = {w = 1;};}",
"621 93 LINE {stroke = {w = 1;};}",
"598 84 LINE {stroke = {w = 1;};}",
"574 77 LINE {stroke = {w = 1;};}",
"549 72 LINE {stroke = {w = 1;};}",
"524 68 LINE {stroke = {w = 1;};}",
"499 66 LINE {stroke = {w = 1;};}",
"474 65 LINE {stroke = {w = 1;};}",
"449 66 LINE {stroke = {w = 1;};}",
"424 68 LINE {stroke = {w = 1;};}",
"400 72 LINE {stroke = {w = 1;};}",
"375 77 LINE {stroke = {w = 1;};}",
"351 84 LINE {stroke = {w = 1;};}",
"327 93 LINE {stroke = {w = 1;};}",
"304 103 LINE {stroke = {w = 1;};}",
"282 114 LINE {stroke = {w = 1;};}",
"260 127 LINE {stroke = {w = 1;};}",
"240 141 LINE {stroke = {w = 1;};}",
"220 156 LINE {stroke = {w = 1;};}",
"201 173 LINE {stroke = {w = 1;};}",
"183 191 LINE {stroke = {w = 1;};}",
"167 209 LINE {stroke = {w = 1;};}",
"151 229 LINE {stroke = {w = 1;};}",
"137 250 LINE {stroke = {w = 1;};}",
"125 272 LINE {stroke = {w = 1;};}",
"113 294 LINE {stroke = {w = 1;};}",
"103 317 LINE {stroke = {w = 1;};}",
"95 340 LINE {stroke = {w = 1;};}",
"88 365 LINE {stroke = {w = 1;};}",
"82 389 LINE {stroke = {w = 1;};}",
"78 414 LINE {stroke = {w = 1;};}",
"76 439 LINE {stroke = {w = 1;};}",
"75 464 LINE {stroke = {w = 1;};}",
"76 489 LINE {stroke = {w = 1;};}",
"78 514 LINE {stroke = {w = 1;};}",
"82 539 LINE {stroke = {w = 1;};}",
"88 563 LINE {stroke = {w = 1;};}",
"95 587 LINE {stroke = {w = 1;};}",
"103 611 LINE {stroke = {w = 1;};}",
"113 634 LINE {stroke = {w = 1;};}",
"125 656 LINE {stroke = {w = 1;};}",
"137 678 LINE {stroke = {w = 1;};}",
"151 698 LINE {stroke = {w = 1;};}",
"167 718 LINE {stroke = {w = 1;};}",
"183 737 LINE {stroke = {w = 1;};}",
"201 755 LINE {stroke = {w = 1;};}",
"220 771 LINE {stroke = {w = 1;};}",
"240 787 LINE {stroke = {w = 1;};}",
"260 801 LINE {stroke = {w = 1;};}",
"282 813 LINE {stroke = {w = 1;};}",
"304 825 LINE {stroke = {w = 1;};}",
"327 835 LINE {stroke = {w = 1;};}",
"351 843 LINE {stroke = {w = 1;};}",
"375 850 LINE {stroke = {w = 1;};}",
"400 856 LINE {stroke = {w = 1;};}",
"424 860 LINE {stroke = {w = 1;};}",
"449 862 LINE {stroke = {w = 1;};}",
"474 863 LINE {stroke = {w = 1;};}",
"474 464 LINE {stroke = {w = 1;};}",
"688 127 LINE {stroke = {w = 1;};}",
"667 114 LINE {stroke = {w = 1;};}"
);
}
);
width = 950;
}
);
},
{
glyphname = four_two_percent.liga;
lastChange = "2021-11-14 21:01:18 +0000";
layers = (
{
layerId = "3603F491-BDB4-4F7B-A4F4-044CFF075AAF";
paths = (
{
closed = 1;
nodes = (
"218 931 OFFCURVE {stroke = {w = 1;};}",
"9 722 OFFCURVE {stroke = {w = 1;};}",
"10 466 CURVE {stroke = {w = 1;};}",
"10 209 OFFCURVE {stroke = {w = 1;};}",
"218 1 OFFCURVE {stroke = {w = 1;};}",
"474 1 CURVE {stroke = {w = 1;};}",
"731 1 OFFCURVE {stroke = {w = 1;};}",
"939 209 OFFCURVE {stroke = {w = 1;};}",
"939 466 CURVE {stroke = {w = 1;};}",
"939 722 OFFCURVE {stroke = {w = 1;};}",
"731 931 OFFCURVE {stroke = {w = 1;};}",
"474 931 CURVE {stroke = {w = 1;};}"
);
},
{
closed = 1;
nodes = (
"621 93 LINE {stroke = {w = 1;};}",
"598 84 LINE {stroke = {w = 1;};}",
"574 77 LINE {stroke = {w = 1;};}",
"549 72 LINE {stroke = {w = 1;};}",
"524 68 LINE {stroke = {w = 1;};}",
"499 66 LINE {stroke = {w = 1;};}",
"474 65 LINE {stroke = {w = 1;};}",
"449 66 LINE {stroke = {w = 1;};}",
"424 68 LINE {stroke = {w = 1;};}",
"400 72 LINE {stroke = {w = 1;};}",
"375 77 LINE {stroke = {w = 1;};}",
"351 84 LINE {stroke = {w = 1;};}",
"327 93 LINE {stroke = {w = 1;};}",
"304 103 LINE {stroke = {w = 1;};}",
"282 114 LINE {stroke = {w = 1;};}",
"260 127 LINE {stroke = {w = 1;};}",
"240 141 LINE {stroke = {w = 1;};}",
"220 156 LINE {stroke = {w = 1;};}",
"201 173 LINE {stroke = {w = 1;};}",
"183 191 LINE {stroke = {w = 1;};}",
"167 209 LINE {stroke = {w = 1;};}",
"151 229 LINE {stroke = {w = 1;};}",
"137 250 LINE {stroke = {w = 1;};}",
"125 272 LINE {stroke = {w = 1;};}",
"113 294 LINE {stroke = {w = 1;};}",
"103 317 LINE {stroke = {w = 1;};}",
"95 340 LINE {stroke = {w = 1;};}",
"88 365 LINE {stroke = {w = 1;};}",
"82 389 LINE {stroke = {w = 1;};}",
"78 414 LINE {stroke = {w = 1;};}",
"76 439 LINE {stroke = {w = 1;};}",
"75 464 LINE {stroke = {w = 1;};}",
"76 489 LINE {stroke = {w = 1;};}",
"78 514 LINE {stroke = {w = 1;};}",
"82 539 LINE {stroke = {w = 1;};}",
"88 563 LINE {stroke = {w = 1;};}",
"95 587 LINE {stroke = {w = 1;};}",
"103 611 LINE {stroke = {w = 1;};}",
"113 634 LINE {stroke = {w = 1;};}",
"125 656 LINE {stroke = {w = 1;};}",
"137 678 LINE {stroke = {w = 1;};}",
"151 698 LINE {stroke = {w = 1;};}",
"167 718 LINE {stroke = {w = 1;};}",
"183 737 LINE {stroke = {w = 1;};}",
"201 755 LINE {stroke = {w = 1;};}",
"220 771 LINE {stroke = {w = 1;};}",
"240 787 LINE {stroke = {w = 1;};}",
"260 801 LINE {stroke = {w = 1;};}",
"282 813 LINE {stroke = {w = 1;};}",
"304 825 LINE {stroke = {w = 1;};}",
"327 835 LINE {stroke = {w = 1;};}",
"351 843 LINE {stroke = {w = 1;};}",
"375 850 LINE {stroke = {w = 1;};}",
"400 856 LINE {stroke = {w = 1;};}",
"424 860 LINE {stroke = {w = 1;};}",
"449 862 LINE {stroke = {w = 1;};}",
"474 863 LINE {stroke = {w = 1;};}",
"474 464 LINE {stroke = {w = 1;};}",
"667 114 LINE {stroke = {w = 1;};}",
"644 103 LINE {stroke = {w = 1;};}"
);
}
);
width = 950;
}
);
},
{
glyphname = four_three_percent.liga;
lastChange = "2021-11-14 21:02:07 +0000";
layers = (
{
layerId = "3603F491-BDB4-4F7B-A4F4-044CFF075AAF";
paths = (
{
closed = 1;
nodes = (
"218 931 OFFCURVE {stroke = {w = 1;};}",
"9 722 OFFCURVE {stroke = {w = 1;};}",
"10 466 CURVE {stroke = {w = 1;};}",
"10 209 OFFCURVE {stroke = {w = 1;};}",
"218 1 OFFCURVE {stroke = {w = 1;};}",
"474 1 CURVE {stroke = {w = 1;};}",
"731 1 OFFCURVE {stroke = {w = 1;};}",
"939 209 OFFCURVE {stroke = {w = 1;};}",
"939 466 CURVE {stroke = {w = 1;};}",
"939 722 OFFCURVE {stroke = {w = 1;};}",
"731 931 OFFCURVE {stroke = {w = 1;};}",
"474 931 CURVE {stroke = {w = 1;};}"
);
},
{
closed = 1;
nodes = (
"598 84 LINE {stroke = {w = 1;};}",
"574 77 LINE {stroke = {w = 1;};}",
"549 72 LINE {stroke = {w = 1;};}",
"524 68 LINE {stroke = {w = 1;};}",
"499 66 LINE {stroke = {w = 1;};}",
"474 65 LINE {stroke = {w = 1;};}",
"449 66 LINE {stroke = {w = 1;};}",
"424 68 LINE {stroke = {w = 1;};}",
"400 72 LINE {stroke = {w = 1;};}",
"375 77 LINE {stroke = {w = 1;};}",
"351 84 LINE {stroke = {w = 1;};}",
"327 93 LINE {stroke = {w = 1;};}",
"304 103 LINE {stroke = {w = 1;};}",
"282 114 LINE {stroke = {w = 1;};}",
"260 127 LINE {stroke = {w = 1;};}",
"240 141 LINE {stroke = {w = 1;};}",
"220 156 LINE {stroke = {w = 1;};}",
"201 173 LINE {stroke = {w = 1;};}",
"183 191 LINE {stroke = {w = 1;};}",
"167 209 LINE {stroke = {w = 1;};}",
"151 229 LINE {stroke = {w = 1;};}",
"137 250 LINE {stroke = {w = 1;};}",
"125 272 LINE {stroke = {w = 1;};}",
"113 294 LINE {stroke = {w = 1;};}",
"103 317 LINE {stroke = {w = 1;};}",
"95 340 LINE {stroke = {w = 1;};}",
"88 365 LINE {stroke = {w = 1;};}",
"82 389 LINE {stroke = {w = 1;};}",
"78 414 LINE {stroke = {w = 1;};}",
"76 439 LINE {stroke = {w = 1;};}",
"75 464 LINE {stroke = {w = 1;};}",
"76 489 LINE {stroke = {w = 1;};}",
"78 514 LINE {stroke = {w = 1;};}",
"82 539 LINE {stroke = {w = 1;};}",
"88 563 LINE {stroke = {w = 1;};}",
"95 587 LINE {stroke = {w = 1;};}",
"103 611 LINE {stroke = {w = 1;};}",
"113 634 LINE {stroke = {w = 1;};}",
"125 656 LINE {stroke = {w = 1;};}",
"137 678 LINE {stroke = {w = 1;};}",
"151 698 LINE {stroke = {w = 1;};}",
"167 718 LINE {stroke = {w = 1;};}",
"183 737 LINE {stroke = {w = 1;};}",
"201 755 LINE {stroke = {w = 1;};}",
"220 771 LINE {stroke = {w = 1;};}",
"240 787 LINE {stroke = {w = 1;};}",
"260 801 LINE {stroke = {w = 1;};}",
"282 813 LINE {stroke = {w = 1;};}",
"304 825 LINE {stroke = {w = 1;};}",
"327 835 LINE {stroke = {w = 1;};}",
"351 843 LINE {stroke = {w = 1;};}",
"375 850 LINE {stroke = {w = 1;};}",
"400 856 LINE {stroke = {w = 1;};}",
"424 860 LINE {stroke = {w = 1;};}",
"449 862 LINE {stroke = {w = 1;};}",
"474 863 LINE {stroke = {w = 1;};}",
"474 464 LINE {stroke = {w = 1;};}",
"644 103 LINE {stroke = {w = 1;};}",
"621 93 LINE {stroke = {w = 1;};}"
);
}
);
width = 950;
}
);
},
{
glyphname = four_four_percent.liga;
lastChange = "2021-11-14 21:02:59 +0000";
layers = (
{
layerId = "3603F491-BDB4-4F7B-A4F4-044CFF075AAF";
paths = (
{
closed = 1;
nodes = (
"218 931 OFFCURVE {stroke = {w = 1;};}",
"10 723 OFFCURVE {stroke = {w = 1;};}",
"10 466 CURVE {stroke = {w = 1;};}",
"10 209 OFFCURVE {stroke = {w = 1;};}",
"218 1 OFFCURVE {stroke = {w = 1;};}",
"475 1 CURVE {stroke = {w = 1;};}",
"731 1 OFFCURVE {stroke = {w = 1;};}",
"939 209 OFFCURVE {stroke = {w = 1;};}",
"939 466 CURVE {stroke = {w = 1;};}",
"939 723 OFFCURVE {stroke = {w = 1;};}",
"731 931 OFFCURVE {stroke = {w = 1;};}",
"475 931 CURVE {stroke = {w = 1;};}"
);
},
{
closed = 1;
nodes = (
"574 78 LINE {stroke = {w = 1;};}",
"549 72 LINE {stroke = {w = 1;};}",
"525 68 LINE {stroke = {w = 1;};}",
"500 66 LINE {stroke = {w = 1;};}",
"475 65 LINE {stroke = {w = 1;};}",
"450 66 LINE {stroke = {w = 1;};}",
"425 68 LINE {stroke = {w = 1;};}",
"400 72 LINE {stroke = {w = 1;};}",
"375 78 LINE {stroke = {w = 1;};}",
"351 85 LINE {stroke = {w = 1;};}",
"328 93 LINE {stroke = {w = 1;};}",
"305 103 LINE {stroke = {w = 1;};}",
"282 114 LINE {stroke = {w = 1;};}",
"261 127 LINE {stroke = {w = 1;};}",
"240 141 LINE {stroke = {w = 1;};}",
"220 157 LINE {stroke = {w = 1;};}",
"201 173 LINE {stroke = {w = 1;};}",
"184 191 LINE {stroke = {w = 1;};}",
"167 210 LINE {stroke = {w = 1;};}",
"152 230 LINE {stroke = {w = 1;};}",
"138 250 LINE {stroke = {w = 1;};}",
"125 272 LINE {stroke = {w = 1;};}",
"113 294 LINE {stroke = {w = 1;};}",
"104 317 LINE {stroke = {w = 1;};}",
"95 341 LINE {stroke = {w = 1;};}",
"88 365 LINE {stroke = {w = 1;};}",
"83 389 LINE {stroke = {w = 1;};}",
"79 414 LINE {stroke = {w = 1;};}",
"76 439 LINE {stroke = {w = 1;};}",
"75 464 LINE {stroke = {w = 1;};}",
"76 489 LINE {stroke = {w = 1;};}",
"79 514 LINE {stroke = {w = 1;};}",
"83 539 LINE {stroke = {w = 1;};}",
"88 563 LINE {stroke = {w = 1;};}",
"95 587 LINE {stroke = {w = 1;};}",
"104 611 LINE {stroke = {w = 1;};}",
"113 634 LINE {stroke = {w = 1;};}",
"125 656 LINE {stroke = {w = 1;};}",
"138 678 LINE {stroke = {w = 1;};}",
"152 699 LINE {stroke = {w = 1;};}",
"167 718 LINE {stroke = {w = 1;};}",
"184 737 LINE {stroke = {w = 1;};}",
"201 755 LINE {stroke = {w = 1;};}",
"220 772 LINE {stroke = {w = 1;};}",
"240 787 LINE {stroke = {w = 1;};}",
"261 801 LINE {stroke = {w = 1;};}",
"282 814 LINE {stroke = {w = 1;};}",
"305 825 LINE {stroke = {w = 1;};}",
"328 835 LINE {stroke = {w = 1;};}",
"351 844 LINE {stroke = {w = 1;};}",
"375 851 LINE {stroke = {w = 1;};}",
"400 856 LINE {stroke = {w = 1;};}",
"425 860 LINE {stroke = {w = 1;};}",
"450 862 LINE {stroke = {w = 1;};}",
"475 863 LINE {stroke = {w = 1;};}",
"475 464 LINE {stroke = {w = 1;};}",
"621 93 LINE {stroke = {w = 1;};}",
"598 85 LINE {stroke = {w = 1;};}"
);
}
);
width = 950;
}
);
},
{
glyphname = four_five_percent.liga;
lastChange = "2021-11-14 21:03:47 +0000";
layers = (
{
layerId = "3603F491-BDB4-4F7B-A4F4-044CFF075AAF";
paths = (
{
closed = 1;
nodes = (
"218 931 OFFCURVE {stroke = {w = 1;};}",
"9 722 OFFCURVE {stroke = {w = 1;};}",
"10 466 CURVE {stroke = {w = 1;};}",
"10 209 OFFCURVE {stroke = {w = 1;};}",
"218 1 OFFCURVE {stroke = {w = 1;};}",
"474 1 CURVE {stroke = {w = 1;};}",
"731 1 OFFCURVE {stroke = {w = 1;};}",
"939 209 OFFCURVE {stroke = {w = 1;};}",
"939 466 CURVE {stroke = {w = 1;};}",
"939 722 OFFCURVE {stroke = {w = 1;};}",
"731 931 OFFCURVE {stroke = {w = 1;};}",
"474 931 CURVE {stroke = {w = 1;};}"
);
},
{
closed = 1;
nodes = (
"549 72 LINE {stroke = {w = 1;};}",
"524 68 LINE {stroke = {w = 1;};}",
"499 66 LINE {stroke = {w = 1;};}",
"474 65 LINE {stroke = {w = 1;};}",
"449 66 LINE {stroke = {w = 1;};}",
"424 68 LINE {stroke = {w = 1;};}",
"400 72 LINE {stroke = {w = 1;};}",
"375 77 LINE {stroke = {w = 1;};}",
"351 84 LINE {stroke = {w = 1;};}",
"327 93 LINE {stroke = {w = 1;};}",
"304 103 LINE {stroke = {w = 1;};}",
"282 114 LINE {stroke = {w = 1;};}",
"260 127 LINE {stroke = {w = 1;};}",
"240 141 LINE {stroke = {w = 1;};}",
"220 156 LINE {stroke = {w = 1;};}",
"201 173 LINE {stroke = {w = 1;};}",
"183 191 LINE {stroke = {w = 1;};}",
"167 209 LINE {stroke = {w = 1;};}",
"151 229 LINE {stroke = {w = 1;};}",
"137 250 LINE {stroke = {w = 1;};}",
"125 272 LINE {stroke = {w = 1;};}",
"113 294 LINE {stroke = {w = 1;};}",
"103 317 LINE {stroke = {w = 1;};}",
"95 340 LINE {stroke = {w = 1;};}",
"88 365 LINE {stroke = {w = 1;};}",
"82 389 LINE {stroke = {w = 1;};}",
"78 414 LINE {stroke = {w = 1;};}",
"76 439 LINE {stroke = {w = 1;};}",
"75 464 LINE {stroke = {w = 1;};}",
"76 489 LINE {stroke = {w = 1;};}",
"78 514 LINE {stroke = {w = 1;};}",
"82 539 LINE {stroke = {w = 1;};}",
"88 563 LINE {stroke = {w = 1;};}",
"95 587 LINE {stroke = {w = 1;};}",
"103 611 LINE {stroke = {w = 1;};}",
"113 634 LINE {stroke = {w = 1;};}",
"125 656 LINE {stroke = {w = 1;};}",
"137 678 LINE {stroke = {w = 1;};}",
"151 698 LINE {stroke = {w = 1;};}",
"167 718 LINE {stroke = {w = 1;};}",
"183 737 LINE {stroke = {w = 1;};}",
"201 755 LINE {stroke = {w = 1;};}",
"220 771 LINE {stroke = {w = 1;};}",
"240 787 LINE {stroke = {w = 1;};}",
"260 801 LINE {stroke = {w = 1;};}",
"282 813 LINE {stroke = {w = 1;};}",
"304 825 LINE {stroke = {w = 1;};}",
"327 835 LINE {stroke = {w = 1;};}",
"351 843 LINE {stroke = {w = 1;};}",
"375 850 LINE {stroke = {w = 1;};}",
"400 856 LINE {stroke = {w = 1;};}",
"424 860 LINE {stroke = {w = 1;};}",
"449 862 LINE {stroke = {w = 1;};}",
"474 863 LINE {stroke = {w = 1;};}",
"474 464 LINE {stroke = {w = 1;};}",
"598 84 LINE {stroke = {w = 1;};}",
"574 77 LINE {stroke = {w = 1;};}"
);
}
);
width = 950;
}
);
},
{
glyphname = four_six_percent.liga;
lastChange = "2021-11-14 21:04:40 +0000";
layers = (
{
layerId = "3603F491-BDB4-4F7B-A4F4-044CFF075AAF";
paths = (
{
closed = 1;
nodes = (
"218 931 OFFCURVE {stroke = {w = 1;};}",
"9 722 OFFCURVE {stroke = {w = 1;};}",
"10 466 CURVE {stroke = {w = 1;};}",
"10 209 OFFCURVE {stroke = {w = 1;};}",
"218 1 OFFCURVE {stroke = {w = 1;};}",
"474 1 CURVE {stroke = {w = 1;};}",
"731 1 OFFCURVE {stroke = {w = 1;};}",
"939 209 OFFCURVE {stroke = {w = 1;};}",
"939 466 CURVE {stroke = {w = 1;};}",
"939 722 OFFCURVE {stroke = {w = 1;};}",
"731 931 OFFCURVE {stroke = {w = 1;};}",
"474 931 CURVE {stroke = {w = 1;};}"
);
},
{
closed = 1;
nodes = (
"524 68 LINE {stroke = {w = 1;};}",
"499 66 LINE {stroke = {w = 1;};}",
"474 65 LINE {stroke = {w = 1;};}",
"449 66 LINE {stroke = {w = 1;};}",
"424 68 LINE {stroke = {w = 1;};}",
"400 72 LINE {stroke = {w = 1;};}",
"375 77 LINE {stroke = {w = 1;};}",
"351 84 LINE {stroke = {w = 1;};}",
"327 93 LINE {stroke = {w = 1;};}",
"304 103 LINE {stroke = {w = 1;};}",
"282 114 LINE {stroke = {w = 1;};}",
"260 127 LINE {stroke = {w = 1;};}",
"240 141 LINE {stroke = {w = 1;};}",
"220 156 LINE {stroke = {w = 1;};}",
"201 173 LINE {stroke = {w = 1;};}",
"183 191 LINE {stroke = {w = 1;};}",
"167 209 LINE {stroke = {w = 1;};}",
"151 229 LINE {stroke = {w = 1;};}",
"137 250 LINE {stroke = {w = 1;};}",
"125 272 LINE {stroke = {w = 1;};}",
"113 294 LINE {stroke = {w = 1;};}",
"103 317 LINE {stroke = {w = 1;};}",
"95 340 LINE {stroke = {w = 1;};}",
"88 365 LINE {stroke = {w = 1;};}",
"82 389 LINE {stroke = {w = 1;};}",
"78 414 LINE {stroke = {w = 1;};}",
"76 439 LINE {stroke = {w = 1;};}",
"75 464 LINE {stroke = {w = 1;};}",
"76 489 LINE {stroke = {w = 1;};}",
"78 514 LINE {stroke = {w = 1;};}",
"82 539 LINE {stroke = {w = 1;};}",
"88 563 LINE {stroke = {w = 1;};}",
"95 587 LINE {stroke = {w = 1;};}",
"103 611 LINE {stroke = {w = 1;};}",
"113 634 LINE {stroke = {w = 1;};}",
"125 656 LINE {stroke = {w = 1;};}",
"137 678 LINE {stroke = {w = 1;};}",
"151 698 LINE {stroke = {w = 1;};}",
"167 718 LINE {stroke = {w = 1;};}",
"183 737 LINE {stroke = {w = 1;};}",
"201 755 LINE {stroke = {w = 1;};}",
"220 771 LINE {stroke = {w = 1;};}",
"240 787 LINE {stroke = {w = 1;};}",
"260 801 LINE {stroke = {w = 1;};}",
"282 813 LINE {stroke = {w = 1;};}",
"304 825 LINE {stroke = {w = 1;};}",
"327 835 LINE {stroke = {w = 1;};}",
"351 843 LINE {stroke = {w = 1;};}",
"375 850 LINE {stroke = {w = 1;};}",
"400 856 LINE {stroke = {w = 1;};}",
"424 860 LINE {stroke = {w = 1;};}",
"449 862 LINE {stroke = {w = 1;};}",
"474 863 LINE {stroke = {w = 1;};}",
"474 464 LINE {stroke = {w = 1;};}",
"574 77 LINE {stroke = {w = 1;};}",
"549 72 LINE {stroke = {w = 1;};}"
);
}
);
width = 950;
}
);
},
{
glyphname = four_seven_percent.liga;
lastChange = "2021-11-14 21:05:36 +0000";
layers = (
{
layerId = "3603F491-BDB4-4F7B-A4F4-044CFF075AAF";
paths = (
{
closed = 1;
nodes = (
"218 931 OFFCURVE {stroke = {w = 1;};}",
"9 722 OFFCURVE {stroke = {w = 1;};}",
"10 466 CURVE {stroke = {w = 1;};}",
"10 209 OFFCURVE {stroke = {w = 1;};}",
"218 1 OFFCURVE {stroke = {w = 1;};}",
"474 1 CURVE {stroke = {w = 1;};}",
"731 1 OFFCURVE {stroke = {w = 1;};}",
"939 209 OFFCURVE {stroke = {w = 1;};}",
"939 466 CURVE {stroke = {w = 1;};}",
"939 722 OFFCURVE {stroke = {w = 1;};}",
"731 931 OFFCURVE {stroke = {w = 1;};}",
"474 931 CURVE {stroke = {w = 1;};}"
);
},
{
closed = 1;
nodes = (
"499 66 LINE {stroke = {w = 1;};}",
"474 65 LINE {stroke = {w = 1;};}",
"449 66 LINE {stroke = {w = 1;};}",
"424 68 LINE {stroke = {w = 1;};}",
"400 72 LINE {stroke = {w = 1;};}",
"375 77 LINE {stroke = {w = 1;};}",
"351 84 LINE {stroke = {w = 1;};}",
"327 93 LINE {stroke = {w = 1;};}",
"304 103 LINE {stroke = {w = 1;};}",
"282 114 LINE {stroke = {w = 1;};}",
"260 127 LINE {stroke = {w = 1;};}",
"240 141 LINE {stroke = {w = 1;};}",
"220 156 LINE {stroke = {w = 1;};}",
"201 173 LINE {stroke = {w = 1;};}",
"183 191 LINE {stroke = {w = 1;};}",
"167 209 LINE {stroke = {w = 1;};}",
"151 229 LINE {stroke = {w = 1;};}",
"137 250 LINE {stroke = {w = 1;};}",
"125 272 LINE {stroke = {w = 1;};}",
"113 294 LINE {stroke = {w = 1;};}",
"103 317 LINE {stroke = {w = 1;};}",
"95 340 LINE {stroke = {w = 1;};}",
"88 365 LINE {stroke = {w = 1;};}",
"82 389 LINE {stroke = {w = 1;};}",
"78 414 LINE {stroke = {w = 1;};}",
"76 439 LINE {stroke = {w = 1;};}",
"75 464 LINE {stroke = {w = 1;};}",
"76 489 LINE {stroke = {w = 1;};}",
"78 514 LINE {stroke = {w = 1;};}",
"82 539 LINE {stroke = {w = 1;};}",
"88 563 LINE {stroke = {w = 1;};}",
"95 587 LINE {stroke = {w = 1;};}",
"103 611 LINE {stroke = {w = 1;};}",
"113 634 LINE {stroke = {w = 1;};}",
"125 656 LINE {stroke = {w = 1;};}",
"137 678 LINE {stroke = {w = 1;};}",
"151 698 LINE {stroke = {w = 1;};}",
"167 718 LINE {stroke = {w = 1;};}",
"183 737 LINE {stroke = {w = 1;};}",
"201 755 LINE {stroke = {w = 1;};}",
"220 771 LINE {stroke = {w = 1;};}",
"240 787 LINE {stroke = {w = 1;};}",
"260 801 LINE {stroke = {w = 1;};}",
"282 813 LINE {stroke = {w = 1;};}",
"304 825 LINE {stroke = {w = 1;};}",
"327 835 LINE {stroke = {w = 1;};}",
"351 843 LINE {stroke = {w = 1;};}",
"375 850 LINE {stroke = {w = 1;};}",
"400 856 LINE {stroke = {w = 1;};}",
"424 860 LINE {stroke = {w = 1;};}",
"449 862 LINE {stroke = {w = 1;};}",
"474 863 LINE {stroke = {w = 1;};}",
"474 464 LINE {stroke = {w = 1;};}",
"549 72 LINE {stroke = {w = 1;};}",
"524 68 LINE {stroke = {w = 1;};}"
);
}
);
width = 950;
}
);
},
{
glyphname = four_eight_percent.liga;
lastChange = "2021-11-14 21:06:24 +0000";
layers = (
{
layerId = "3603F491-BDB4-4F7B-A4F4-044CFF075AAF";
paths = (
{
closed = 1;
nodes = (
"218 931 OFFCURVE {stroke = {w = 1;};}",
"9 722 OFFCURVE {stroke = {w = 1;};}",
"10 466 CURVE {stroke = {w = 1;};}",
"10 209 OFFCURVE {stroke = {w = 1;};}",
"218 1 OFFCURVE {stroke = {w = 1;};}",
"474 1 CURVE {stroke = {w = 1;};}",
"731 1 OFFCURVE {stroke = {w = 1;};}",
"939 209 OFFCURVE {stroke = {w = 1;};}",
"939 466 CURVE {stroke = {w = 1;};}",
"939 722 OFFCURVE {stroke = {w = 1;};}",
"731 931 OFFCURVE {stroke = {w = 1;};}",
"474 931 CURVE {stroke = {w = 1;};}"
);
},
{
closed = 1;
nodes = (
"474 65 LINE {stroke = {w = 1;};}",
"449 66 LINE {stroke = {w = 1;};}",
"424 68 LINE {stroke = {w = 1;};}",
"400 72 LINE {stroke = {w = 1;};}",
"375 77 LINE {stroke = {w = 1;};}",
"351 84 LINE {stroke = {w = 1;};}",
"327 93 LINE {stroke = {w = 1;};}",
"304 103 LINE {stroke = {w = 1;};}",
"282 114 LINE {stroke = {w = 1;};}",
"260 127 LINE {stroke = {w = 1;};}",
"240 141 LINE {stroke = {w = 1;};}",
"220 156 LINE {stroke = {w = 1;};}",
"201 173 LINE {stroke = {w = 1;};}",
"183 191 LINE {stroke = {w = 1;};}",
"167 209 LINE {stroke = {w = 1;};}",
"151 229 LINE {stroke = {w = 1;};}",
"137 250 LINE {stroke = {w = 1;};}",
"125 272 LINE {stroke = {w = 1;};}",
"113 294 LINE {stroke = {w = 1;};}",
"103 317 LINE {stroke = {w = 1;};}",
"95 340 LINE {stroke = {w = 1;};}",
"88 365 LINE {stroke = {w = 1;};}",
"82 389 LINE {stroke = {w = 1;};}",
"78 414 LINE {stroke = {w = 1;};}",
"76 439 LINE {stroke = {w = 1;};}",
"75 464 LINE {stroke = {w = 1;};}",
"76 489 LINE {stroke = {w = 1;};}",
"78 514 LINE {stroke = {w = 1;};}",
"82 539 LINE {stroke = {w = 1;};}",
"88 563 LINE {stroke = {w = 1;};}",
"95 587 LINE {stroke = {w = 1;};}",
"103 611 LINE {stroke = {w = 1;};}",
"113 634 LINE {stroke = {w = 1;};}",
"125 656 LINE {stroke = {w = 1;};}",
"137 678 LINE {stroke = {w = 1;};}",
"151 698 LINE {stroke = {w = 1;};}",
"167 718 LINE {stroke = {w = 1;};}",
"183 737 LINE {stroke = {w = 1;};}",
"201 755 LINE {stroke = {w = 1;};}",
"220 771 LINE {stroke = {w = 1;};}",
"240 787 LINE {stroke = {w = 1;};}",
"260 801 LINE {stroke = {w = 1;};}",
"282 813 LINE {stroke = {w = 1;};}",
"304 825 LINE {stroke = {w = 1;};}",
"327 835 LINE {stroke = {w = 1;};}",
"351 843 LINE {stroke = {w = 1;};}",
"375 850 LINE {stroke = {w = 1;};}",
"400 856 LINE {stroke = {w = 1;};}",
"424 860 LINE {stroke = {w = 1;};}",
"449 862 LINE {stroke = {w = 1;};}",
"474 863 LINE {stroke = {w = 1;};}",
"474 464 LINE {stroke = {w = 1;};}",
"524 68 LINE {stroke = {w = 1;};}",
"499 66 LINE {stroke = {w = 1;};}"
);
}
);
width = 950;
}
);
},
{
glyphname = four_nine_percent.liga;
lastChange = "2021-11-14 21:07:08 +0000";
layers = (
{
layerId = "3603F491-BDB4-4F7B-A4F4-044CFF075AAF";
paths = (
{
closed = 1;
nodes = (
"218 931 OFFCURVE {stroke = {w = 1;};}",
"9 722 OFFCURVE {stroke = {w = 1;};}",
"10 466 CURVE {stroke = {w = 1;};}",
"10 209 OFFCURVE {stroke = {w = 1;};}",
"218 1 OFFCURVE {stroke = {w = 1;};}",
"474 1 CURVE {stroke = {w = 1;};}",
"731 1 OFFCURVE {stroke = {w = 1;};}",
"939 209 OFFCURVE {stroke = {w = 1;};}",
"939 466 CURVE {stroke = {w = 1;};}",
"939 722 OFFCURVE {stroke = {w = 1;};}",
"731 931 OFFCURVE {stroke = {w = 1;};}",
"474 931 CURVE {stroke = {w = 1;};}"
);
},
{
closed = 1;
nodes = (
"449 66 LINE {stroke = {w = 1;};}",
"424 68 LINE {stroke = {w = 1;};}",
"400 72 LINE {stroke = {w = 1;};}",
"375 77 LINE {stroke = {w = 1;};}",
"351 84 LINE {stroke = {w = 1;};}",
"327 93 LINE {stroke = {w = 1;};}",
"304 103 LINE {stroke = {w = 1;};}",
"282 114 LINE {stroke = {w = 1;};}",
"260 127 LINE {stroke = {w = 1;};}",
"240 141 LINE {stroke = {w = 1;};}",
"220 156 LINE {stroke = {w = 1;};}",
"201 173 LINE {stroke = {w = 1;};}",
"183 191 LINE {stroke = {w = 1;};}",
"167 209 LINE {stroke = {w = 1;};}",
"151 229 LINE {stroke = {w = 1;};}",
"137 250 LINE {stroke = {w = 1;};}",
"125 272 LINE {stroke = {w = 1;};}",
"113 294 LINE {stroke = {w = 1;};}",
"103 317 LINE {stroke = {w = 1;};}",
"95 340 LINE {stroke = {w = 1;};}",
"88 365 LINE {stroke = {w = 1;};}",
"82 389 LINE {stroke = {w = 1;};}",
"78 414 LINE {stroke = {w = 1;};}",
"76 439 LINE {stroke = {w = 1;};}",
"75 464 LINE {stroke = {w = 1;};}",
"76 489 LINE {stroke = {w = 1;};}",
"78 514 LINE {stroke = {w = 1;};}",
"82 539 LINE {stroke = {w = 1;};}",
"88 563 LINE {stroke = {w = 1;};}",
"95 587 LINE {stroke = {w = 1;};}",
"103 611 LINE {stroke = {w = 1;};}",
"113 634 LINE {stroke = {w = 1;};}",
"125 656 LINE {stroke = {w = 1;};}",
"137 678 LINE {stroke = {w = 1;};}",
"151 698 LINE {stroke = {w = 1;};}",
"167 718 LINE {stroke = {w = 1;};}",
"183 737 LINE {stroke = {w = 1;};}",
"201 755 LINE {stroke = {w = 1;};}",
"220 771 LINE {stroke = {w = 1;};}",
"240 787 LINE {stroke = {w = 1;};}",
"260 801 LINE {stroke = {w = 1;};}",
"282 813 LINE {stroke = {w = 1;};}",
"304 825 LINE {stroke = {w = 1;};}",
"327 835 LINE {stroke = {w = 1;};}",
"351 843 LINE {stroke = {w = 1;};}",
"375 850 LINE {stroke = {w = 1;};}",
"400 856 LINE {stroke = {w = 1;};}",
"424 860 LINE {stroke = {w = 1;};}",
"449 862 LINE {stroke = {w = 1;};}",
"474 863 LINE {stroke = {w = 1;};}",
"474 464 LINE {stroke = {w = 1;};}",
"499 66 LINE {stroke = {w = 1;};}",
"474 65 LINE {stroke = {w = 1;};}"
);
}
);
width = 950;
}
);
},
{
glyphname = four_percent.liga;
lastChange = "2021-11-14 20:18:02 +0000";
layers = (
{
layerId = "3603F491-BDB4-4F7B-A4F4-044CFF075AAF";
paths = (
{
closed = 1;
nodes = (
"218 931 OFFCURVE {stroke = {w = 1;};}",
"9 722 OFFCURVE {stroke = {w = 1;};}",
"10 466 CURVE {stroke = {w = 1;};}",
"10 209 OFFCURVE {stroke = {w = 1;};}",
"218 1 OFFCURVE {stroke = {w = 1;};}",
"474 1 CURVE {stroke = {w = 1;};}",
"731 1 OFFCURVE {stroke = {w = 1;};}",
"939 209 OFFCURVE {stroke = {w = 1;};}",
"939 466 CURVE {stroke = {w = 1;};}",
"939 722 OFFCURVE {stroke = {w = 1;};}",
"731 931 OFFCURVE {stroke = {w = 1;};}",
"474 931 CURVE {stroke = {w = 1;};}"
);
},
{
closed = 1;
nodes = (
"866 389 LINE {stroke = {w = 1;};}",
"861 365 LINE {stroke = {w = 1;};}",
"854 340 LINE {stroke = {w = 1;};}",
"845 317 LINE {stroke = {w = 1;};}",
"835 294 LINE {stroke = {w = 1;};}",
"824 272 LINE {stroke = {w = 1;};}",
"811 250 LINE {stroke = {w = 1;};}",
"797 229 LINE {stroke = {w = 1;};}",
"782 209 LINE {stroke = {w = 1;};}",
"765 191 LINE {stroke = {w = 1;};}",
"747 173 LINE {stroke = {w = 1;};}",
"729 156 LINE {stroke = {w = 1;};}",
"709 141 LINE {stroke = {w = 1;};}",
"688 127 LINE {stroke = {w = 1;};}",
"667 114 LINE {stroke = {w = 1;};}",
"644 103 LINE {stroke = {w = 1;};}",
"621 93 LINE {stroke = {w = 1;};}",
"598 84 LINE {stroke = {w = 1;};}",
"574 77 LINE {stroke = {w = 1;};}",
"549 72 LINE {stroke = {w = 1;};}",
"524 68 LINE {stroke = {w = 1;};}",
"499 65 LINE {stroke = {w = 1;};}",
"474 65 LINE {stroke = {w = 1;};}",
"449 65 LINE {stroke = {w = 1;};}",
"424 68 LINE {stroke = {w = 1;};}",
"400 72 LINE {stroke = {w = 1;};}",
"375 77 LINE {stroke = {w = 1;};}",
"351 84 LINE {stroke = {w = 1;};}",
"327 93 LINE {stroke = {w = 1;};}",
"304 103 LINE {stroke = {w = 1;};}",
"282 114 LINE {stroke = {w = 1;};}",
"260 127 LINE {stroke = {w = 1;};}",
"240 141 LINE {stroke = {w = 1;};}",
"220 156 LINE {stroke = {w = 1;};}",
"201 173 LINE {stroke = {w = 1;};}",
"183 191 LINE {stroke = {w = 1;};}",
"167 209 LINE {stroke = {w = 1;};}",
"151 229 LINE {stroke = {w = 1;};}",
"137 250 LINE {stroke = {w = 1;};}",
"125 272 LINE {stroke = {w = 1;};}",
"113 294 LINE {stroke = {w = 1;};}",
"103 317 LINE {stroke = {w = 1;};}",
"95 340 LINE {stroke = {w = 1;};}",
"88 365 LINE {stroke = {w = 1;};}",
"82 389 LINE {stroke = {w = 1;};}",
"78 414 LINE {stroke = {w = 1;};}",
"76 439 LINE {stroke = {w = 1;};}",
"75 464 LINE {stroke = {w = 1;};}",
"76 489 LINE {stroke = {w = 1;};}",
"78 514 LINE {stroke = {w = 1;};}",
"82 539 LINE {stroke = {w = 1;};}",
"88 563 LINE {stroke = {w = 1;};}",
"95 587 LINE {stroke = {w = 1;};}",
"103 611 LINE {stroke = {w = 1;};}",
"113 634 LINE {stroke = {w = 1;};}",
"125 656 LINE {stroke = {w = 1;};}",
"137 678 LINE {stroke = {w = 1;};}",
"151 698 LINE {stroke = {w = 1;};}",
"167 718 LINE {stroke = {w = 1;};}",
"183 737 LINE {stroke = {w = 1;};}",
"201 755 LINE {stroke = {w = 1;};}",
"220 771 LINE {stroke = {w = 1;};}",
"240 787 LINE {stroke = {w = 1;};}",
"260 801 LINE {stroke = {w = 1;};}",
"282 813 LINE {stroke = {w = 1;};}",
"304 825 LINE {stroke = {w = 1;};}",
"327 835 LINE {stroke = {w = 1;};}",
"351 843 LINE {stroke = {w = 1;};}",
"375 850 LINE {stroke = {w = 1;};}",
"400 856 LINE {stroke = {w = 1;};}",
"424 860 LINE {stroke = {w = 1;};}",
"449 862 LINE {stroke = {w = 1;};}",
"474 863 LINE {stroke = {w = 1;};}",
"474 464 LINE {stroke = {w = 1;};}",
"574 850 LINE {stroke = {w = 1;};}",
"598 843 LINE {stroke = {w = 1;};}",
"621 835 LINE {stroke = {w = 1;};}",
"644 825 LINE {stroke = {w = 1;};}",
"667 813 LINE {stroke = {w = 1;};}",
"688 801 LINE {stroke = {w = 1;};}",
"709 787 LINE {stroke = {w = 1;};}",
"729 771 LINE {stroke = {w = 1;};}",
"747 755 LINE {stroke = {w = 1;};}",
"765 737 LINE {stroke = {w = 1;};}",
"782 718 LINE {stroke = {w = 1;};}",
"797 698 LINE {stroke = {w = 1;};}",
"811 678 LINE {stroke = {w = 1;};}",
"824 656 LINE {stroke = {w = 1;};}",
"835 634 LINE {stroke = {w = 1;};}",
"845 611 LINE {stroke = {w = 1;};}",
"854 587 LINE {stroke = {w = 1;};}",
"861 563 LINE {stroke = {w = 1;};}",
"866 539 LINE {stroke = {w = 1;};}",
"870 514 LINE {stroke = {w = 1;};}",
"873 489 LINE {stroke = {w = 1;};}",
"873 464 LINE {stroke = {w = 1;};}",
"873 439 LINE {stroke = {w = 1;};}",
"870 414 LINE {stroke = {w = 1;};}"
);
}
);
width = 950;
}
);
},
{
glyphname = five_zero_percent.liga;
lastChange = "2021-11-14 21:07:54 +0000";
layers = (
{
layerId = "3603F491-BDB4-4F7B-A4F4-044CFF075AAF";
paths = (
{
closed = 1;
nodes = (
"218 931 OFFCURVE {stroke = {w = 1;};}",
"9 722 OFFCURVE {stroke = {w = 1;};}",
"10 466 CURVE {stroke = {w = 1;};}",
"10 209 OFFCURVE {stroke = {w = 1;};}",
"218 1 OFFCURVE {stroke = {w = 1;};}",
"474 1 CURVE {stroke = {w = 1;};}",
"731 1 OFFCURVE {stroke = {w = 1;};}",
"939 209 OFFCURVE {stroke = {w = 1;};}",
"939 466 CURVE {stroke = {w = 1;};}",
"939 722 OFFCURVE {stroke = {w = 1;};}",
"731 931 OFFCURVE {stroke = {w = 1;};}",
"474 931 CURVE {stroke = {w = 1;};}"
);
},
{
closed = 1;
nodes = (
"449 66 LINE {stroke = {w = 1;};}",
"424 68 LINE {stroke = {w = 1;};}",
"400 72 LINE {stroke = {w = 1;};}",
"375 77 LINE {stroke = {w = 1;};}",
"351 84 LINE {stroke = {w = 1;};}",
"327 93 LINE {stroke = {w = 1;};}",
"304 103 LINE {stroke = {w = 1;};}",
"282 114 LINE {stroke = {w = 1;};}",
"260 127 LINE {stroke = {w = 1;};}",
"240 141 LINE {stroke = {w = 1;};}",
"220 156 LINE {stroke = {w = 1;};}",
"201 173 LINE {stroke = {w = 1;};}",
"183 191 LINE {stroke = {w = 1;};}",
"167 209 LINE {stroke = {w = 1;};}",
"151 229 LINE {stroke = {w = 1;};}",
"137 250 LINE {stroke = {w = 1;};}",
"125 272 LINE {stroke = {w = 1;};}",
"113 294 LINE {stroke = {w = 1;};}",
"103 317 LINE {stroke = {w = 1;};}",
"95 340 LINE {stroke = {w = 1;};}",
"88 365 LINE {stroke = {w = 1;};}",
"82 389 LINE {stroke = {w = 1;};}",
"78 414 LINE {stroke = {w = 1;};}",
"76 439 LINE {stroke = {w = 1;};}",
"75 464 LINE {stroke = {w = 1;};}",
"76 489 LINE {stroke = {w = 1;};}",
"78 514 LINE {stroke = {w = 1;};}",
"82 539 LINE {stroke = {w = 1;};}",
"88 563 LINE {stroke = {w = 1;};}",
"95 587 LINE {stroke = {w = 1;};}",
"103 611 LINE {stroke = {w = 1;};}",
"113 634 LINE {stroke = {w = 1;};}",
"125 656 LINE {stroke = {w = 1;};}",
"137 678 LINE {stroke = {w = 1;};}",
"151 698 LINE {stroke = {w = 1;};}",
"167 718 LINE {stroke = {w = 1;};}",
"183 737 LINE {stroke = {w = 1;};}",
"201 755 LINE {stroke = {w = 1;};}",
"220 771 LINE {stroke = {w = 1;};}",
"240 787 LINE {stroke = {w = 1;};}",
"260 801 LINE {stroke = {w = 1;};}",
"282 813 LINE {stroke = {w = 1;};}",
"304 825 LINE {stroke = {w = 1;};}",
"327 835 LINE {stroke = {w = 1;};}",
"351 843 LINE {stroke = {w = 1;};}",
"375 850 LINE {stroke = {w = 1;};}",
"400 856 LINE {stroke = {w = 1;};}",
"424 860 LINE {stroke = {w = 1;};}",
"449 862 LINE {stroke = {w = 1;};}",
"474 863 LINE {stroke = {w = 1;};}",
"474 464 LINE {stroke = {w = 1;};}",
"474 65 LINE {stroke = {w = 1;};}"
);
}
);
width = 950;
}
);
},
{
glyphname = five_one_percent.liga;
lastChange = "2021-11-14 21:12:29 +0000";
layers = (
{
layerId = "3603F491-BDB4-4F7B-A4F4-044CFF075AAF";
paths = (
{
closed = 1;
nodes = (
"218 931 OFFCURVE {stroke = {w = 1;};}",
"9 722 OFFCURVE {stroke = {w = 1;};}",
"10 466 CURVE {stroke = {w = 1;};}",
"10 209 OFFCURVE {stroke = {w = 1;};}",
"218 1 OFFCURVE {stroke = {w = 1;};}",
"474 1 CURVE {stroke = {w = 1;};}",
"731 1 OFFCURVE {stroke = {w = 1;};}",
"939 209 OFFCURVE {stroke = {w = 1;};}",
"939 466 CURVE {stroke = {w = 1;};}",
"939 722 OFFCURVE {stroke = {w = 1;};}",
"731 931 OFFCURVE {stroke = {w = 1;};}",
"474 931 CURVE {stroke = {w = 1;};}"
);
},
{
closed = 1;
nodes = (
"424 68 LINE {stroke = {w = 1;};}",
"400 72 LINE {stroke = {w = 1;};}",
"375 77 LINE {stroke = {w = 1;};}",
"351 84 LINE {stroke = {w = 1;};}",
"327 93 LINE {stroke = {w = 1;};}",
"304 103 LINE {stroke = {w = 1;};}",
"282 114 LINE {stroke = {w = 1;};}",
"260 127 LINE {stroke = {w = 1;};}",
"240 141 LINE {stroke = {w = 1;};}",
"220 156 LINE {stroke = {w = 1;};}",
"201 173 LINE {stroke = {w = 1;};}",
"183 191 LINE {stroke = {w = 1;};}",
"167 209 LINE {stroke = {w = 1;};}",
"151 229 LINE {stroke = {w = 1;};}",
"137 250 LINE {stroke = {w = 1;};}",
"125 272 LINE {stroke = {w = 1;};}",
"113 294 LINE {stroke = {w = 1;};}",
"103 317 LINE {stroke = {w = 1;};}",
"95 340 LINE {stroke = {w = 1;};}",
"88 365 LINE {stroke = {w = 1;};}",
"82 389 LINE {stroke = {w = 1;};}",
"78 414 LINE {stroke = {w = 1;};}",
"76 439 LINE {stroke = {w = 1;};}",
"75 464 LINE {stroke = {w = 1;};}",
"76 489 LINE {stroke = {w = 1;};}",
"78 514 LINE {stroke = {w = 1;};}",
"82 539 LINE {stroke = {w = 1;};}",
"88 563 LINE {stroke = {w = 1;};}",
"95 587 LINE {stroke = {w = 1;};}",
"103 611 LINE {stroke = {w = 1;};}",
"113 634 LINE {stroke = {w = 1;};}",
"125 656 LINE {stroke = {w = 1;};}",
"137 678 LINE {stroke = {w = 1;};}",
"151 698 LINE {stroke = {w = 1;};}",
"167 718 LINE {stroke = {w = 1;};}",
"183 737 LINE {stroke = {w = 1;};}",
"201 755 LINE {stroke = {w = 1;};}",
"220 771 LINE {stroke = {w = 1;};}",
"240 787 LINE {stroke = {w = 1;};}",
"260 801 LINE {stroke = {w = 1;};}",
"282 813 LINE {stroke = {w = 1;};}",
"304 825 LINE {stroke = {w = 1;};}",
"327 835 LINE {stroke = {w = 1;};}",
"351 843 LINE {stroke = {w = 1;};}",
"375 850 LINE {stroke = {w = 1;};}",
"400 856 LINE {stroke = {w = 1;};}",
"424 860 LINE {stroke = {w = 1;};}",
"449 862 LINE {stroke = {w = 1;};}",
"474 863 LINE {stroke = {w = 1;};}",
"474 464 LINE {stroke = {w = 1;};}",
"449 66 LINE {stroke = {w = 1;};}"
);
}
);
width = 950;
}
);
},
{
glyphname = five_two_percent.liga;
lastChange = "2021-11-14 21:13:24 +0000";
layers = (
{
layerId = "3603F491-BDB4-4F7B-A4F4-044CFF075AAF";
paths = (
{
closed = 1;
nodes = (
"218 931 OFFCURVE {stroke = {w = 1;};}",
"9 722 OFFCURVE {stroke = {w = 1;};}",
"10 466 CURVE {stroke = {w = 1;};}",
"10 209 OFFCURVE {stroke = {w = 1;};}",
"218 1 OFFCURVE {stroke = {w = 1;};}",
"474 1 CURVE {stroke = {w = 1;};}",
"731 1 OFFCURVE {stroke = {w = 1;};}",
"939 209 OFFCURVE {stroke = {w = 1;};}",
"939 466 CURVE {stroke = {w = 1;};}",
"939 722 OFFCURVE {stroke = {w = 1;};}",
"731 931 OFFCURVE {stroke = {w = 1;};}",
"474 931 CURVE {stroke = {w = 1;};}"
);
},
{
closed = 1;
nodes = (
"400 72 LINE {stroke = {w = 1;};}",
"375 77 LINE {stroke = {w = 1;};}",
"351 84 LINE {stroke = {w = 1;};}",
"327 93 LINE {stroke = {w = 1;};}",
"304 103 LINE {stroke = {w = 1;};}",
"282 114 LINE {stroke = {w = 1;};}",
"260 127 LINE {stroke = {w = 1;};}",
"240 141 LINE {stroke = {w = 1;};}",
"220 156 LINE {stroke = {w = 1;};}",
"201 173 LINE {stroke = {w = 1;};}",
"183 191 LINE {stroke = {w = 1;};}",
"167 209 LINE {stroke = {w = 1;};}",
"151 229 LINE {stroke = {w = 1;};}",
"137 250 LINE {stroke = {w = 1;};}",
"125 272 LINE {stroke = {w = 1;};}",
"113 294 LINE {stroke = {w = 1;};}",
"103 317 LINE {stroke = {w = 1;};}",
"95 340 LINE {stroke = {w = 1;};}",
"88 365 LINE {stroke = {w = 1;};}",
"82 389 LINE {stroke = {w = 1;};}",
"78 414 LINE {stroke = {w = 1;};}",
"76 439 LINE {stroke = {w = 1;};}",
"75 464 LINE {stroke = {w = 1;};}",
"76 489 LINE {stroke = {w = 1;};}",
"78 514 LINE {stroke = {w = 1;};}",
"82 539 LINE {stroke = {w = 1;};}",
"88 563 LINE {stroke = {w = 1;};}",
"95 587 LINE {stroke = {w = 1;};}",
"103 611 LINE {stroke = {w = 1;};}",
"113 634 LINE {stroke = {w = 1;};}",
"125 656 LINE {stroke = {w = 1;};}",
"137 678 LINE {stroke = {w = 1;};}",
"151 698 LINE {stroke = {w = 1;};}",
"167 718 LINE {stroke = {w = 1;};}",
"183 737 LINE {stroke = {w = 1;};}",
"201 755 LINE {stroke = {w = 1;};}",
"220 771 LINE {stroke = {w = 1;};}",
"240 787 LINE {stroke = {w = 1;};}",
"260 801 LINE {stroke = {w = 1;};}",
"282 813 LINE {stroke = {w = 1;};}",
"304 825 LINE {stroke = {w = 1;};}",
"327 835 LINE {stroke = {w = 1;};}",
"351 843 LINE {stroke = {w = 1;};}",
"375 850 LINE {stroke = {w = 1;};}",
"400 856 LINE {stroke = {w = 1;};}",
"424 860 LINE {stroke = {w = 1;};}",
"449 862 LINE {stroke = {w = 1;};}",
"474 863 LINE {stroke = {w = 1;};}",
"474 464 LINE {stroke = {w = 1;};}",
"424 68 LINE {stroke = {w = 1;};}"
);
}
);
width = 950;
}
);
},
{
glyphname = five_three_percent.liga;
lastChange = "2021-11-14 21:15:36 +0000";
layers = (
{
layerId = "3603F491-BDB4-4F7B-A4F4-044CFF075AAF";
paths = (
{
closed = 1;
nodes = (
"218 931 OFFCURVE {stroke = {w = 1;};}",
"9 722 OFFCURVE {stroke = {w = 1;};}",
"10 466 CURVE {stroke = {w = 1;};}",
"10 209 OFFCURVE {stroke = {w = 1;};}",
"218 1 OFFCURVE {stroke = {w = 1;};}",
"474 1 CURVE {stroke = {w = 1;};}",
"731 1 OFFCURVE {stroke = {w = 1;};}",
"939 209 OFFCURVE {stroke = {w = 1;};}",
"939 466 CURVE {stroke = {w = 1;};}",
"939 722 OFFCURVE {stroke = {w = 1;};}",
"731 931 OFFCURVE {stroke = {w = 1;};}",
"474 931 CURVE {stroke = {w = 1;};}"
);
},
{
closed = 1;
nodes = (
"375 77 LINE {stroke = {w = 1;};}",
"351 84 LINE {stroke = {w = 1;};}",
"327 93 LINE {stroke = {w = 1;};}",
"304 103 LINE {stroke = {w = 1;};}",
"282 114 LINE {stroke = {w = 1;};}",
"260 127 LINE {stroke = {w = 1;};}",
"240 141 LINE {stroke = {w = 1;};}",
"220 156 LINE {stroke = {w = 1;};}",
"201 173 LINE {stroke = {w = 1;};}",
"183 191 LINE {stroke = {w = 1;};}",
"167 209 LINE {stroke = {w = 1;};}",
"151 229 LINE {stroke = {w = 1;};}",
"137 250 LINE {stroke = {w = 1;};}",
"125 272 LINE {stroke = {w = 1;};}",
"113 294 LINE {stroke = {w = 1;};}",
"103 317 LINE {stroke = {w = 1;};}",
"95 340 LINE {stroke = {w = 1;};}",
"88 365 LINE {stroke = {w = 1;};}",
"82 389 LINE {stroke = {w = 1;};}",
"78 414 LINE {stroke = {w = 1;};}",
"76 439 LINE {stroke = {w = 1;};}",
"75 464 LINE {stroke = {w = 1;};}",
"76 489 LINE {stroke = {w = 1;};}",
"78 514 LINE {stroke = {w = 1;};}",
"82 539 LINE {stroke = {w = 1;};}",
"88 563 LINE {stroke = {w = 1;};}",
"95 587 LINE {stroke = {w = 1;};}",
"103 611 LINE {stroke = {w = 1;};}",
"113 634 LINE {stroke = {w = 1;};}",
"125 656 LINE {stroke = {w = 1;};}",
"137 678 LINE {stroke = {w = 1;};}",
"151 698 LINE {stroke = {w = 1;};}",
"167 718 LINE {stroke = {w = 1;};}",
"183 737 LINE {stroke = {w = 1;};}",
"201 755 LINE {stroke = {w = 1;};}",
"220 771 LINE {stroke = {w = 1;};}",
"240 787 LINE {stroke = {w = 1;};}",
"260 801 LINE {stroke = {w = 1;};}",
"282 813 LINE {stroke = {w = 1;};}",
"304 825 LINE {stroke = {w = 1;};}",
"327 835 LINE {stroke = {w = 1;};}",
"351 843 LINE {stroke = {w = 1;};}",
"375 850 LINE {stroke = {w = 1;};}",
"400 856 LINE {stroke = {w = 1;};}",
"424 860 LINE {stroke = {w = 1;};}",
"449 862 LINE {stroke = {w = 1;};}",
"474 863 LINE {stroke = {w = 1;};}",
"474 464 LINE {stroke = {w = 1;};}",
"400 72 LINE {stroke = {w = 1;};}"
);
}
);
width = 950;
}
);
},
{
glyphname = five_four_percent.liga;
lastChange = "2021-11-14 21:16:24 +0000";
layers = (
{
layerId = "3603F491-BDB4-4F7B-A4F4-044CFF075AAF";
paths = (
{
closed = 1;
nodes = (
"218 931 OFFCURVE {stroke = {w = 1;};}",
"9 722 OFFCURVE {stroke = {w = 1;};}",
"10 466 CURVE {stroke = {w = 1;};}",
"10 209 OFFCURVE {stroke = {w = 1;};}",
"218 1 OFFCURVE {stroke = {w = 1;};}",
"474 1 CURVE {stroke = {w = 1;};}",
"731 1 OFFCURVE {stroke = {w = 1;};}",
"939 209 OFFCURVE {stroke = {w = 1;};}",
"939 466 CURVE {stroke = {w = 1;};}",
"939 722 OFFCURVE {stroke = {w = 1;};}",
"731 931 OFFCURVE {stroke = {w = 1;};}",
"474 931 CURVE {stroke = {w = 1;};}"
);
},
{
closed = 1;
nodes = (
"351 84 LINE {stroke = {w = 1;};}",
"327 93 LINE {stroke = {w = 1;};}",
"304 103 LINE {stroke = {w = 1;};}",
"282 114 LINE {stroke = {w = 1;};}",
"260 127 LINE {stroke = {w = 1;};}",
"240 141 LINE {stroke = {w = 1;};}",
"220 156 LINE {stroke = {w = 1;};}",
"201 173 LINE {stroke = {w = 1;};}",
"183 191 LINE {stroke = {w = 1;};}",
"167 209 LINE {stroke = {w = 1;};}",
"151 229 LINE {stroke = {w = 1;};}",
"137 250 LINE {stroke = {w = 1;};}",
"125 272 LINE {stroke = {w = 1;};}",
"113 294 LINE {stroke = {w = 1;};}",
"103 317 LINE {stroke = {w = 1;};}",
"95 340 LINE {stroke = {w = 1;};}",
"88 365 LINE {stroke = {w = 1;};}",
"82 389 LINE {stroke = {w = 1;};}",
"78 414 LINE {stroke = {w = 1;};}",
"76 439 LINE {stroke = {w = 1;};}",
"75 464 LINE {stroke = {w = 1;};}",
"76 489 LINE {stroke = {w = 1;};}",
"78 514 LINE {stroke = {w = 1;};}",
"82 539 LINE {stroke = {w = 1;};}",
"88 563 LINE {stroke = {w = 1;};}",
"95 587 LINE {stroke = {w = 1;};}",
"103 611 LINE {stroke = {w = 1;};}",
"113 634 LINE {stroke = {w = 1;};}",
"125 656 LINE {stroke = {w = 1;};}",
"137 678 LINE {stroke = {w = 1;};}",
"151 698 LINE {stroke = {w = 1;};}",
"167 718 LINE {stroke = {w = 1;};}",
"183 737 LINE {stroke = {w = 1;};}",
"201 755 LINE {stroke = {w = 1;};}",
"220 771 LINE {stroke = {w = 1;};}",
"240 787 LINE {stroke = {w = 1;};}",
"260 801 LINE {stroke = {w = 1;};}",
"282 813 LINE {stroke = {w = 1;};}",
"304 825 LINE {stroke = {w = 1;};}",
"327 835 LINE {stroke = {w = 1;};}",
"351 843 LINE {stroke = {w = 1;};}",
"375 850 LINE {stroke = {w = 1;};}",
"400 856 LINE {stroke = {w = 1;};}",
"424 860 LINE {stroke = {w = 1;};}",
"449 862 LINE {stroke = {w = 1;};}",
"474 863 LINE {stroke = {w = 1;};}",
"474 464 LINE {stroke = {w = 1;};}",
"375 77 LINE {stroke = {w = 1;};}"
);
}
);
width = 950;
}
);
},
{
glyphname = five_five_percent.liga;
lastChange = "2021-11-14 21:17:20 +0000";
layers = (
{
layerId = "3603F491-BDB4-4F7B-A4F4-044CFF075AAF";
paths = (
{
closed = 1;
nodes = (
"218 931 OFFCURVE {stroke = {w = 1;};}",
"9 722 OFFCURVE {stroke = {w = 1;};}",
"10 466 CURVE {stroke = {w = 1;};}",
"10 209 OFFCURVE {stroke = {w = 1;};}",
"218 1 OFFCURVE {stroke = {w = 1;};}",
"474 1 CURVE {stroke = {w = 1;};}",
"731 1 OFFCURVE {stroke = {w = 1;};}",
"939 209 OFFCURVE {stroke = {w = 1;};}",
"939 466 CURVE {stroke = {w = 1;};}",
"939 722 OFFCURVE {stroke = {w = 1;};}",
"731 931 OFFCURVE {stroke = {w = 1;};}",
"474 931 CURVE {stroke = {w = 1;};}"
);
},
{
closed = 1;
nodes = (
"327 93 LINE {stroke = {w = 1;};}",
"304 103 LINE {stroke = {w = 1;};}",
"282 114 LINE {stroke = {w = 1;};}",
"260 127 LINE {stroke = {w = 1;};}",
"240 141 LINE {stroke = {w = 1;};}",
"220 156 LINE {stroke = {w = 1;};}",
"201 173 LINE {stroke = {w = 1;};}",
"183 191 LINE {stroke = {w = 1;};}",
"167 209 LINE {stroke = {w = 1;};}",
"151 229 LINE {stroke = {w = 1;};}",
"137 250 LINE {stroke = {w = 1;};}",
"125 272 LINE {stroke = {w = 1;};}",
"113 294 LINE {stroke = {w = 1;};}",
"103 317 LINE {stroke = {w = 1;};}",
"95 340 LINE {stroke = {w = 1;};}",
"88 365 LINE {stroke = {w = 1;};}",
"82 389 LINE {stroke = {w = 1;};}",
"78 414 LINE {stroke = {w = 1;};}",
"76 439 LINE {stroke = {w = 1;};}",
"75 464 LINE {stroke = {w = 1;};}",
"76 489 LINE {stroke = {w = 1;};}",
"78 514 LINE {stroke = {w = 1;};}",
"82 539 LINE {stroke = {w = 1;};}",
"88 563 LINE {stroke = {w = 1;};}",
"95 587 LINE {stroke = {w = 1;};}",
"103 611 LINE {stroke = {w = 1;};}",
"113 634 LINE {stroke = {w = 1;};}",
"125 656 LINE {stroke = {w = 1;};}",
"137 678 LINE {stroke = {w = 1;};}",
"151 698 LINE {stroke = {w = 1;};}",
"167 718 LINE {stroke = {w = 1;};}",
"183 737 LINE {stroke = {w = 1;};}",
"201 755 LINE {stroke = {w = 1;};}",
"220 771 LINE {stroke = {w = 1;};}",
"240 787 LINE {stroke = {w = 1;};}",
"260 801 LINE {stroke = {w = 1;};}",
"282 813 LINE {stroke = {w = 1;};}",
"304 825 LINE {stroke = {w = 1;};}",
"327 835 LINE {stroke = {w = 1;};}",
"351 843 LINE {stroke = {w = 1;};}",
"375 850 LINE {stroke = {w = 1;};}",
"400 856 LINE {stroke = {w = 1;};}",
"424 860 LINE {stroke = {w = 1;};}",
"449 862 LINE {stroke = {w = 1;};}",
"474 863 LINE {stroke = {w = 1;};}",
"474 464 LINE {stroke = {w = 1;};}",
"351 84 LINE {stroke = {w = 1;};}"
);
}
);
width = 950;
}
);
},
{
glyphname = five_six_percent.liga;
lastChange = "2021-11-14 21:18:09 +0000";
layers = (
{
layerId = "3603F491-BDB4-4F7B-A4F4-044CFF075AAF";
paths = (
{
closed = 1;
nodes = (
"218 931 OFFCURVE {stroke = {w = 1;};}",
"9 722 OFFCURVE {stroke = {w = 1;};}",
"10 466 CURVE {stroke = {w = 1;};}",
"10 209 OFFCURVE {stroke = {w = 1;};}",
"218 1 OFFCURVE {stroke = {w = 1;};}",
"474 1 CURVE {stroke = {w = 1;};}",
"731 1 OFFCURVE {stroke = {w = 1;};}",
"939 209 OFFCURVE {stroke = {w = 1;};}",
"939 466 CURVE {stroke = {w = 1;};}",
"939 722 OFFCURVE {stroke = {w = 1;};}",
"731 931 OFFCURVE {stroke = {w = 1;};}",
"474 931 CURVE {stroke = {w = 1;};}"
);
},
{
closed = 1;
nodes = (
"304 103 LINE {stroke = {w = 1;};}",
"282 114 LINE {stroke = {w = 1;};}",
"260 127 LINE {stroke = {w = 1;};}",
"240 141 LINE {stroke = {w = 1;};}",
"220 156 LINE {stroke = {w = 1;};}",
"201 173 LINE {stroke = {w = 1;};}",
"183 191 LINE {stroke = {w = 1;};}",
"167 209 LINE {stroke = {w = 1;};}",
"151 229 LINE {stroke = {w = 1;};}",
"137 250 LINE {stroke = {w = 1;};}",
"125 272 LINE {stroke = {w = 1;};}",
"113 294 LINE {stroke = {w = 1;};}",
"103 317 LINE {stroke = {w = 1;};}",
"95 340 LINE {stroke = {w = 1;};}",
"88 365 LINE {stroke = {w = 1;};}",
"82 389 LINE {stroke = {w = 1;};}",
"78 414 LINE {stroke = {w = 1;};}",
"76 439 LINE {stroke = {w = 1;};}",
"75 464 LINE {stroke = {w = 1;};}",
"76 489 LINE {stroke = {w = 1;};}",
"78 514 LINE {stroke = {w = 1;};}",
"82 539 LINE {stroke = {w = 1;};}",
"88 563 LINE {stroke = {w = 1;};}",
"95 587 LINE {stroke = {w = 1;};}",
"103 611 LINE {stroke = {w = 1;};}",
"113 634 LINE {stroke = {w = 1;};}",
"125 656 LINE {stroke = {w = 1;};}",
"137 678 LINE {stroke = {w = 1;};}",
"151 698 LINE {stroke = {w = 1;};}",
"167 718 LINE {stroke = {w = 1;};}",
"183 737 LINE {stroke = {w = 1;};}",
"201 755 LINE {stroke = {w = 1;};}",
"220 771 LINE {stroke = {w = 1;};}",
"240 787 LINE {stroke = {w = 1;};}",
"260 801 LINE {stroke = {w = 1;};}",
"282 813 LINE {stroke = {w = 1;};}",
"304 825 LINE {stroke = {w = 1;};}",
"327 835 LINE {stroke = {w = 1;};}",
"351 843 LINE {stroke = {w = 1;};}",
"375 850 LINE {stroke = {w = 1;};}",
"400 856 LINE {stroke = {w = 1;};}",
"424 860 LINE {stroke = {w = 1;};}",
"449 862 LINE {stroke = {w = 1;};}",
"474 863 LINE {stroke = {w = 1;};}",
"474 464 LINE {stroke = {w = 1;};}",
"327 93 LINE {stroke = {w = 1;};}"
);
}
);
width = 950;
}
);
},
{
glyphname = five_seven_percent.liga;
lastChange = "2021-11-14 21:19:05 +0000";
layers = (
{
layerId = "3603F491-BDB4-4F7B-A4F4-044CFF075AAF";
paths = (
{
closed = 1;
nodes = (
"218 931 OFFCURVE {stroke = {w = 1;};}",
"9 722 OFFCURVE {stroke = {w = 1;};}",
"10 466 CURVE {stroke = {w = 1;};}",
"10 209 OFFCURVE {stroke = {w = 1;};}",
"218 1 OFFCURVE {stroke = {w = 1;};}",
"474 1 CURVE {stroke = {w = 1;};}",
"731 1 OFFCURVE {stroke = {w = 1;};}",
"939 209 OFFCURVE {stroke = {w = 1;};}",
"939 466 CURVE {stroke = {w = 1;};}",
"939 722 OFFCURVE {stroke = {w = 1;};}",
"731 931 OFFCURVE {stroke = {w = 1;};}",
"474 931 CURVE {stroke = {w = 1;};}"
);
},
{
closed = 1;
nodes = (
"282 114 LINE {stroke = {w = 1;};}",
"260 127 LINE {stroke = {w = 1;};}",
"240 141 LINE {stroke = {w = 1;};}",
"220 156 LINE {stroke = {w = 1;};}",
"201 173 LINE {stroke = {w = 1;};}",
"183 191 LINE {stroke = {w = 1;};}",
"167 209 LINE {stroke = {w = 1;};}",
"151 229 LINE {stroke = {w = 1;};}",
"137 250 LINE {stroke = {w = 1;};}",
"125 272 LINE {stroke = {w = 1;};}",
"113 294 LINE {stroke = {w = 1;};}",
"103 317 LINE {stroke = {w = 1;};}",
"95 340 LINE {stroke = {w = 1;};}",
"88 365 LINE {stroke = {w = 1;};}",
"82 389 LINE {stroke = {w = 1;};}",
"78 414 LINE {stroke = {w = 1;};}",
"76 439 LINE {stroke = {w = 1;};}",
"75 464 LINE {stroke = {w = 1;};}",
"76 489 LINE {stroke = {w = 1;};}",
"78 514 LINE {stroke = {w = 1;};}",
"82 539 LINE {stroke = {w = 1;};}",
"88 563 LINE {stroke = {w = 1;};}",
"95 587 LINE {stroke = {w = 1;};}",
"103 611 LINE {stroke = {w = 1;};}",
"113 634 LINE {stroke = {w = 1;};}",
"125 656 LINE {stroke = {w = 1;};}",
"137 678 LINE {stroke = {w = 1;};}",
"151 698 LINE {stroke = {w = 1;};}",
"167 718 LINE {stroke = {w = 1;};}",
"183 737 LINE {stroke = {w = 1;};}",
"201 755 LINE {stroke = {w = 1;};}",
"220 771 LINE {stroke = {w = 1;};}",
"240 787 LINE {stroke = {w = 1;};}",
"260 801 LINE {stroke = {w = 1;};}",
"282 813 LINE {stroke = {w = 1;};}",
"304 825 LINE {stroke = {w = 1;};}",
"327 835 LINE {stroke = {w = 1;};}",
"351 843 LINE {stroke = {w = 1;};}",
"375 850 LINE {stroke = {w = 1;};}",
"400 856 LINE {stroke = {w = 1;};}",
"424 860 LINE {stroke = {w = 1;};}",
"449 862 LINE {stroke = {w = 1;};}",
"474 863 LINE {stroke = {w = 1;};}",
"474 464 LINE {stroke = {w = 1;};}",
"304 103 LINE {stroke = {w = 1;};}"
);
}
);
width = 950;
}
);
},
{
glyphname = five_eight_percent.liga;
lastChange = "2021-11-14 21:20:09 +0000";
layers = (
{
layerId = "3603F491-BDB4-4F7B-A4F4-044CFF075AAF";
paths = (
{
closed = 1;
nodes = (
"218 931 OFFCURVE {stroke = {w = 1;};}",
"10 723 OFFCURVE {stroke = {w = 1;};}",
"10 466 CURVE {stroke = {w = 1;};}",
"10 209 OFFCURVE {stroke = {w = 1;};}",
"218 1 OFFCURVE {stroke = {w = 1;};}",
"475 1 CURVE {stroke = {w = 1;};}",
"731 1 OFFCURVE {stroke = {w = 1;};}",
"939 209 OFFCURVE {stroke = {w = 1;};}",
"939 466 CURVE {stroke = {w = 1;};}",
"939 723 OFFCURVE {stroke = {w = 1;};}",
"731 931 OFFCURVE {stroke = {w = 1;};}",
"475 931 CURVE {stroke = {w = 1;};}"
);
},
{
closed = 1;
nodes = (
"261 127 LINE {stroke = {w = 1;};}",
"240 141 LINE {stroke = {w = 1;};}",
"220 157 LINE {stroke = {w = 1;};}",
"201 173 LINE {stroke = {w = 1;};}",
"184 191 LINE {stroke = {w = 1;};}",
"167 210 LINE {stroke = {w = 1;};}",
"152 230 LINE {stroke = {w = 1;};}",
"138 250 LINE {stroke = {w = 1;};}",
"125 272 LINE {stroke = {w = 1;};}",
"113 294 LINE {stroke = {w = 1;};}",
"104 317 LINE {stroke = {w = 1;};}",
"95 341 LINE {stroke = {w = 1;};}",
"88 365 LINE {stroke = {w = 1;};}",
"83 389 LINE {stroke = {w = 1;};}",
"79 414 LINE {stroke = {w = 1;};}",
"76 439 LINE {stroke = {w = 1;};}",
"75 464 LINE {stroke = {w = 1;};}",
"76 489 LINE {stroke = {w = 1;};}",
"79 514 LINE {stroke = {w = 1;};}",
"83 539 LINE {stroke = {w = 1;};}",
"88 563 LINE {stroke = {w = 1;};}",
"95 587 LINE {stroke = {w = 1;};}",
"104 611 LINE {stroke = {w = 1;};}",
"113 634 LINE {stroke = {w = 1;};}",
"125 656 LINE {stroke = {w = 1;};}",
"138 678 LINE {stroke = {w = 1;};}",
"152 699 LINE {stroke = {w = 1;};}",
"167 718 LINE {stroke = {w = 1;};}",
"184 737 LINE {stroke = {w = 1;};}",
"201 755 LINE {stroke = {w = 1;};}",
"220 772 LINE {stroke = {w = 1;};}",
"240 787 LINE {stroke = {w = 1;};}",
"261 801 LINE {stroke = {w = 1;};}",
"282 814 LINE {stroke = {w = 1;};}",
"305 825 LINE {stroke = {w = 1;};}",
"328 835 LINE {stroke = {w = 1;};}",
"351 844 LINE {stroke = {w = 1;};}",
"375 851 LINE {stroke = {w = 1;};}",
"400 856 LINE {stroke = {w = 1;};}",
"425 860 LINE {stroke = {w = 1;};}",
"450 862 LINE {stroke = {w = 1;};}",
"475 863 LINE {stroke = {w = 1;};}",
"475 464 LINE {stroke = {w = 1;};}",
"282 114 LINE {stroke = {w = 1;};}"
);
}
);
width = 950;
}
);
},
{
glyphname = five_nine_percent.liga;
lastChange = "2021-11-14 21:20:58 +0000";
layers = (
{
layerId = "3603F491-BDB4-4F7B-A4F4-044CFF075AAF";
paths = (
{
closed = 1;
nodes = (
"218 931 OFFCURVE {stroke = {w = 1;};}",
"9 722 OFFCURVE {stroke = {w = 1;};}",
"10 466 CURVE {stroke = {w = 1;};}",
"10 209 OFFCURVE {stroke = {w = 1;};}",
"218 1 OFFCURVE {stroke = {w = 1;};}",
"474 1 CURVE {stroke = {w = 1;};}",
"731 1 OFFCURVE {stroke = {w = 1;};}",
"939 209 OFFCURVE {stroke = {w = 1;};}",
"939 466 CURVE {stroke = {w = 1;};}",
"939 722 OFFCURVE {stroke = {w = 1;};}",
"731 931 OFFCURVE {stroke = {w = 1;};}",
"474 931 CURVE {stroke = {w = 1;};}"
);
},
{
closed = 1;
nodes = (
"240 141 LINE {stroke = {w = 1;};}",
"220 156 LINE {stroke = {w = 1;};}",
"201 173 LINE {stroke = {w = 1;};}",
"183 191 LINE {stroke = {w = 1;};}",
"167 209 LINE {stroke = {w = 1;};}",
"151 229 LINE {stroke = {w = 1;};}",
"137 250 LINE {stroke = {w = 1;};}",
"125 272 LINE {stroke = {w = 1;};}",
"113 294 LINE {stroke = {w = 1;};}",
"103 317 LINE {stroke = {w = 1;};}",
"95 340 LINE {stroke = {w = 1;};}",
"88 365 LINE {stroke = {w = 1;};}",
"82 389 LINE {stroke = {w = 1;};}",
"78 414 LINE {stroke = {w = 1;};}",
"76 439 LINE {stroke = {w = 1;};}",
"75 464 LINE {stroke = {w = 1;};}",
"76 489 LINE {stroke = {w = 1;};}",
"78 514 LINE {stroke = {w = 1;};}",
"82 539 LINE {stroke = {w = 1;};}",
"88 563 LINE {stroke = {w = 1;};}",
"95 587 LINE {stroke = {w = 1;};}",
"103 611 LINE {stroke = {w = 1;};}",
"113 634 LINE {stroke = {w = 1;};}",
"125 656 LINE {stroke = {w = 1;};}",
"137 678 LINE {stroke = {w = 1;};}",
"151 698 LINE {stroke = {w = 1;};}",
"167 718 LINE {stroke = {w = 1;};}",
"183 737 LINE {stroke = {w = 1;};}",
"201 755 LINE {stroke = {w = 1;};}",
"220 771 LINE {stroke = {w = 1;};}",
"240 787 LINE {stroke = {w = 1;};}",
"260 801 LINE {stroke = {w = 1;};}",
"282 813 LINE {stroke = {w = 1;};}",
"304 825 LINE {stroke = {w = 1;};}",
"327 835 LINE {stroke = {w = 1;};}",
"351 843 LINE {stroke = {w = 1;};}",
"375 850 LINE {stroke = {w = 1;};}",
"400 856 LINE {stroke = {w = 1;};}",
"424 860 LINE {stroke = {w = 1;};}",
"449 862 LINE {stroke = {w = 1;};}",
"474 863 LINE {stroke = {w = 1;};}",
"474 464 LINE {stroke = {w = 1;};}",
"260 127 LINE {stroke = {w = 1;};}"
);
}
);
width = 950;
}
);
},
{
glyphname = five_percent.liga;
lastChange = "2021-11-14 20:19:23 +0000";
layers = (
{
layerId = "3603F491-BDB4-4F7B-A4F4-044CFF075AAF";
paths = (
{
closed = 1;
nodes = (
"218 931 OFFCURVE {stroke = {w = 1;};}",
"9 722 OFFCURVE {stroke = {w = 1;};}",
"10 466 CURVE {stroke = {w = 1;};}",
"10 209 OFFCURVE {stroke = {w = 1;};}",
"218 1 OFFCURVE {stroke = {w = 1;};}",
"474 1 CURVE {stroke = {w = 1;};}",
"731 1 OFFCURVE {stroke = {w = 1;};}",
"939 209 OFFCURVE {stroke = {w = 1;};}",
"939 466 CURVE {stroke = {w = 1;};}",
"939 722 OFFCURVE {stroke = {w = 1;};}",
"731 931 OFFCURVE {stroke = {w = 1;};}",
"474 931 CURVE {stroke = {w = 1;};}"
);
},
{
closed = 1;
nodes = (
"866 389 LINE {stroke = {w = 1;};}",
"861 365 LINE {stroke = {w = 1;};}",
"854 340 LINE {stroke = {w = 1;};}",
"845 317 LINE {stroke = {w = 1;};}",
"835 294 LINE {stroke = {w = 1;};}",
"824 272 LINE {stroke = {w = 1;};}",
"811 250 LINE {stroke = {w = 1;};}",
"797 229 LINE {stroke = {w = 1;};}",
"782 209 LINE {stroke = {w = 1;};}",
"765 191 LINE {stroke = {w = 1;};}",
"747 173 LINE {stroke = {w = 1;};}",
"729 156 LINE {stroke = {w = 1;};}",
"709 141 LINE {stroke = {w = 1;};}",
"688 127 LINE {stroke = {w = 1;};}",
"667 114 LINE {stroke = {w = 1;};}",
"644 103 LINE {stroke = {w = 1;};}",
"621 93 LINE {stroke = {w = 1;};}",
"598 84 LINE {stroke = {w = 1;};}",
"574 77 LINE {stroke = {w = 1;};}",
"549 72 LINE {stroke = {w = 1;};}",
"524 68 LINE {stroke = {w = 1;};}",
"499 65 LINE {stroke = {w = 1;};}",
"474 65 LINE {stroke = {w = 1;};}",
"449 65 LINE {stroke = {w = 1;};}",
"424 68 LINE {stroke = {w = 1;};}",
"400 72 LINE {stroke = {w = 1;};}",
"375 77 LINE {stroke = {w = 1;};}",
"351 84 LINE {stroke = {w = 1;};}",
"327 93 LINE {stroke = {w = 1;};}",
"304 103 LINE {stroke = {w = 1;};}",
"282 114 LINE {stroke = {w = 1;};}",
"260 127 LINE {stroke = {w = 1;};}",
"240 141 LINE {stroke = {w = 1;};}",
"220 156 LINE {stroke = {w = 1;};}",
"201 173 LINE {stroke = {w = 1;};}",
"183 191 LINE {stroke = {w = 1;};}",
"167 209 LINE {stroke = {w = 1;};}",
"151 229 LINE {stroke = {w = 1;};}",
"137 250 LINE {stroke = {w = 1;};}",
"125 272 LINE {stroke = {w = 1;};}",
"113 294 LINE {stroke = {w = 1;};}",
"103 317 LINE {stroke = {w = 1;};}",
"95 340 LINE {stroke = {w = 1;};}",
"88 365 LINE {stroke = {w = 1;};}",
"82 389 LINE {stroke = {w = 1;};}",
"78 414 LINE {stroke = {w = 1;};}",
"76 439 LINE {stroke = {w = 1;};}",
"75 464 LINE {stroke = {w = 1;};}",
"76 489 LINE {stroke = {w = 1;};}",
"78 514 LINE {stroke = {w = 1;};}",
"82 539 LINE {stroke = {w = 1;};}",
"88 563 LINE {stroke = {w = 1;};}",
"95 587 LINE {stroke = {w = 1;};}",
"103 611 LINE {stroke = {w = 1;};}",
"113 634 LINE {stroke = {w = 1;};}",
"125 656 LINE {stroke = {w = 1;};}",
"137 678 LINE {stroke = {w = 1;};}",
"151 698 LINE {stroke = {w = 1;};}",
"167 718 LINE {stroke = {w = 1;};}",
"183 737 LINE {stroke = {w = 1;};}",
"201 755 LINE {stroke = {w = 1;};}",
"220 771 LINE {stroke = {w = 1;};}",
"240 787 LINE {stroke = {w = 1;};}",
"260 801 LINE {stroke = {w = 1;};}",
"282 813 LINE {stroke = {w = 1;};}",
"304 825 LINE {stroke = {w = 1;};}",
"327 835 LINE {stroke = {w = 1;};}",
"351 843 LINE {stroke = {w = 1;};}",
"375 850 LINE {stroke = {w = 1;};}",
"400 856 LINE {stroke = {w = 1;};}",
"424 860 LINE {stroke = {w = 1;};}",
"449 862 LINE {stroke = {w = 1;};}",
"474 863 LINE {stroke = {w = 1;};}",
"474 464 LINE {stroke = {w = 1;};}",
"598 843 LINE {stroke = {w = 1;};}",
"621 835 LINE {stroke = {w = 1;};}",
"644 825 LINE {stroke = {w = 1;};}",
"667 813 LINE {stroke = {w = 1;};}",
"688 801 LINE {stroke = {w = 1;};}",
"709 787 LINE {stroke = {w = 1;};}",
"729 771 LINE {stroke = {w = 1;};}",
"747 755 LINE {stroke = {w = 1;};}",
"765 737 LINE {stroke = {w = 1;};}",
"782 718 LINE {stroke = {w = 1;};}",
"797 698 LINE {stroke = {w = 1;};}",
"811 678 LINE {stroke = {w = 1;};}",
"824 656 LINE {stroke = {w = 1;};}",
"835 634 LINE {stroke = {w = 1;};}",
"845 611 LINE {stroke = {w = 1;};}",
"854 587 LINE {stroke = {w = 1;};}",
"861 563 LINE {stroke = {w = 1;};}",
"866 539 LINE {stroke = {w = 1;};}",
"870 514 LINE {stroke = {w = 1;};}",
"873 489 LINE {stroke = {w = 1;};}",
"873 464 LINE {stroke = {w = 1;};}",
"873 439 LINE {stroke = {w = 1;};}",
"870 414 LINE {stroke = {w = 1;};}"
);
}
);
width = 950;
}
);
},
{
glyphname = six_zero_percent.liga;
lastChange = "2021-11-14 21:21:47 +0000";
layers = (
{
layerId = "3603F491-BDB4-4F7B-A4F4-044CFF075AAF";
paths = (
{
closed = 1;
nodes = (
"218 931 OFFCURVE {stroke = {w = 1;};}",
"9 722 OFFCURVE {stroke = {w = 1;};}",
"10 466 CURVE {stroke = {w = 1;};}",
"10 209 OFFCURVE {stroke = {w = 1;};}",
"218 1 OFFCURVE {stroke = {w = 1;};}",
"474 1 CURVE {stroke = {w = 1;};}",
"731 1 OFFCURVE {stroke = {w = 1;};}",
"939 209 OFFCURVE {stroke = {w = 1;};}",
"939 466 CURVE {stroke = {w = 1;};}",
"939 722 OFFCURVE {stroke = {w = 1;};}",
"731 931 OFFCURVE {stroke = {w = 1;};}",
"474 931 CURVE {stroke = {w = 1;};}"
);
},
{
closed = 1;
nodes = (
"220 156 LINE {stroke = {w = 1;};}",
"201 173 LINE {stroke = {w = 1;};}",
"183 191 LINE {stroke = {w = 1;};}",
"167 209 LINE {stroke = {w = 1;};}",
"151 229 LINE {stroke = {w = 1;};}",
"137 250 LINE {stroke = {w = 1;};}",
"125 272 LINE {stroke = {w = 1;};}",
"113 294 LINE {stroke = {w = 1;};}",
"103 317 LINE {stroke = {w = 1;};}",
"95 340 LINE {stroke = {w = 1;};}",
"88 365 LINE {stroke = {w = 1;};}",
"82 389 LINE {stroke = {w = 1;};}",
"78 414 LINE {stroke = {w = 1;};}",
"76 439 LINE {stroke = {w = 1;};}",
"75 464 LINE {stroke = {w = 1;};}",
"76 489 LINE {stroke = {w = 1;};}",
"78 514 LINE {stroke = {w = 1;};}",
"82 539 LINE {stroke = {w = 1;};}",
"88 563 LINE {stroke = {w = 1;};}",
"95 587 LINE {stroke = {w = 1;};}",
"103 611 LINE {stroke = {w = 1;};}",
"113 634 LINE {stroke = {w = 1;};}",
"125 656 LINE {stroke = {w = 1;};}",
"137 678 LINE {stroke = {w = 1;};}",
"151 698 LINE {stroke = {w = 1;};}",
"167 718 LINE {stroke = {w = 1;};}",
"183 737 LINE {stroke = {w = 1;};}",
"201 755 LINE {stroke = {w = 1;};}",
"220 771 LINE {stroke = {w = 1;};}",
"240 787 LINE {stroke = {w = 1;};}",
"260 801 LINE {stroke = {w = 1;};}",
"282 813 LINE {stroke = {w = 1;};}",
"304 825 LINE {stroke = {w = 1;};}",
"327 835 LINE {stroke = {w = 1;};}",
"351 843 LINE {stroke = {w = 1;};}",
"375 850 LINE {stroke = {w = 1;};}",
"400 856 LINE {stroke = {w = 1;};}",
"424 860 LINE {stroke = {w = 1;};}",
"449 862 LINE {stroke = {w = 1;};}",
"474 863 LINE {stroke = {w = 1;};}",
"474 464 LINE {stroke = {w = 1;};}",
"240 141 LINE {stroke = {w = 1;};}"
);
}
);
width = 950;
}
);
},
{
glyphname = six_one_percent.liga;
lastChange = "2021-11-14 21:24:19 +0000";
layers = (
{
layerId = "3603F491-BDB4-4F7B-A4F4-044CFF075AAF";
paths = (
{
closed = 1;
nodes = (
"218 931 OFFCURVE {stroke = {w = 1;};}",
"9 722 OFFCURVE {stroke = {w = 1;};}",
"10 466 CURVE {stroke = {w = 1;};}",
"10 209 OFFCURVE {stroke = {w = 1;};}",
"218 1 OFFCURVE {stroke = {w = 1;};}",
"474 1 CURVE {stroke = {w = 1;};}",
"731 1 OFFCURVE {stroke = {w = 1;};}",
"939 209 OFFCURVE {stroke = {w = 1;};}",
"939 466 CURVE {stroke = {w = 1;};}",
"939 722 OFFCURVE {stroke = {w = 1;};}",
"731 931 OFFCURVE {stroke = {w = 1;};}",
"474 931 CURVE {stroke = {w = 1;};}"
);
},
{
closed = 1;
nodes = (
"201 173 LINE {stroke = {w = 1;};}",
"183 191 LINE {stroke = {w = 1;};}",
"167 209 LINE {stroke = {w = 1;};}",
"151 229 LINE {stroke = {w = 1;};}",
"137 250 LINE {stroke = {w = 1;};}",
"125 272 LINE {stroke = {w = 1;};}",
"113 294 LINE {stroke = {w = 1;};}",
"103 317 LINE {stroke = {w = 1;};}",
"95 340 LINE {stroke = {w = 1;};}",
"88 365 LINE {stroke = {w = 1;};}",
"82 389 LINE {stroke = {w = 1;};}",
"78 414 LINE {stroke = {w = 1;};}",
"76 439 LINE {stroke = {w = 1;};}",
"75 464 LINE {stroke = {w = 1;};}",
"76 489 LINE {stroke = {w = 1;};}",
"78 514 LINE {stroke = {w = 1;};}",
"82 539 LINE {stroke = {w = 1;};}",
"88 563 LINE {stroke = {w = 1;};}",
"95 587 LINE {stroke = {w = 1;};}",
"103 611 LINE {stroke = {w = 1;};}",
"113 634 LINE {stroke = {w = 1;};}",
"125 656 LINE {stroke = {w = 1;};}",
"137 678 LINE {stroke = {w = 1;};}",
"151 698 LINE {stroke = {w = 1;};}",
"167 718 LINE {stroke = {w = 1;};}",
"183 737 LINE {stroke = {w = 1;};}",
"201 755 LINE {stroke = {w = 1;};}",
"220 771 LINE {stroke = {w = 1;};}",
"240 787 LINE {stroke = {w = 1;};}",
"260 801 LINE {stroke = {w = 1;};}",
"282 813 LINE {stroke = {w = 1;};}",
"304 825 LINE {stroke = {w = 1;};}",
"327 835 LINE {stroke = {w = 1;};}",
"351 843 LINE {stroke = {w = 1;};}",
"375 850 LINE {stroke = {w = 1;};}",
"400 856 LINE {stroke = {w = 1;};}",
"424 860 LINE {stroke = {w = 1;};}",
"449 862 LINE {stroke = {w = 1;};}",
"474 863 LINE {stroke = {w = 1;};}",
"474 464 LINE {stroke = {w = 1;};}",
"220 156 LINE {stroke = {w = 1;};}"
);
}
);
width = 950;
}
);
},
{
glyphname = six_two_percent.liga;
lastChange = "2021-11-14 21:24:22 +0000";
layers = (
{
layerId = "3603F491-BDB4-4F7B-A4F4-044CFF075AAF";
paths = (
{
closed = 1;
nodes = (
"218 931 OFFCURVE {stroke = {w = 1;};}",
"9 722 OFFCURVE {stroke = {w = 1;};}",
"10 466 CURVE {stroke = {w = 1;};}",
"10 209 OFFCURVE {stroke = {w = 1;};}",
"218 1 OFFCURVE {stroke = {w = 1;};}",
"474 1 CURVE {stroke = {w = 1;};}",
"731 1 OFFCURVE {stroke = {w = 1;};}",
"939 209 OFFCURVE {stroke = {w = 1;};}",
"939 466 CURVE {stroke = {w = 1;};}",
"939 722 OFFCURVE {stroke = {w = 1;};}",
"731 931 OFFCURVE {stroke = {w = 1;};}",
"474 931 CURVE {stroke = {w = 1;};}"
);
},
{
closed = 1;
nodes = (
"183 191 LINE {stroke = {w = 1;};}",
"167 209 LINE {stroke = {w = 1;};}",
"151 229 LINE {stroke = {w = 1;};}",
"137 250 LINE {stroke = {w = 1;};}",
"125 272 LINE {stroke = {w = 1;};}",
"113 294 LINE {stroke = {w = 1;};}",
"103 317 LINE {stroke = {w = 1;};}",
"95 340 LINE {stroke = {w = 1;};}",
"88 365 LINE {stroke = {w = 1;};}",
"82 389 LINE {stroke = {w = 1;};}",
"78 414 LINE {stroke = {w = 1;};}",
"76 439 LINE {stroke = {w = 1;};}",
"75 464 LINE {stroke = {w = 1;};}",
"76 489 LINE {stroke = {w = 1;};}",
"78 514 LINE {stroke = {w = 1;};}",
"82 539 LINE {stroke = {w = 1;};}",
"88 563 LINE {stroke = {w = 1;};}",
"95 587 LINE {stroke = {w = 1;};}",
"103 611 LINE {stroke = {w = 1;};}",
"113 634 LINE {stroke = {w = 1;};}",
"125 656 LINE {stroke = {w = 1;};}",
"137 678 LINE {stroke = {w = 1;};}",
"151 698 LINE {stroke = {w = 1;};}",
"167 718 LINE {stroke = {w = 1;};}",
"183 737 LINE {stroke = {w = 1;};}",
"201 755 LINE {stroke = {w = 1;};}",
"220 771 LINE {stroke = {w = 1;};}",
"240 787 LINE {stroke = {w = 1;};}",
"260 801 LINE {stroke = {w = 1;};}",
"282 813 LINE {stroke = {w = 1;};}",
"304 825 LINE {stroke = {w = 1;};}",
"327 835 LINE {stroke = {w = 1;};}",
"351 843 LINE {stroke = {w = 1;};}",
"375 850 LINE {stroke = {w = 1;};}",
"400 856 LINE {stroke = {w = 1;};}",
"424 860 LINE {stroke = {w = 1;};}",
"449 862 LINE {stroke = {w = 1;};}",
"474 863 LINE {stroke = {w = 1;};}",
"474 464 LINE {stroke = {w = 1;};}",
"201 173 LINE {stroke = {w = 1;};}"
);
}
);
width = 950;
}
);
},
{
glyphname = six_three_percent.liga;
lastChange = "2021-11-14 21:25:14 +0000";
layers = (
{
layerId = "3603F491-BDB4-4F7B-A4F4-044CFF075AAF";
paths = (
{
closed = 1;
nodes = (
"218 931 OFFCURVE {stroke = {w = 1;};}",
"9 722 OFFCURVE {stroke = {w = 1;};}",
"10 466 CURVE {stroke = {w = 1;};}",
"10 209 OFFCURVE {stroke = {w = 1;};}",
"218 1 OFFCURVE {stroke = {w = 1;};}",
"474 1 CURVE {stroke = {w = 1;};}",
"731 1 OFFCURVE {stroke = {w = 1;};}",
"939 209 OFFCURVE {stroke = {w = 1;};}",
"939 466 CURVE {stroke = {w = 1;};}",
"939 722 OFFCURVE {stroke = {w = 1;};}",
"731 931 OFFCURVE {stroke = {w = 1;};}",
"474 931 CURVE {stroke = {w = 1;};}"
);
},
{
closed = 1;
nodes = (
"167 209 LINE {stroke = {w = 1;};}",
"151 229 LINE {stroke = {w = 1;};}",
"137 250 LINE {stroke = {w = 1;};}",
"125 272 LINE {stroke = {w = 1;};}",
"113 294 LINE {stroke = {w = 1;};}",
"103 317 LINE {stroke = {w = 1;};}",
"95 340 LINE {stroke = {w = 1;};}",
"88 365 LINE {stroke = {w = 1;};}",
"82 389 LINE {stroke = {w = 1;};}",
"78 414 LINE {stroke = {w = 1;};}",
"76 439 LINE {stroke = {w = 1;};}",
"75 464 LINE {stroke = {w = 1;};}",
"76 489 LINE {stroke = {w = 1;};}",
"78 514 LINE {stroke = {w = 1;};}",
"82 539 LINE {stroke = {w = 1;};}",
"88 563 LINE {stroke = {w = 1;};}",
"95 587 LINE {stroke = {w = 1;};}",
"103 611 LINE {stroke = {w = 1;};}",
"113 634 LINE {stroke = {w = 1;};}",
"125 656 LINE {stroke = {w = 1;};}",
"137 678 LINE {stroke = {w = 1;};}",
"151 698 LINE {stroke = {w = 1;};}",
"167 718 LINE {stroke = {w = 1;};}",
"183 737 LINE {stroke = {w = 1;};}",
"201 755 LINE {stroke = {w = 1;};}",
"220 771 LINE {stroke = {w = 1;};}",
"240 787 LINE {stroke = {w = 1;};}",
"260 801 LINE {stroke = {w = 1;};}",
"282 813 LINE {stroke = {w = 1;};}",
"304 825 LINE {stroke = {w = 1;};}",
"327 835 LINE {stroke = {w = 1;};}",
"351 843 LINE {stroke = {w = 1;};}",
"375 850 LINE {stroke = {w = 1;};}",
"400 856 LINE {stroke = {w = 1;};}",
"424 860 LINE {stroke = {w = 1;};}",
"449 862 LINE {stroke = {w = 1;};}",
"474 863 LINE {stroke = {w = 1;};}",
"474 464 LINE {stroke = {w = 1;};}",
"183 191 LINE {stroke = {w = 1;};}"
);
}
);
width = 950;
}
);
},
{
glyphname = six_four_percent.liga;
lastChange = "2021-11-14 21:25:59 +0000";
layers = (
{
layerId = "3603F491-BDB4-4F7B-A4F4-044CFF075AAF";
paths = (
{
closed = 1;
nodes = (
"218 931 OFFCURVE {stroke = {w = 1;};}",
"9 722 OFFCURVE {stroke = {w = 1;};}",
"10 466 CURVE {stroke = {w = 1;};}",
"10 209 OFFCURVE {stroke = {w = 1;};}",
"218 1 OFFCURVE {stroke = {w = 1;};}",
"474 1 CURVE {stroke = {w = 1;};}",
"731 1 OFFCURVE {stroke = {w = 1;};}",
"939 209 OFFCURVE {stroke = {w = 1;};}",
"939 466 CURVE {stroke = {w = 1;};}",
"939 722 OFFCURVE {stroke = {w = 1;};}",
"731 931 OFFCURVE {stroke = {w = 1;};}",
"474 931 CURVE {stroke = {w = 1;};}"
);
},
{
closed = 1;
nodes = (
"151 229 LINE {stroke = {w = 1;};}",
"137 250 LINE {stroke = {w = 1;};}",
"125 272 LINE {stroke = {w = 1;};}",
"113 294 LINE {stroke = {w = 1;};}",
"103 317 LINE {stroke = {w = 1;};}",
"95 340 LINE {stroke = {w = 1;};}",
"88 365 LINE {stroke = {w = 1;};}",
"82 389 LINE {stroke = {w = 1;};}",
"78 414 LINE {stroke = {w = 1;};}",
"76 439 LINE {stroke = {w = 1;};}",
"75 464 LINE {stroke = {w = 1;};}",
"76 489 LINE {stroke = {w = 1;};}",
"78 514 LINE {stroke = {w = 1;};}",
"82 539 LINE {stroke = {w = 1;};}",
"88 563 LINE {stroke = {w = 1;};}",
"95 587 LINE {stroke = {w = 1;};}",
"103 611 LINE {stroke = {w = 1;};}",
"113 634 LINE {stroke = {w = 1;};}",
"125 656 LINE {stroke = {w = 1;};}",
"137 678 LINE {stroke = {w = 1;};}",
"151 698 LINE {stroke = {w = 1;};}",
"167 718 LINE {stroke = {w = 1;};}",
"183 737 LINE {stroke = {w = 1;};}",
"201 755 LINE {stroke = {w = 1;};}",
"220 771 LINE {stroke = {w = 1;};}",
"240 787 LINE {stroke = {w = 1;};}",
"260 801 LINE {stroke = {w = 1;};}",
"282 813 LINE {stroke = {w = 1;};}",
"304 825 LINE {stroke = {w = 1;};}",
"327 835 LINE {stroke = {w = 1;};}",
"351 843 LINE {stroke = {w = 1;};}",
"375 850 LINE {stroke = {w = 1;};}",
"400 856 LINE {stroke = {w = 1;};}",
"424 860 LINE {stroke = {w = 1;};}",
"449 862 LINE {stroke = {w = 1;};}",
"474 863 LINE {stroke = {w = 1;};}",
"474 464 LINE {stroke = {w = 1;};}",
"167 209 LINE {stroke = {w = 1;};}"
);
}
);
width = 950;
}
);
},
{
glyphname = six_five_percent.liga;
lastChange = "2021-11-14 21:27:15 +0000";
layers = (
{
layerId = "3603F491-BDB4-4F7B-A4F4-044CFF075AAF";
paths = (
{
closed = 1;
nodes = (
"218 931 OFFCURVE {stroke = {w = 1;};}",
"9 722 OFFCURVE {stroke = {w = 1;};}",
"10 466 CURVE {stroke = {w = 1;};}",
"10 209 OFFCURVE {stroke = {w = 1;};}",
"218 1 OFFCURVE {stroke = {w = 1;};}",
"474 1 CURVE {stroke = {w = 1;};}",
"731 1 OFFCURVE {stroke = {w = 1;};}",
"939 209 OFFCURVE {stroke = {w = 1;};}",
"939 466 CURVE {stroke = {w = 1;};}",
"939 722 OFFCURVE {stroke = {w = 1;};}",
"731 931 OFFCURVE {stroke = {w = 1;};}",
"474 931 CURVE {stroke = {w = 1;};}"
);
},
{
closed = 1;
nodes = (
"137 250 LINE {stroke = {w = 1;};}",
"125 272 LINE {stroke = {w = 1;};}",
"113 294 LINE {stroke = {w = 1;};}",
"103 317 LINE {stroke = {w = 1;};}",
"95 340 LINE {stroke = {w = 1;};}",
"88 365 LINE {stroke = {w = 1;};}",
"82 389 LINE {stroke = {w = 1;};}",
"78 414 LINE {stroke = {w = 1;};}",
"76 439 LINE {stroke = {w = 1;};}",
"75 464 LINE {stroke = {w = 1;};}",
"76 489 LINE {stroke = {w = 1;};}",
"78 514 LINE {stroke = {w = 1;};}",
"82 539 LINE {stroke = {w = 1;};}",
"88 563 LINE {stroke = {w = 1;};}",
"95 587 LINE {stroke = {w = 1;};}",
"103 611 LINE {stroke = {w = 1;};}",
"113 634 LINE {stroke = {w = 1;};}",
"125 656 LINE {stroke = {w = 1;};}",
"137 678 LINE {stroke = {w = 1;};}",
"151 698 LINE {stroke = {w = 1;};}",
"167 718 LINE {stroke = {w = 1;};}",
"183 737 LINE {stroke = {w = 1;};}",
"201 755 LINE {stroke = {w = 1;};}",
"220 771 LINE {stroke = {w = 1;};}",
"240 787 LINE {stroke = {w = 1;};}",
"260 801 LINE {stroke = {w = 1;};}",
"282 813 LINE {stroke = {w = 1;};}",
"304 825 LINE {stroke = {w = 1;};}",
"327 835 LINE {stroke = {w = 1;};}",
"351 843 LINE {stroke = {w = 1;};}",
"375 850 LINE {stroke = {w = 1;};}",
"400 856 LINE {stroke = {w = 1;};}",
"424 860 LINE {stroke = {w = 1;};}",
"449 862 LINE {stroke = {w = 1;};}",
"474 863 LINE {stroke = {w = 1;};}",
"474 464 LINE {stroke = {w = 1;};}",
"151 229 LINE {stroke = {w = 1;};}"
);
}
);
width = 950;
}
);
},
